G04 #@! TF.GenerationSoftware,KiCad,Pcbnew,6.0.7-f9a2dced07~116~ubuntu20.04.1*
G04 #@! TF.CreationDate,2022-09-08T22:16:36-07:00*
G04 #@! TF.ProjectId,morefloppy_panel,6d6f7265-666c-46f7-9070-795f70616e65,rev?*
G04 #@! TF.SameCoordinates,Original*
G04 #@! TF.FileFunction,Copper,L2,Bot*
G04 #@! TF.FilePolarity,Positive*
%FSLAX46Y46*%
G04 Gerber Fmt 4.6, Leading zero omitted, Abs format (unit mm)*
G04 Created by KiCad (PCBNEW 6.0.7-f9a2dced07~116~ubuntu20.04.1) date 2022-09-08 22:16:36*
%MOMM*%
%LPD*%
G01*
G04 APERTURE LIST*
G04 #@! TA.AperFunction,ComponentPad*
%ADD10R,1.700000X1.700000*%
G04 #@! TD*
G04 #@! TA.AperFunction,ComponentPad*
%ADD11O,1.700000X1.700000*%
G04 #@! TD*
G04 #@! TA.AperFunction,ConnectorPad*
%ADD12R,8.000000X1.600000*%
G04 #@! TD*
G04 #@! TA.AperFunction,ViaPad*
%ADD13C,0.800000*%
G04 #@! TD*
G04 #@! TA.AperFunction,Conductor*
%ADD14C,0.250000*%
G04 #@! TD*
G04 APERTURE END LIST*
D10*
X151130000Y-120650000D03*
D11*
X153670000Y-120650000D03*
X156210000Y-120650000D03*
D10*
X151130000Y-118110000D03*
D11*
X153670000Y-118110000D03*
X156210000Y-118110000D03*
D10*
X151130000Y-113030000D03*
D11*
X153670000Y-113030000D03*
X156210000Y-113030000D03*
D10*
X151130000Y-110490000D03*
D11*
X153670000Y-110490000D03*
X156210000Y-110490000D03*
D12*
X120650000Y-101600000D03*
X120650000Y-104140000D03*
X120650000Y-106680000D03*
X120650000Y-109220000D03*
X120650000Y-111760000D03*
X120650000Y-114300000D03*
X120650000Y-116840000D03*
X120650000Y-119380000D03*
X120650000Y-121920000D03*
X120650000Y-124460000D03*
X120650000Y-127000000D03*
X120650000Y-129540000D03*
X120650000Y-132080000D03*
X120650000Y-134620000D03*
X120650000Y-137160000D03*
X120650000Y-139700000D03*
X120650000Y-142240000D03*
D10*
X132080000Y-101600000D03*
D11*
X134620000Y-101600000D03*
X132080000Y-104140000D03*
X134620000Y-104140000D03*
X132080000Y-106680000D03*
X134620000Y-106680000D03*
X132080000Y-109220000D03*
X134620000Y-109220000D03*
X132080000Y-111760000D03*
X134620000Y-111760000D03*
X132080000Y-114300000D03*
X134620000Y-114300000D03*
X132080000Y-116840000D03*
X134620000Y-116840000D03*
X132080000Y-119380000D03*
X134620000Y-119380000D03*
X132080000Y-121920000D03*
X134620000Y-121920000D03*
X132080000Y-124460000D03*
X134620000Y-124460000D03*
X132080000Y-127000000D03*
X134620000Y-127000000D03*
X132080000Y-129540000D03*
X134620000Y-129540000D03*
X132080000Y-132080000D03*
X134620000Y-132080000D03*
X132080000Y-134620000D03*
X134620000Y-134620000D03*
X132080000Y-137160000D03*
X134620000Y-137160000D03*
X132080000Y-139700000D03*
X134620000Y-139700000D03*
X132080000Y-142240000D03*
X134620000Y-142240000D03*
D10*
X181610000Y-101600000D03*
D11*
X184150000Y-101600000D03*
X181610000Y-104140000D03*
X184150000Y-104140000D03*
X181610000Y-106680000D03*
X184150000Y-106680000D03*
X181610000Y-109220000D03*
X184150000Y-109220000D03*
X181610000Y-111760000D03*
X184150000Y-111760000D03*
X181610000Y-114300000D03*
X184150000Y-114300000D03*
X181610000Y-116840000D03*
X184150000Y-116840000D03*
X181610000Y-119380000D03*
X184150000Y-119380000D03*
X181610000Y-121920000D03*
X184150000Y-121920000D03*
X181610000Y-124460000D03*
X184150000Y-124460000D03*
X181610000Y-127000000D03*
X184150000Y-127000000D03*
X181610000Y-129540000D03*
X184150000Y-129540000D03*
X181610000Y-132080000D03*
X184150000Y-132080000D03*
X181610000Y-134620000D03*
X184150000Y-134620000D03*
X181610000Y-137160000D03*
X184150000Y-137160000D03*
X181610000Y-139700000D03*
X184150000Y-139700000D03*
X181610000Y-142240000D03*
X184150000Y-142240000D03*
D10*
X166370000Y-101600000D03*
D11*
X168910000Y-101600000D03*
X166370000Y-104140000D03*
X168910000Y-104140000D03*
X166370000Y-106680000D03*
X168910000Y-106680000D03*
X166370000Y-109220000D03*
X168910000Y-109220000D03*
X166370000Y-111760000D03*
X168910000Y-111760000D03*
X166370000Y-114300000D03*
X168910000Y-114300000D03*
X166370000Y-116840000D03*
X168910000Y-116840000D03*
X166370000Y-119380000D03*
X168910000Y-119380000D03*
X166370000Y-121920000D03*
X168910000Y-121920000D03*
X166370000Y-124460000D03*
X168910000Y-124460000D03*
X166370000Y-127000000D03*
X168910000Y-127000000D03*
X166370000Y-129540000D03*
X168910000Y-129540000D03*
X166370000Y-132080000D03*
X168910000Y-132080000D03*
X166370000Y-134620000D03*
X168910000Y-134620000D03*
X166370000Y-137160000D03*
X168910000Y-137160000D03*
X166370000Y-139700000D03*
X168910000Y-139700000D03*
X166370000Y-142240000D03*
X168910000Y-142240000D03*
D13*
X160020000Y-109220000D03*
X160020000Y-111760000D03*
X138430000Y-115570000D03*
X144780000Y-111760000D03*
X160020000Y-115570000D03*
X161290000Y-116840000D03*
X171450000Y-115570000D03*
X161290000Y-115570000D03*
X171171848Y-113308152D03*
X163830000Y-114935000D03*
X162560000Y-116840000D03*
D14*
X138430000Y-115570000D02*
X134620000Y-111760000D01*
X137160000Y-119380000D02*
X134620000Y-119380000D01*
X144780000Y-111760000D02*
X137160000Y-119380000D01*
X160745001Y-114844999D02*
X162635997Y-114844999D01*
X162635997Y-114844999D02*
X165995997Y-118204999D01*
X165995997Y-118204999D02*
X167734999Y-118204999D01*
X160020000Y-115570000D02*
X160745001Y-114844999D01*
X167734999Y-118204999D02*
X168910000Y-119380000D01*
X161290000Y-117405685D02*
X156870684Y-121825001D01*
X161290000Y-116840000D02*
X161290000Y-117405685D01*
X152305001Y-121024003D02*
X152305001Y-119285001D01*
X153105999Y-121825001D02*
X152305001Y-121024003D01*
X152305001Y-119285001D02*
X151130000Y-118110000D01*
X156870684Y-121825001D02*
X153105999Y-121825001D01*
X152305001Y-114205001D02*
X164535999Y-114205001D01*
X164535999Y-114205001D02*
X165805999Y-115475001D01*
X165805999Y-115475001D02*
X167734999Y-115475001D01*
X167734999Y-115475001D02*
X168910000Y-114300000D01*
X151130000Y-113030000D02*
X152305001Y-114205001D01*
X157057085Y-122275010D02*
X158777094Y-120555001D01*
X158777094Y-120555001D02*
X169474001Y-120555001D01*
X171450000Y-118579002D02*
X171450000Y-115570000D01*
X151130000Y-120650000D02*
X152755010Y-122275010D01*
X169474001Y-120555001D02*
X171450000Y-118579002D01*
X152755010Y-122275010D02*
X157057085Y-122275010D01*
X156210000Y-120650000D02*
X161290000Y-115570000D01*
X156210000Y-113030000D02*
X170893696Y-113030000D01*
X170893696Y-113030000D02*
X171171848Y-113308152D01*
X169379002Y-110490000D02*
X179444003Y-120555001D01*
X179444003Y-120555001D02*
X182974999Y-120555001D01*
X156210000Y-110490000D02*
X169379002Y-110490000D01*
X182974999Y-120555001D02*
X184150000Y-119380000D01*
X163830000Y-114935000D02*
X165735000Y-116840000D01*
X165100000Y-119380000D02*
X166370000Y-119380000D01*
X165735000Y-116840000D02*
X166370000Y-116840000D01*
X162560000Y-116840000D02*
X165100000Y-119380000D01*
G04 #@! TA.AperFunction,Conductor*
G36*
X185390018Y-99570000D02*
G01*
X185404852Y-99572310D01*
X185404855Y-99572310D01*
X185413724Y-99573691D01*
X185423659Y-99572392D01*
X185424746Y-99572250D01*
X185453431Y-99571793D01*
X185526741Y-99579013D01*
X185556212Y-99581916D01*
X185580432Y-99586733D01*
X185699546Y-99622866D01*
X185722355Y-99632315D01*
X185832124Y-99690987D01*
X185852655Y-99704705D01*
X185948876Y-99783671D01*
X185966329Y-99801124D01*
X186045295Y-99897345D01*
X186059013Y-99917876D01*
X186117685Y-100027645D01*
X186127134Y-100050454D01*
X186163267Y-100169568D01*
X186168084Y-100193789D01*
X186177541Y-100289809D01*
X186177091Y-100305868D01*
X186177800Y-100305877D01*
X186177690Y-100314853D01*
X186176309Y-100323724D01*
X186177473Y-100332626D01*
X186177473Y-100332628D01*
X186180436Y-100355283D01*
X186181500Y-100371621D01*
X186181500Y-143460633D01*
X186180000Y-143480018D01*
X186176309Y-143503724D01*
X186177473Y-143512626D01*
X186177750Y-143514746D01*
X186178207Y-143543431D01*
X186172528Y-143601097D01*
X186168084Y-143646212D01*
X186163267Y-143670432D01*
X186127134Y-143789546D01*
X186117685Y-143812355D01*
X186059013Y-143922124D01*
X186045295Y-143942655D01*
X185966329Y-144038876D01*
X185948876Y-144056329D01*
X185852655Y-144135295D01*
X185832124Y-144149013D01*
X185722355Y-144207685D01*
X185699546Y-144217134D01*
X185580432Y-144253267D01*
X185556211Y-144258084D01*
X185460191Y-144267541D01*
X185444132Y-144267091D01*
X185444123Y-144267800D01*
X185435147Y-144267690D01*
X185426276Y-144266309D01*
X185417374Y-144267473D01*
X185417372Y-144267473D01*
X185404856Y-144269110D01*
X185394714Y-144270436D01*
X185378379Y-144271500D01*
X124586000Y-144271500D01*
X124517879Y-144251498D01*
X124471386Y-144197842D01*
X124460000Y-144145500D01*
X124460000Y-143673999D01*
X124480002Y-143605878D01*
X124533658Y-143559385D01*
X124586000Y-143547999D01*
X124694669Y-143547999D01*
X124701490Y-143547629D01*
X124752352Y-143542105D01*
X124767604Y-143538479D01*
X124888054Y-143493324D01*
X124903649Y-143484786D01*
X125005724Y-143408285D01*
X125018285Y-143395724D01*
X125094786Y-143293649D01*
X125103324Y-143278054D01*
X125148478Y-143157606D01*
X125152105Y-143142351D01*
X125157631Y-143091486D01*
X125158000Y-143084672D01*
X125158000Y-142512115D01*
X125156782Y-142507966D01*
X130748257Y-142507966D01*
X130778565Y-142642446D01*
X130781645Y-142652275D01*
X130861770Y-142849603D01*
X130866413Y-142858794D01*
X130977694Y-143040388D01*
X130983777Y-143048699D01*
X131123213Y-143209667D01*
X131130580Y-143216883D01*
X131294434Y-143352916D01*
X131302881Y-143358831D01*
X131486756Y-143466279D01*
X131496042Y-143470729D01*
X131695001Y-143546703D01*
X131704899Y-143549579D01*
X131808250Y-143570606D01*
X131822299Y-143569410D01*
X131826000Y-143559065D01*
X131826000Y-143558517D01*
X132334000Y-143558517D01*
X132338064Y-143572359D01*
X132351478Y-143574393D01*
X132358184Y-143573534D01*
X132368262Y-143571392D01*
X132572255Y-143510191D01*
X132581842Y-143506433D01*
X132773095Y-143412739D01*
X132781945Y-143407464D01*
X132955328Y-143283792D01*
X132963200Y-143277139D01*
X133114052Y-143126812D01*
X133120730Y-143118965D01*
X133248022Y-142941819D01*
X133249279Y-142942722D01*
X133296373Y-142899362D01*
X133366311Y-142887145D01*
X133431751Y-142914678D01*
X133459579Y-142946511D01*
X133467813Y-142959948D01*
X133519987Y-143045088D01*
X133666250Y-143213938D01*
X133838126Y-143356632D01*
X134031000Y-143469338D01*
X134239692Y-143549030D01*
X134244760Y-143550061D01*
X134244763Y-143550062D01*
X134339862Y-143569410D01*
X134458597Y-143593567D01*
X134463772Y-143593757D01*
X134463774Y-143593757D01*
X134676673Y-143601564D01*
X134676677Y-143601564D01*
X134681837Y-143601753D01*
X134686957Y-143601097D01*
X134686959Y-143601097D01*
X134898288Y-143574025D01*
X134898289Y-143574025D01*
X134903416Y-143573368D01*
X134908366Y-143571883D01*
X135112429Y-143510661D01*
X135112434Y-143510659D01*
X135117384Y-143509174D01*
X135317994Y-143410896D01*
X135499860Y-143281173D01*
X135658096Y-143123489D01*
X135788453Y-142942077D01*
X135797409Y-142923957D01*
X135885136Y-142746453D01*
X135885137Y-142746451D01*
X135887430Y-142741811D01*
X135943733Y-142556498D01*
X135950865Y-142533023D01*
X135950865Y-142533021D01*
X135952370Y-142528069D01*
X135981529Y-142306590D01*
X135983156Y-142240000D01*
X135964852Y-142017361D01*
X135910431Y-141800702D01*
X135821354Y-141595840D01*
X135700014Y-141408277D01*
X135549670Y-141243051D01*
X135545619Y-141239852D01*
X135545615Y-141239848D01*
X135378414Y-141107800D01*
X135378410Y-141107798D01*
X135374359Y-141104598D01*
X135333053Y-141081796D01*
X135283084Y-141031364D01*
X135268312Y-140961921D01*
X135293428Y-140895516D01*
X135320780Y-140868909D01*
X135364603Y-140837650D01*
X135468693Y-140763404D01*
X143786941Y-140763404D01*
X143787304Y-140767552D01*
X143787304Y-140767556D01*
X143797217Y-140880855D01*
X143813091Y-141062292D01*
X143814001Y-141066364D01*
X143814002Y-141066369D01*
X143871231Y-141322396D01*
X143878540Y-141355095D01*
X143982140Y-141636671D01*
X143984084Y-141640359D01*
X143984088Y-141640367D01*
X144080805Y-141823807D01*
X144122069Y-141902071D01*
X144295871Y-142146633D01*
X144500490Y-142366061D01*
X144732333Y-142556498D01*
X144987325Y-142714600D01*
X145260988Y-142837589D01*
X145318104Y-142854616D01*
X145544514Y-142922112D01*
X145544516Y-142922112D01*
X145548513Y-142923304D01*
X145552633Y-142923957D01*
X145552635Y-142923957D01*
X145637751Y-142937438D01*
X145844848Y-142970239D01*
X145887577Y-142972179D01*
X145937262Y-142974436D01*
X145937281Y-142974436D01*
X145938681Y-142974500D01*
X146126107Y-142974500D01*
X146349370Y-142959671D01*
X146353464Y-142958846D01*
X146353468Y-142958845D01*
X146494513Y-142930405D01*
X146643480Y-142900368D01*
X146927163Y-142802688D01*
X146930896Y-142800819D01*
X146930900Y-142800817D01*
X147191691Y-142670222D01*
X147191693Y-142670221D01*
X147195435Y-142668347D01*
X147363915Y-142553849D01*
X147431430Y-142507966D01*
X165038257Y-142507966D01*
X165068565Y-142642446D01*
X165071645Y-142652275D01*
X165151770Y-142849603D01*
X165156413Y-142858794D01*
X165267694Y-143040388D01*
X165273777Y-143048699D01*
X165413213Y-143209667D01*
X165420580Y-143216883D01*
X165584434Y-143352916D01*
X165592881Y-143358831D01*
X165776756Y-143466279D01*
X165786042Y-143470729D01*
X165985001Y-143546703D01*
X165994899Y-143549579D01*
X166098250Y-143570606D01*
X166112299Y-143569410D01*
X166116000Y-143559065D01*
X166116000Y-142512115D01*
X166111525Y-142496876D01*
X166110135Y-142495671D01*
X166102452Y-142494000D01*
X165053225Y-142494000D01*
X165039694Y-142497973D01*
X165038257Y-142507966D01*
X147431430Y-142507966D01*
X147440125Y-142502057D01*
X147440128Y-142502055D01*
X147443584Y-142499706D01*
X147667248Y-142299726D01*
X147715555Y-142243365D01*
X147859779Y-142075097D01*
X147859782Y-142075093D01*
X147862499Y-142071923D01*
X147864773Y-142068421D01*
X147864777Y-142068416D01*
X147925973Y-141974183D01*
X165034389Y-141974183D01*
X165035912Y-141982607D01*
X165048292Y-141986000D01*
X166097885Y-141986000D01*
X166113124Y-141981525D01*
X166114329Y-141980135D01*
X166116000Y-141972452D01*
X166116000Y-139972115D01*
X166111525Y-139956876D01*
X166110135Y-139955671D01*
X166102452Y-139954000D01*
X165053225Y-139954000D01*
X165039694Y-139957973D01*
X165038257Y-139967966D01*
X165068565Y-140102446D01*
X165071645Y-140112275D01*
X165151770Y-140309603D01*
X165156413Y-140318794D01*
X165267694Y-140500388D01*
X165273777Y-140508699D01*
X165413213Y-140669667D01*
X165420580Y-140676883D01*
X165584434Y-140812916D01*
X165592881Y-140818831D01*
X165662479Y-140859501D01*
X165711203Y-140911140D01*
X165724274Y-140980923D01*
X165697543Y-141046694D01*
X165657087Y-141080053D01*
X165648462Y-141084542D01*
X165639738Y-141090036D01*
X165469433Y-141217905D01*
X165461726Y-141224748D01*
X165314590Y-141378717D01*
X165308104Y-141386727D01*
X165188098Y-141562649D01*
X165183000Y-141571623D01*
X165093338Y-141764783D01*
X165089775Y-141774470D01*
X165034389Y-141974183D01*
X147925973Y-141974183D01*
X148023628Y-141823807D01*
X148023631Y-141823802D01*
X148025907Y-141820297D01*
X148154600Y-141549270D01*
X148158379Y-141537502D01*
X148245038Y-141267591D01*
X148245038Y-141267590D01*
X148246318Y-141263604D01*
X148275376Y-141102104D01*
X148298709Y-140972425D01*
X148298710Y-140972420D01*
X148299448Y-140968316D01*
X148299739Y-140961921D01*
X148312870Y-140672766D01*
X148312870Y-140672760D01*
X148313059Y-140668596D01*
X148299070Y-140508699D01*
X148287273Y-140373870D01*
X148286909Y-140369708D01*
X148284597Y-140359362D01*
X148222372Y-140080984D01*
X148222371Y-140080981D01*
X148221460Y-140076905D01*
X148117860Y-139795329D01*
X148115916Y-139791641D01*
X148115912Y-139791633D01*
X147979884Y-139533633D01*
X147979883Y-139533632D01*
X147977931Y-139529929D01*
X147909888Y-139434183D01*
X165034389Y-139434183D01*
X165035912Y-139442607D01*
X165048292Y-139446000D01*
X166097885Y-139446000D01*
X166113124Y-139441525D01*
X166114329Y-139440135D01*
X166116000Y-139432452D01*
X166116000Y-137432115D01*
X166111525Y-137416876D01*
X166110135Y-137415671D01*
X166102452Y-137414000D01*
X165053225Y-137414000D01*
X165039694Y-137417973D01*
X165038257Y-137427966D01*
X165068565Y-137562446D01*
X165071645Y-137572275D01*
X165151770Y-137769603D01*
X165156413Y-137778794D01*
X165267694Y-137960388D01*
X165273777Y-137968699D01*
X165413213Y-138129667D01*
X165420580Y-138136883D01*
X165584434Y-138272916D01*
X165592881Y-138278831D01*
X165662479Y-138319501D01*
X165711203Y-138371140D01*
X165724274Y-138440923D01*
X165697543Y-138506694D01*
X165657087Y-138540053D01*
X165648462Y-138544542D01*
X165639738Y-138550036D01*
X165469433Y-138677905D01*
X165461726Y-138684748D01*
X165314590Y-138838717D01*
X165308104Y-138846727D01*
X165188098Y-139022649D01*
X165183000Y-139031623D01*
X165093338Y-139224783D01*
X165089775Y-139234470D01*
X165034389Y-139434183D01*
X147909888Y-139434183D01*
X147804129Y-139285367D01*
X147599510Y-139065939D01*
X147367667Y-138875502D01*
X147112675Y-138717400D01*
X146839012Y-138594411D01*
X146625650Y-138530805D01*
X146555486Y-138509888D01*
X146555484Y-138509888D01*
X146551487Y-138508696D01*
X146547367Y-138508043D01*
X146547365Y-138508043D01*
X146332217Y-138473967D01*
X146255152Y-138461761D01*
X146212423Y-138459821D01*
X146162738Y-138457564D01*
X146162719Y-138457564D01*
X146161319Y-138457500D01*
X145973893Y-138457500D01*
X145750630Y-138472329D01*
X145746536Y-138473154D01*
X145746532Y-138473155D01*
X145655954Y-138491419D01*
X145456520Y-138531632D01*
X145172837Y-138629312D01*
X145169104Y-138631181D01*
X145169100Y-138631183D01*
X144908309Y-138761778D01*
X144904565Y-138763653D01*
X144854543Y-138797648D01*
X144744229Y-138872617D01*
X144656416Y-138932294D01*
X144432752Y-139132274D01*
X144430035Y-139135444D01*
X144430034Y-139135445D01*
X144304155Y-139282311D01*
X144237501Y-139360077D01*
X144235227Y-139363579D01*
X144235223Y-139363584D01*
X144124792Y-139533633D01*
X144074093Y-139611703D01*
X144072299Y-139615482D01*
X144072298Y-139615483D01*
X144030569Y-139703365D01*
X143945400Y-139882730D01*
X143944121Y-139886713D01*
X143944120Y-139886716D01*
X143854962Y-140164409D01*
X143853682Y-140168396D01*
X143852941Y-140172515D01*
X143811521Y-140402722D01*
X143800552Y-140463684D01*
X143800363Y-140467851D01*
X143800362Y-140467858D01*
X143787814Y-140744171D01*
X143786941Y-140763404D01*
X135468693Y-140763404D01*
X135499860Y-140741173D01*
X135568507Y-140672766D01*
X135581209Y-140660107D01*
X135658096Y-140583489D01*
X135788453Y-140402077D01*
X135801995Y-140374678D01*
X135885136Y-140206453D01*
X135885137Y-140206451D01*
X135887430Y-140201811D01*
X135952370Y-139988069D01*
X135981529Y-139766590D01*
X135983156Y-139700000D01*
X135964852Y-139477361D01*
X135910431Y-139260702D01*
X135821354Y-139055840D01*
X135743231Y-138935080D01*
X135702822Y-138872617D01*
X135702820Y-138872614D01*
X135700014Y-138868277D01*
X135549670Y-138703051D01*
X135545619Y-138699852D01*
X135545615Y-138699848D01*
X135378414Y-138567800D01*
X135378410Y-138567798D01*
X135374359Y-138564598D01*
X135333053Y-138541796D01*
X135283084Y-138491364D01*
X135268312Y-138421921D01*
X135293428Y-138355516D01*
X135320780Y-138328909D01*
X135364603Y-138297650D01*
X135499860Y-138201173D01*
X135658096Y-138043489D01*
X135788453Y-137862077D01*
X135801995Y-137834678D01*
X135885136Y-137666453D01*
X135885137Y-137666451D01*
X135887430Y-137661811D01*
X135952370Y-137448069D01*
X135981529Y-137226590D01*
X135983156Y-137160000D01*
X135964852Y-136937361D01*
X135954006Y-136894183D01*
X165034389Y-136894183D01*
X165035912Y-136902607D01*
X165048292Y-136906000D01*
X166097885Y-136906000D01*
X166113124Y-136901525D01*
X166114329Y-136900135D01*
X166116000Y-136892452D01*
X166116000Y-134892115D01*
X166111525Y-134876876D01*
X166110135Y-134875671D01*
X166102452Y-134874000D01*
X165053225Y-134874000D01*
X165039694Y-134877973D01*
X165038257Y-134887966D01*
X165068565Y-135022446D01*
X165071645Y-135032275D01*
X165151770Y-135229603D01*
X165156413Y-135238794D01*
X165267694Y-135420388D01*
X165273777Y-135428699D01*
X165413213Y-135589667D01*
X165420580Y-135596883D01*
X165584434Y-135732916D01*
X165592881Y-135738831D01*
X165662479Y-135779501D01*
X165711203Y-135831140D01*
X165724274Y-135900923D01*
X165697543Y-135966694D01*
X165657087Y-136000053D01*
X165648462Y-136004542D01*
X165639738Y-136010036D01*
X165469433Y-136137905D01*
X165461726Y-136144748D01*
X165314590Y-136298717D01*
X165308104Y-136306727D01*
X165188098Y-136482649D01*
X165183000Y-136491623D01*
X165093338Y-136684783D01*
X165089775Y-136694470D01*
X165034389Y-136894183D01*
X135954006Y-136894183D01*
X135910431Y-136720702D01*
X135821354Y-136515840D01*
X135700014Y-136328277D01*
X135549670Y-136163051D01*
X135545619Y-136159852D01*
X135545615Y-136159848D01*
X135378414Y-136027800D01*
X135378410Y-136027798D01*
X135374359Y-136024598D01*
X135333053Y-136001796D01*
X135283084Y-135951364D01*
X135268312Y-135881921D01*
X135293428Y-135815516D01*
X135320780Y-135788909D01*
X135364603Y-135757650D01*
X135499860Y-135661173D01*
X135658096Y-135503489D01*
X135788453Y-135322077D01*
X135801995Y-135294678D01*
X135885136Y-135126453D01*
X135885137Y-135126451D01*
X135887430Y-135121811D01*
X135952370Y-134908069D01*
X135981529Y-134686590D01*
X135983156Y-134620000D01*
X135964852Y-134397361D01*
X135954006Y-134354183D01*
X165034389Y-134354183D01*
X165035912Y-134362607D01*
X165048292Y-134366000D01*
X166097885Y-134366000D01*
X166113124Y-134361525D01*
X166114329Y-134360135D01*
X166116000Y-134352452D01*
X166116000Y-132352115D01*
X166111525Y-132336876D01*
X166110135Y-132335671D01*
X166102452Y-132334000D01*
X165053225Y-132334000D01*
X165039694Y-132337973D01*
X165038257Y-132347966D01*
X165068565Y-132482446D01*
X165071645Y-132492275D01*
X165151770Y-132689603D01*
X165156413Y-132698794D01*
X165267694Y-132880388D01*
X165273777Y-132888699D01*
X165413213Y-133049667D01*
X165420580Y-133056883D01*
X165584434Y-133192916D01*
X165592881Y-133198831D01*
X165662479Y-133239501D01*
X165711203Y-133291140D01*
X165724274Y-133360923D01*
X165697543Y-133426694D01*
X165657087Y-133460053D01*
X165648462Y-133464542D01*
X165639738Y-133470036D01*
X165469433Y-133597905D01*
X165461726Y-133604748D01*
X165314590Y-133758717D01*
X165308104Y-133766727D01*
X165188098Y-133942649D01*
X165183000Y-133951623D01*
X165093338Y-134144783D01*
X165089775Y-134154470D01*
X165034389Y-134354183D01*
X135954006Y-134354183D01*
X135910431Y-134180702D01*
X135821354Y-133975840D01*
X135700014Y-133788277D01*
X135549670Y-133623051D01*
X135545619Y-133619852D01*
X135545615Y-133619848D01*
X135378414Y-133487800D01*
X135378410Y-133487798D01*
X135374359Y-133484598D01*
X135333053Y-133461796D01*
X135283084Y-133411364D01*
X135268312Y-133341921D01*
X135293428Y-133275516D01*
X135320780Y-133248909D01*
X135364603Y-133217650D01*
X135499860Y-133121173D01*
X135658096Y-132963489D01*
X135788453Y-132782077D01*
X135801995Y-132754678D01*
X135885136Y-132586453D01*
X135885137Y-132586451D01*
X135887430Y-132581811D01*
X135952370Y-132368069D01*
X135981529Y-132146590D01*
X135983156Y-132080000D01*
X135964852Y-131857361D01*
X135954006Y-131814183D01*
X165034389Y-131814183D01*
X165035912Y-131822607D01*
X165048292Y-131826000D01*
X166097885Y-131826000D01*
X166113124Y-131821525D01*
X166114329Y-131820135D01*
X166116000Y-131812452D01*
X166116000Y-129812115D01*
X166111525Y-129796876D01*
X166110135Y-129795671D01*
X166102452Y-129794000D01*
X165053225Y-129794000D01*
X165039694Y-129797973D01*
X165038257Y-129807966D01*
X165068565Y-129942446D01*
X165071645Y-129952275D01*
X165151770Y-130149603D01*
X165156413Y-130158794D01*
X165267694Y-130340388D01*
X165273777Y-130348699D01*
X165413213Y-130509667D01*
X165420580Y-130516883D01*
X165584434Y-130652916D01*
X165592881Y-130658831D01*
X165662479Y-130699501D01*
X165711203Y-130751140D01*
X165724274Y-130820923D01*
X165697543Y-130886694D01*
X165657087Y-130920053D01*
X165648462Y-130924542D01*
X165639738Y-130930036D01*
X165469433Y-131057905D01*
X165461726Y-131064748D01*
X165314590Y-131218717D01*
X165308104Y-131226727D01*
X165188098Y-131402649D01*
X165183000Y-131411623D01*
X165093338Y-131604783D01*
X165089775Y-131614470D01*
X165034389Y-131814183D01*
X135954006Y-131814183D01*
X135910431Y-131640702D01*
X135821354Y-131435840D01*
X135700014Y-131248277D01*
X135549670Y-131083051D01*
X135545619Y-131079852D01*
X135545615Y-131079848D01*
X135378414Y-130947800D01*
X135378410Y-130947798D01*
X135374359Y-130944598D01*
X135333053Y-130921796D01*
X135283084Y-130871364D01*
X135268312Y-130801921D01*
X135293428Y-130735516D01*
X135320780Y-130708909D01*
X135364603Y-130677650D01*
X135499860Y-130581173D01*
X135658096Y-130423489D01*
X135788453Y-130242077D01*
X135801995Y-130214678D01*
X135885136Y-130046453D01*
X135885137Y-130046451D01*
X135887430Y-130041811D01*
X135952370Y-129828069D01*
X135981529Y-129606590D01*
X135983156Y-129540000D01*
X135964852Y-129317361D01*
X135954006Y-129274183D01*
X165034389Y-129274183D01*
X165035912Y-129282607D01*
X165048292Y-129286000D01*
X166097885Y-129286000D01*
X166113124Y-129281525D01*
X166114329Y-129280135D01*
X166116000Y-129272452D01*
X166116000Y-127272115D01*
X166111525Y-127256876D01*
X166110135Y-127255671D01*
X166102452Y-127254000D01*
X165053225Y-127254000D01*
X165039694Y-127257973D01*
X165038257Y-127267966D01*
X165068565Y-127402446D01*
X165071645Y-127412275D01*
X165151770Y-127609603D01*
X165156413Y-127618794D01*
X165267694Y-127800388D01*
X165273777Y-127808699D01*
X165413213Y-127969667D01*
X165420580Y-127976883D01*
X165584434Y-128112916D01*
X165592881Y-128118831D01*
X165662479Y-128159501D01*
X165711203Y-128211140D01*
X165724274Y-128280923D01*
X165697543Y-128346694D01*
X165657087Y-128380053D01*
X165648462Y-128384542D01*
X165639738Y-128390036D01*
X165469433Y-128517905D01*
X165461726Y-128524748D01*
X165314590Y-128678717D01*
X165308104Y-128686727D01*
X165188098Y-128862649D01*
X165183000Y-128871623D01*
X165093338Y-129064783D01*
X165089775Y-129074470D01*
X165034389Y-129274183D01*
X135954006Y-129274183D01*
X135910431Y-129100702D01*
X135821354Y-128895840D01*
X135700014Y-128708277D01*
X135549670Y-128543051D01*
X135545619Y-128539852D01*
X135545615Y-128539848D01*
X135378414Y-128407800D01*
X135378410Y-128407798D01*
X135374359Y-128404598D01*
X135333053Y-128381796D01*
X135283084Y-128331364D01*
X135268312Y-128261921D01*
X135293428Y-128195516D01*
X135320780Y-128168909D01*
X135364603Y-128137650D01*
X135499860Y-128041173D01*
X135658096Y-127883489D01*
X135788453Y-127702077D01*
X135801995Y-127674678D01*
X135885136Y-127506453D01*
X135885137Y-127506451D01*
X135887430Y-127501811D01*
X135952370Y-127288069D01*
X135981529Y-127066590D01*
X135983156Y-127000000D01*
X135964852Y-126777361D01*
X135954006Y-126734183D01*
X165034389Y-126734183D01*
X165035912Y-126742607D01*
X165048292Y-126746000D01*
X166097885Y-126746000D01*
X166113124Y-126741525D01*
X166114329Y-126740135D01*
X166116000Y-126732452D01*
X166116000Y-124732115D01*
X166111525Y-124716876D01*
X166110135Y-124715671D01*
X166102452Y-124714000D01*
X165053225Y-124714000D01*
X165039694Y-124717973D01*
X165038257Y-124727966D01*
X165068565Y-124862446D01*
X165071645Y-124872275D01*
X165151770Y-125069603D01*
X165156413Y-125078794D01*
X165267694Y-125260388D01*
X165273777Y-125268699D01*
X165413213Y-125429667D01*
X165420580Y-125436883D01*
X165584434Y-125572916D01*
X165592881Y-125578831D01*
X165662479Y-125619501D01*
X165711203Y-125671140D01*
X165724274Y-125740923D01*
X165697543Y-125806694D01*
X165657087Y-125840053D01*
X165648462Y-125844542D01*
X165639738Y-125850036D01*
X165469433Y-125977905D01*
X165461726Y-125984748D01*
X165314590Y-126138717D01*
X165308104Y-126146727D01*
X165188098Y-126322649D01*
X165183000Y-126331623D01*
X165093338Y-126524783D01*
X165089775Y-126534470D01*
X165034389Y-126734183D01*
X135954006Y-126734183D01*
X135910431Y-126560702D01*
X135821354Y-126355840D01*
X135700014Y-126168277D01*
X135549670Y-126003051D01*
X135545619Y-125999852D01*
X135545615Y-125999848D01*
X135378414Y-125867800D01*
X135378410Y-125867798D01*
X135374359Y-125864598D01*
X135333053Y-125841796D01*
X135283084Y-125791364D01*
X135268312Y-125721921D01*
X135293428Y-125655516D01*
X135320780Y-125628909D01*
X135364603Y-125597650D01*
X135499860Y-125501173D01*
X135658096Y-125343489D01*
X135788453Y-125162077D01*
X135801995Y-125134678D01*
X135885136Y-124966453D01*
X135885137Y-124966451D01*
X135887430Y-124961811D01*
X135952370Y-124748069D01*
X135981529Y-124526590D01*
X135983156Y-124460000D01*
X135964852Y-124237361D01*
X135954006Y-124194183D01*
X165034389Y-124194183D01*
X165035912Y-124202607D01*
X165048292Y-124206000D01*
X166097885Y-124206000D01*
X166113124Y-124201525D01*
X166114329Y-124200135D01*
X166116000Y-124192452D01*
X166116000Y-122192115D01*
X166111525Y-122176876D01*
X166110135Y-122175671D01*
X166102452Y-122174000D01*
X165053225Y-122174000D01*
X165039694Y-122177973D01*
X165038257Y-122187966D01*
X165068565Y-122322446D01*
X165071645Y-122332275D01*
X165151770Y-122529603D01*
X165156413Y-122538794D01*
X165267694Y-122720388D01*
X165273777Y-122728699D01*
X165413213Y-122889667D01*
X165420580Y-122896883D01*
X165584434Y-123032916D01*
X165592881Y-123038831D01*
X165662479Y-123079501D01*
X165711203Y-123131140D01*
X165724274Y-123200923D01*
X165697543Y-123266694D01*
X165657087Y-123300053D01*
X165648462Y-123304542D01*
X165639738Y-123310036D01*
X165469433Y-123437905D01*
X165461726Y-123444748D01*
X165314590Y-123598717D01*
X165308104Y-123606727D01*
X165188098Y-123782649D01*
X165183000Y-123791623D01*
X165093338Y-123984783D01*
X165089775Y-123994470D01*
X165034389Y-124194183D01*
X135954006Y-124194183D01*
X135910431Y-124020702D01*
X135821354Y-123815840D01*
X135700014Y-123628277D01*
X135549670Y-123463051D01*
X135545619Y-123459852D01*
X135545615Y-123459848D01*
X135378414Y-123327800D01*
X135378410Y-123327798D01*
X135374359Y-123324598D01*
X135333053Y-123301796D01*
X135283084Y-123251364D01*
X135268312Y-123181921D01*
X135293428Y-123115516D01*
X135320780Y-123088909D01*
X135364603Y-123057650D01*
X135499860Y-122961173D01*
X135548720Y-122912484D01*
X135616901Y-122844540D01*
X135658096Y-122803489D01*
X135675297Y-122779552D01*
X135785435Y-122626277D01*
X135788453Y-122622077D01*
X135801995Y-122594678D01*
X135885136Y-122426453D01*
X135885137Y-122426451D01*
X135887430Y-122421811D01*
X135952370Y-122208069D01*
X135981529Y-121986590D01*
X135983156Y-121920000D01*
X135964852Y-121697361D01*
X135927369Y-121548134D01*
X149771500Y-121548134D01*
X149778255Y-121610316D01*
X149829385Y-121746705D01*
X149916739Y-121863261D01*
X150033295Y-121950615D01*
X150169684Y-122001745D01*
X150231866Y-122008500D01*
X151540406Y-122008500D01*
X151608527Y-122028502D01*
X151629501Y-122045405D01*
X152251353Y-122667257D01*
X152258897Y-122675547D01*
X152263010Y-122682028D01*
X152268787Y-122687453D01*
X152312677Y-122728668D01*
X152315519Y-122731423D01*
X152335240Y-122751144D01*
X152338435Y-122753622D01*
X152347457Y-122761328D01*
X152379689Y-122791596D01*
X152386638Y-122795416D01*
X152397442Y-122801356D01*
X152413966Y-122812209D01*
X152429969Y-122824623D01*
X152470553Y-122842186D01*
X152481183Y-122847393D01*
X152519950Y-122868705D01*
X152527627Y-122870676D01*
X152527632Y-122870678D01*
X152539568Y-122873742D01*
X152558276Y-122880147D01*
X152576865Y-122888191D01*
X152584693Y-122889431D01*
X152584700Y-122889433D01*
X152620534Y-122895109D01*
X152632154Y-122897515D01*
X152663969Y-122905683D01*
X152674980Y-122908510D01*
X152695234Y-122908510D01*
X152714944Y-122910061D01*
X152734953Y-122913230D01*
X152742845Y-122912484D01*
X152761590Y-122910712D01*
X152778972Y-122909069D01*
X152790829Y-122908510D01*
X156978318Y-122908510D01*
X156989501Y-122909037D01*
X156996994Y-122910712D01*
X157004920Y-122910463D01*
X157004921Y-122910463D01*
X157065071Y-122908572D01*
X157069030Y-122908510D01*
X157096941Y-122908510D01*
X157100876Y-122908013D01*
X157100941Y-122908005D01*
X157112778Y-122907072D01*
X157145036Y-122906058D01*
X157149055Y-122905932D01*
X157156974Y-122905683D01*
X157176428Y-122900031D01*
X157195785Y-122896023D01*
X157208015Y-122894478D01*
X157208016Y-122894478D01*
X157215882Y-122893484D01*
X157223253Y-122890565D01*
X157223255Y-122890565D01*
X157256997Y-122877206D01*
X157268227Y-122873361D01*
X157303068Y-122863239D01*
X157303069Y-122863239D01*
X157310678Y-122861028D01*
X157317497Y-122856995D01*
X157317502Y-122856993D01*
X157328113Y-122850717D01*
X157345861Y-122842022D01*
X157364702Y-122834562D01*
X157385072Y-122819763D01*
X157400472Y-122808574D01*
X157410392Y-122802058D01*
X157441620Y-122783590D01*
X157441623Y-122783588D01*
X157448447Y-122779552D01*
X157462768Y-122765231D01*
X157477802Y-122752390D01*
X157479517Y-122751144D01*
X157494192Y-122740482D01*
X157522383Y-122706405D01*
X157530373Y-122697626D01*
X159002594Y-121225406D01*
X159064906Y-121191380D01*
X159091689Y-121188501D01*
X165014900Y-121188501D01*
X165083021Y-121208503D01*
X165129514Y-121262159D01*
X165139618Y-121332433D01*
X165129188Y-121367551D01*
X165093338Y-121444783D01*
X165089775Y-121454470D01*
X165034389Y-121654183D01*
X165035912Y-121662607D01*
X165048292Y-121666000D01*
X166097885Y-121666000D01*
X166113124Y-121661525D01*
X166114329Y-121660135D01*
X166116000Y-121652452D01*
X166116000Y-121314501D01*
X166136002Y-121246380D01*
X166189658Y-121199887D01*
X166242000Y-121188501D01*
X166498000Y-121188501D01*
X166566121Y-121208503D01*
X166612614Y-121262159D01*
X166624000Y-121314501D01*
X166624000Y-143558517D01*
X166628064Y-143572359D01*
X166641478Y-143574393D01*
X166648184Y-143573534D01*
X166658262Y-143571392D01*
X166862255Y-143510191D01*
X166871842Y-143506433D01*
X167063095Y-143412739D01*
X167071945Y-143407464D01*
X167245328Y-143283792D01*
X167253200Y-143277139D01*
X167404052Y-143126812D01*
X167410730Y-143118965D01*
X167538022Y-142941819D01*
X167539279Y-142942722D01*
X167586373Y-142899362D01*
X167656311Y-142887145D01*
X167721751Y-142914678D01*
X167749579Y-142946511D01*
X167757813Y-142959948D01*
X167809987Y-143045088D01*
X167956250Y-143213938D01*
X168128126Y-143356632D01*
X168321000Y-143469338D01*
X168529692Y-143549030D01*
X168534760Y-143550061D01*
X168534763Y-143550062D01*
X168629862Y-143569410D01*
X168748597Y-143593567D01*
X168753772Y-143593757D01*
X168753774Y-143593757D01*
X168966673Y-143601564D01*
X168966677Y-143601564D01*
X168971837Y-143601753D01*
X168976957Y-143601097D01*
X168976959Y-143601097D01*
X169188288Y-143574025D01*
X169188289Y-143574025D01*
X169193416Y-143573368D01*
X169198366Y-143571883D01*
X169402429Y-143510661D01*
X169402434Y-143510659D01*
X169407384Y-143509174D01*
X169607994Y-143410896D01*
X169789860Y-143281173D01*
X169948096Y-143123489D01*
X170078453Y-142942077D01*
X170087409Y-142923957D01*
X170175136Y-142746453D01*
X170175137Y-142746451D01*
X170177430Y-142741811D01*
X170233733Y-142556498D01*
X170240865Y-142533023D01*
X170240865Y-142533021D01*
X170242370Y-142528069D01*
X170245017Y-142507966D01*
X180278257Y-142507966D01*
X180308565Y-142642446D01*
X180311645Y-142652275D01*
X180391770Y-142849603D01*
X180396413Y-142858794D01*
X180507694Y-143040388D01*
X180513777Y-143048699D01*
X180653213Y-143209667D01*
X180660580Y-143216883D01*
X180824434Y-143352916D01*
X180832881Y-143358831D01*
X181016756Y-143466279D01*
X181026042Y-143470729D01*
X181225001Y-143546703D01*
X181234899Y-143549579D01*
X181338250Y-143570606D01*
X181352299Y-143569410D01*
X181356000Y-143559065D01*
X181356000Y-142512115D01*
X181351525Y-142496876D01*
X181350135Y-142495671D01*
X181342452Y-142494000D01*
X180293225Y-142494000D01*
X180279694Y-142497973D01*
X180278257Y-142507966D01*
X170245017Y-142507966D01*
X170271529Y-142306590D01*
X170273156Y-142240000D01*
X170254852Y-142017361D01*
X170244006Y-141974183D01*
X180274389Y-141974183D01*
X180275912Y-141982607D01*
X180288292Y-141986000D01*
X181337885Y-141986000D01*
X181353124Y-141981525D01*
X181354329Y-141980135D01*
X181356000Y-141972452D01*
X181356000Y-139972115D01*
X181351525Y-139956876D01*
X181350135Y-139955671D01*
X181342452Y-139954000D01*
X180293225Y-139954000D01*
X180279694Y-139957973D01*
X180278257Y-139967966D01*
X180308565Y-140102446D01*
X180311645Y-140112275D01*
X180391770Y-140309603D01*
X180396413Y-140318794D01*
X180507694Y-140500388D01*
X180513777Y-140508699D01*
X180653213Y-140669667D01*
X180660580Y-140676883D01*
X180824434Y-140812916D01*
X180832881Y-140818831D01*
X180902479Y-140859501D01*
X180951203Y-140911140D01*
X180964274Y-140980923D01*
X180937543Y-141046694D01*
X180897087Y-141080053D01*
X180888462Y-141084542D01*
X180879738Y-141090036D01*
X180709433Y-141217905D01*
X180701726Y-141224748D01*
X180554590Y-141378717D01*
X180548104Y-141386727D01*
X180428098Y-141562649D01*
X180423000Y-141571623D01*
X180333338Y-141764783D01*
X180329775Y-141774470D01*
X180274389Y-141974183D01*
X170244006Y-141974183D01*
X170200431Y-141800702D01*
X170111354Y-141595840D01*
X169990014Y-141408277D01*
X169839670Y-141243051D01*
X169835619Y-141239852D01*
X169835615Y-141239848D01*
X169668414Y-141107800D01*
X169668410Y-141107798D01*
X169664359Y-141104598D01*
X169623053Y-141081796D01*
X169573084Y-141031364D01*
X169558312Y-140961921D01*
X169583428Y-140895516D01*
X169610780Y-140868909D01*
X169654603Y-140837650D01*
X169789860Y-140741173D01*
X169858507Y-140672766D01*
X169871209Y-140660107D01*
X169948096Y-140583489D01*
X170078453Y-140402077D01*
X170091995Y-140374678D01*
X170175136Y-140206453D01*
X170175137Y-140206451D01*
X170177430Y-140201811D01*
X170242370Y-139988069D01*
X170271529Y-139766590D01*
X170273156Y-139700000D01*
X170254852Y-139477361D01*
X170244006Y-139434183D01*
X180274389Y-139434183D01*
X180275912Y-139442607D01*
X180288292Y-139446000D01*
X181337885Y-139446000D01*
X181353124Y-139441525D01*
X181354329Y-139440135D01*
X181356000Y-139432452D01*
X181356000Y-137432115D01*
X181351525Y-137416876D01*
X181350135Y-137415671D01*
X181342452Y-137414000D01*
X180293225Y-137414000D01*
X180279694Y-137417973D01*
X180278257Y-137427966D01*
X180308565Y-137562446D01*
X180311645Y-137572275D01*
X180391770Y-137769603D01*
X180396413Y-137778794D01*
X180507694Y-137960388D01*
X180513777Y-137968699D01*
X180653213Y-138129667D01*
X180660580Y-138136883D01*
X180824434Y-138272916D01*
X180832881Y-138278831D01*
X180902479Y-138319501D01*
X180951203Y-138371140D01*
X180964274Y-138440923D01*
X180937543Y-138506694D01*
X180897087Y-138540053D01*
X180888462Y-138544542D01*
X180879738Y-138550036D01*
X180709433Y-138677905D01*
X180701726Y-138684748D01*
X180554590Y-138838717D01*
X180548104Y-138846727D01*
X180428098Y-139022649D01*
X180423000Y-139031623D01*
X180333338Y-139224783D01*
X180329775Y-139234470D01*
X180274389Y-139434183D01*
X170244006Y-139434183D01*
X170200431Y-139260702D01*
X170111354Y-139055840D01*
X170033231Y-138935080D01*
X169992822Y-138872617D01*
X169992820Y-138872614D01*
X169990014Y-138868277D01*
X169839670Y-138703051D01*
X169835619Y-138699852D01*
X169835615Y-138699848D01*
X169668414Y-138567800D01*
X169668410Y-138567798D01*
X169664359Y-138564598D01*
X169623053Y-138541796D01*
X169573084Y-138491364D01*
X169558312Y-138421921D01*
X169583428Y-138355516D01*
X169610780Y-138328909D01*
X169654603Y-138297650D01*
X169789860Y-138201173D01*
X169948096Y-138043489D01*
X170078453Y-137862077D01*
X170091995Y-137834678D01*
X170175136Y-137666453D01*
X170175137Y-137666451D01*
X170177430Y-137661811D01*
X170242370Y-137448069D01*
X170271529Y-137226590D01*
X170273156Y-137160000D01*
X170254852Y-136937361D01*
X170244006Y-136894183D01*
X180274389Y-136894183D01*
X180275912Y-136902607D01*
X180288292Y-136906000D01*
X181337885Y-136906000D01*
X181353124Y-136901525D01*
X181354329Y-136900135D01*
X181356000Y-136892452D01*
X181356000Y-134892115D01*
X181351525Y-134876876D01*
X181350135Y-134875671D01*
X181342452Y-134874000D01*
X180293225Y-134874000D01*
X180279694Y-134877973D01*
X180278257Y-134887966D01*
X180308565Y-135022446D01*
X180311645Y-135032275D01*
X180391770Y-135229603D01*
X180396413Y-135238794D01*
X180507694Y-135420388D01*
X180513777Y-135428699D01*
X180653213Y-135589667D01*
X180660580Y-135596883D01*
X180824434Y-135732916D01*
X180832881Y-135738831D01*
X180902479Y-135779501D01*
X180951203Y-135831140D01*
X180964274Y-135900923D01*
X180937543Y-135966694D01*
X180897087Y-136000053D01*
X180888462Y-136004542D01*
X180879738Y-136010036D01*
X180709433Y-136137905D01*
X180701726Y-136144748D01*
X180554590Y-136298717D01*
X180548104Y-136306727D01*
X180428098Y-136482649D01*
X180423000Y-136491623D01*
X180333338Y-136684783D01*
X180329775Y-136694470D01*
X180274389Y-136894183D01*
X170244006Y-136894183D01*
X170200431Y-136720702D01*
X170111354Y-136515840D01*
X169990014Y-136328277D01*
X169839670Y-136163051D01*
X169835619Y-136159852D01*
X169835615Y-136159848D01*
X169668414Y-136027800D01*
X169668410Y-136027798D01*
X169664359Y-136024598D01*
X169623053Y-136001796D01*
X169573084Y-135951364D01*
X169558312Y-135881921D01*
X169583428Y-135815516D01*
X169610780Y-135788909D01*
X169654603Y-135757650D01*
X169789860Y-135661173D01*
X169948096Y-135503489D01*
X170078453Y-135322077D01*
X170091995Y-135294678D01*
X170175136Y-135126453D01*
X170175137Y-135126451D01*
X170177430Y-135121811D01*
X170242370Y-134908069D01*
X170271529Y-134686590D01*
X170273156Y-134620000D01*
X170254852Y-134397361D01*
X170244006Y-134354183D01*
X180274389Y-134354183D01*
X180275912Y-134362607D01*
X180288292Y-134366000D01*
X181337885Y-134366000D01*
X181353124Y-134361525D01*
X181354329Y-134360135D01*
X181356000Y-134352452D01*
X181356000Y-132352115D01*
X181351525Y-132336876D01*
X181350135Y-132335671D01*
X181342452Y-132334000D01*
X180293225Y-132334000D01*
X180279694Y-132337973D01*
X180278257Y-132347966D01*
X180308565Y-132482446D01*
X180311645Y-132492275D01*
X180391770Y-132689603D01*
X180396413Y-132698794D01*
X180507694Y-132880388D01*
X180513777Y-132888699D01*
X180653213Y-133049667D01*
X180660580Y-133056883D01*
X180824434Y-133192916D01*
X180832881Y-133198831D01*
X180902479Y-133239501D01*
X180951203Y-133291140D01*
X180964274Y-133360923D01*
X180937543Y-133426694D01*
X180897087Y-133460053D01*
X180888462Y-133464542D01*
X180879738Y-133470036D01*
X180709433Y-133597905D01*
X180701726Y-133604748D01*
X180554590Y-133758717D01*
X180548104Y-133766727D01*
X180428098Y-133942649D01*
X180423000Y-133951623D01*
X180333338Y-134144783D01*
X180329775Y-134154470D01*
X180274389Y-134354183D01*
X170244006Y-134354183D01*
X170200431Y-134180702D01*
X170111354Y-133975840D01*
X169990014Y-133788277D01*
X169839670Y-133623051D01*
X169835619Y-133619852D01*
X169835615Y-133619848D01*
X169668414Y-133487800D01*
X169668410Y-133487798D01*
X169664359Y-133484598D01*
X169623053Y-133461796D01*
X169573084Y-133411364D01*
X169558312Y-133341921D01*
X169583428Y-133275516D01*
X169610780Y-133248909D01*
X169654603Y-133217650D01*
X169789860Y-133121173D01*
X169948096Y-132963489D01*
X170078453Y-132782077D01*
X170091995Y-132754678D01*
X170175136Y-132586453D01*
X170175137Y-132586451D01*
X170177430Y-132581811D01*
X170242370Y-132368069D01*
X170271529Y-132146590D01*
X170273156Y-132080000D01*
X170254852Y-131857361D01*
X170244006Y-131814183D01*
X180274389Y-131814183D01*
X180275912Y-131822607D01*
X180288292Y-131826000D01*
X181337885Y-131826000D01*
X181353124Y-131821525D01*
X181354329Y-131820135D01*
X181356000Y-131812452D01*
X181356000Y-129812115D01*
X181351525Y-129796876D01*
X181350135Y-129795671D01*
X181342452Y-129794000D01*
X180293225Y-129794000D01*
X180279694Y-129797973D01*
X180278257Y-129807966D01*
X180308565Y-129942446D01*
X180311645Y-129952275D01*
X180391770Y-130149603D01*
X180396413Y-130158794D01*
X180507694Y-130340388D01*
X180513777Y-130348699D01*
X180653213Y-130509667D01*
X180660580Y-130516883D01*
X180824434Y-130652916D01*
X180832881Y-130658831D01*
X180902479Y-130699501D01*
X180951203Y-130751140D01*
X180964274Y-130820923D01*
X180937543Y-130886694D01*
X180897087Y-130920053D01*
X180888462Y-130924542D01*
X180879738Y-130930036D01*
X180709433Y-131057905D01*
X180701726Y-131064748D01*
X180554590Y-131218717D01*
X180548104Y-131226727D01*
X180428098Y-131402649D01*
X180423000Y-131411623D01*
X180333338Y-131604783D01*
X180329775Y-131614470D01*
X180274389Y-131814183D01*
X170244006Y-131814183D01*
X170200431Y-131640702D01*
X170111354Y-131435840D01*
X169990014Y-131248277D01*
X169839670Y-131083051D01*
X169835619Y-131079852D01*
X169835615Y-131079848D01*
X169668414Y-130947800D01*
X169668410Y-130947798D01*
X169664359Y-130944598D01*
X169623053Y-130921796D01*
X169573084Y-130871364D01*
X169558312Y-130801921D01*
X169583428Y-130735516D01*
X169610780Y-130708909D01*
X169654603Y-130677650D01*
X169789860Y-130581173D01*
X169948096Y-130423489D01*
X170078453Y-130242077D01*
X170091995Y-130214678D01*
X170175136Y-130046453D01*
X170175137Y-130046451D01*
X170177430Y-130041811D01*
X170242370Y-129828069D01*
X170271529Y-129606590D01*
X170273156Y-129540000D01*
X170254852Y-129317361D01*
X170244006Y-129274183D01*
X180274389Y-129274183D01*
X180275912Y-129282607D01*
X180288292Y-129286000D01*
X181337885Y-129286000D01*
X181353124Y-129281525D01*
X181354329Y-129280135D01*
X181356000Y-129272452D01*
X181356000Y-127272115D01*
X181351525Y-127256876D01*
X181350135Y-127255671D01*
X181342452Y-127254000D01*
X180293225Y-127254000D01*
X180279694Y-127257973D01*
X180278257Y-127267966D01*
X180308565Y-127402446D01*
X180311645Y-127412275D01*
X180391770Y-127609603D01*
X180396413Y-127618794D01*
X180507694Y-127800388D01*
X180513777Y-127808699D01*
X180653213Y-127969667D01*
X180660580Y-127976883D01*
X180824434Y-128112916D01*
X180832881Y-128118831D01*
X180902479Y-128159501D01*
X180951203Y-128211140D01*
X180964274Y-128280923D01*
X180937543Y-128346694D01*
X180897087Y-128380053D01*
X180888462Y-128384542D01*
X180879738Y-128390036D01*
X180709433Y-128517905D01*
X180701726Y-128524748D01*
X180554590Y-128678717D01*
X180548104Y-128686727D01*
X180428098Y-128862649D01*
X180423000Y-128871623D01*
X180333338Y-129064783D01*
X180329775Y-129074470D01*
X180274389Y-129274183D01*
X170244006Y-129274183D01*
X170200431Y-129100702D01*
X170111354Y-128895840D01*
X169990014Y-128708277D01*
X169839670Y-128543051D01*
X169835619Y-128539852D01*
X169835615Y-128539848D01*
X169668414Y-128407800D01*
X169668410Y-128407798D01*
X169664359Y-128404598D01*
X169623053Y-128381796D01*
X169573084Y-128331364D01*
X169558312Y-128261921D01*
X169583428Y-128195516D01*
X169610780Y-128168909D01*
X169654603Y-128137650D01*
X169789860Y-128041173D01*
X169948096Y-127883489D01*
X170078453Y-127702077D01*
X170091995Y-127674678D01*
X170175136Y-127506453D01*
X170175137Y-127506451D01*
X170177430Y-127501811D01*
X170242370Y-127288069D01*
X170271529Y-127066590D01*
X170273156Y-127000000D01*
X170254852Y-126777361D01*
X170244006Y-126734183D01*
X180274389Y-126734183D01*
X180275912Y-126742607D01*
X180288292Y-126746000D01*
X181337885Y-126746000D01*
X181353124Y-126741525D01*
X181354329Y-126740135D01*
X181356000Y-126732452D01*
X181356000Y-124732115D01*
X181351525Y-124716876D01*
X181350135Y-124715671D01*
X181342452Y-124714000D01*
X180293225Y-124714000D01*
X180279694Y-124717973D01*
X180278257Y-124727966D01*
X180308565Y-124862446D01*
X180311645Y-124872275D01*
X180391770Y-125069603D01*
X180396413Y-125078794D01*
X180507694Y-125260388D01*
X180513777Y-125268699D01*
X180653213Y-125429667D01*
X180660580Y-125436883D01*
X180824434Y-125572916D01*
X180832881Y-125578831D01*
X180902479Y-125619501D01*
X180951203Y-125671140D01*
X180964274Y-125740923D01*
X180937543Y-125806694D01*
X180897087Y-125840053D01*
X180888462Y-125844542D01*
X180879738Y-125850036D01*
X180709433Y-125977905D01*
X180701726Y-125984748D01*
X180554590Y-126138717D01*
X180548104Y-126146727D01*
X180428098Y-126322649D01*
X180423000Y-126331623D01*
X180333338Y-126524783D01*
X180329775Y-126534470D01*
X180274389Y-126734183D01*
X170244006Y-126734183D01*
X170200431Y-126560702D01*
X170111354Y-126355840D01*
X169990014Y-126168277D01*
X169839670Y-126003051D01*
X169835619Y-125999852D01*
X169835615Y-125999848D01*
X169668414Y-125867800D01*
X169668410Y-125867798D01*
X169664359Y-125864598D01*
X169623053Y-125841796D01*
X169573084Y-125791364D01*
X169558312Y-125721921D01*
X169583428Y-125655516D01*
X169610780Y-125628909D01*
X169654603Y-125597650D01*
X169789860Y-125501173D01*
X169948096Y-125343489D01*
X170078453Y-125162077D01*
X170091995Y-125134678D01*
X170175136Y-124966453D01*
X170175137Y-124966451D01*
X170177430Y-124961811D01*
X170242370Y-124748069D01*
X170271529Y-124526590D01*
X170273156Y-124460000D01*
X170254852Y-124237361D01*
X170244006Y-124194183D01*
X180274389Y-124194183D01*
X180275912Y-124202607D01*
X180288292Y-124206000D01*
X181337885Y-124206000D01*
X181353124Y-124201525D01*
X181354329Y-124200135D01*
X181356000Y-124192452D01*
X181356000Y-122192115D01*
X181351525Y-122176876D01*
X181350135Y-122175671D01*
X181342452Y-122174000D01*
X180293225Y-122174000D01*
X180279694Y-122177973D01*
X180278257Y-122187966D01*
X180308565Y-122322446D01*
X180311645Y-122332275D01*
X180391770Y-122529603D01*
X180396413Y-122538794D01*
X180507694Y-122720388D01*
X180513777Y-122728699D01*
X180653213Y-122889667D01*
X180660580Y-122896883D01*
X180824434Y-123032916D01*
X180832881Y-123038831D01*
X180902479Y-123079501D01*
X180951203Y-123131140D01*
X180964274Y-123200923D01*
X180937543Y-123266694D01*
X180897087Y-123300053D01*
X180888462Y-123304542D01*
X180879738Y-123310036D01*
X180709433Y-123437905D01*
X180701726Y-123444748D01*
X180554590Y-123598717D01*
X180548104Y-123606727D01*
X180428098Y-123782649D01*
X180423000Y-123791623D01*
X180333338Y-123984783D01*
X180329775Y-123994470D01*
X180274389Y-124194183D01*
X170244006Y-124194183D01*
X170200431Y-124020702D01*
X170111354Y-123815840D01*
X169990014Y-123628277D01*
X169839670Y-123463051D01*
X169835619Y-123459852D01*
X169835615Y-123459848D01*
X169668414Y-123327800D01*
X169668410Y-123327798D01*
X169664359Y-123324598D01*
X169623053Y-123301796D01*
X169573084Y-123251364D01*
X169558312Y-123181921D01*
X169583428Y-123115516D01*
X169610780Y-123088909D01*
X169654603Y-123057650D01*
X169789860Y-122961173D01*
X169838720Y-122912484D01*
X169906901Y-122844540D01*
X169948096Y-122803489D01*
X169965297Y-122779552D01*
X170075435Y-122626277D01*
X170078453Y-122622077D01*
X170091995Y-122594678D01*
X170175136Y-122426453D01*
X170175137Y-122426451D01*
X170177430Y-122421811D01*
X170242370Y-122208069D01*
X170271529Y-121986590D01*
X170273156Y-121920000D01*
X170254852Y-121697361D01*
X170200431Y-121480702D01*
X170111354Y-121275840D01*
X169990014Y-121088277D01*
X169989981Y-121088241D01*
X169964803Y-121023457D01*
X169978943Y-120953883D01*
X170001252Y-120923654D01*
X171842247Y-119082659D01*
X171850537Y-119075115D01*
X171857018Y-119071002D01*
X171903659Y-119021334D01*
X171906413Y-119018493D01*
X171926135Y-118998771D01*
X171928612Y-118995578D01*
X171936317Y-118986557D01*
X171966586Y-118954323D01*
X171970407Y-118947373D01*
X171976346Y-118936570D01*
X171987202Y-118920043D01*
X171994757Y-118910304D01*
X171994758Y-118910302D01*
X171999614Y-118904042D01*
X172017174Y-118863462D01*
X172022391Y-118852814D01*
X172039875Y-118821011D01*
X172039876Y-118821009D01*
X172043695Y-118814062D01*
X172048733Y-118794439D01*
X172055137Y-118775736D01*
X172060033Y-118764422D01*
X172060033Y-118764421D01*
X172063181Y-118757147D01*
X172064420Y-118749324D01*
X172064423Y-118749314D01*
X172070099Y-118713478D01*
X172072505Y-118701858D01*
X172081528Y-118666713D01*
X172081528Y-118666712D01*
X172083500Y-118659032D01*
X172083500Y-118638778D01*
X172085051Y-118619067D01*
X172086980Y-118606888D01*
X172088220Y-118599059D01*
X172084059Y-118555040D01*
X172083500Y-118543183D01*
X172083500Y-116272524D01*
X172103502Y-116204403D01*
X172115858Y-116188221D01*
X172189040Y-116106944D01*
X172257418Y-115988510D01*
X172281223Y-115947279D01*
X172281224Y-115947278D01*
X172284527Y-115941556D01*
X172343542Y-115759928D01*
X172348977Y-115708222D01*
X172362814Y-115576565D01*
X172363504Y-115570000D01*
X172359230Y-115529338D01*
X172344232Y-115386635D01*
X172344232Y-115386633D01*
X172343542Y-115380072D01*
X172284527Y-115198444D01*
X172189040Y-115033056D01*
X172161147Y-115002077D01*
X172065675Y-114896045D01*
X172065674Y-114896044D01*
X172061253Y-114891134D01*
X171934024Y-114798696D01*
X171912094Y-114782763D01*
X171912093Y-114782762D01*
X171906752Y-114778882D01*
X171900724Y-114776198D01*
X171900722Y-114776197D01*
X171738319Y-114703891D01*
X171738318Y-114703891D01*
X171732288Y-114701206D01*
X171624680Y-114678333D01*
X171551944Y-114662872D01*
X171551939Y-114662872D01*
X171545487Y-114661500D01*
X171354513Y-114661500D01*
X171348061Y-114662872D01*
X171348056Y-114662872D01*
X171275320Y-114678333D01*
X171167712Y-114701206D01*
X171161682Y-114703891D01*
X171161681Y-114703891D01*
X170999278Y-114776197D01*
X170999276Y-114776198D01*
X170993248Y-114778882D01*
X170987907Y-114782762D01*
X170987906Y-114782763D01*
X170965976Y-114798696D01*
X170838747Y-114891134D01*
X170834326Y-114896044D01*
X170834325Y-114896045D01*
X170738854Y-115002077D01*
X170710960Y-115033056D01*
X170615473Y-115198444D01*
X170556458Y-115380072D01*
X170555768Y-115386633D01*
X170555768Y-115386635D01*
X170540770Y-115529338D01*
X170536496Y-115570000D01*
X170537186Y-115576565D01*
X170551024Y-115708222D01*
X170556458Y-115759928D01*
X170615473Y-115941556D01*
X170618776Y-115947278D01*
X170618777Y-115947279D01*
X170642582Y-115988510D01*
X170710960Y-116106944D01*
X170784137Y-116188215D01*
X170814853Y-116252221D01*
X170816500Y-116272524D01*
X170816500Y-118264408D01*
X170796498Y-118332529D01*
X170779595Y-118353503D01*
X170328850Y-118804248D01*
X170266538Y-118838274D01*
X170195723Y-118833209D01*
X170138887Y-118790662D01*
X170124206Y-118765398D01*
X170120826Y-118757625D01*
X170111354Y-118735840D01*
X170027931Y-118606888D01*
X169992822Y-118552617D01*
X169992820Y-118552614D01*
X169990014Y-118548277D01*
X169839670Y-118383051D01*
X169835619Y-118379852D01*
X169835615Y-118379848D01*
X169668414Y-118247800D01*
X169668410Y-118247798D01*
X169664359Y-118244598D01*
X169623053Y-118221796D01*
X169573084Y-118171364D01*
X169558312Y-118101921D01*
X169583428Y-118035516D01*
X169610780Y-118008909D01*
X169654603Y-117977650D01*
X169789860Y-117881173D01*
X169948096Y-117723489D01*
X170078453Y-117542077D01*
X170082152Y-117534594D01*
X170175136Y-117346453D01*
X170175137Y-117346451D01*
X170177430Y-117341811D01*
X170242370Y-117128069D01*
X170271529Y-116906590D01*
X170272505Y-116866638D01*
X170273074Y-116843365D01*
X170273074Y-116843361D01*
X170273156Y-116840000D01*
X170254852Y-116617361D01*
X170200431Y-116400702D01*
X170111354Y-116195840D01*
X170057020Y-116111852D01*
X169992822Y-116012617D01*
X169992820Y-116012614D01*
X169990014Y-116008277D01*
X169839670Y-115843051D01*
X169835619Y-115839852D01*
X169835615Y-115839848D01*
X169668414Y-115707800D01*
X169668410Y-115707798D01*
X169664359Y-115704598D01*
X169623053Y-115681796D01*
X169573084Y-115631364D01*
X169558312Y-115561921D01*
X169583428Y-115495516D01*
X169610780Y-115468909D01*
X169654603Y-115437650D01*
X169789860Y-115341173D01*
X169948096Y-115183489D01*
X170078453Y-115002077D01*
X170091995Y-114974678D01*
X170175136Y-114806453D01*
X170175137Y-114806451D01*
X170177430Y-114801811D01*
X170233445Y-114617444D01*
X170240865Y-114593023D01*
X170240865Y-114593021D01*
X170242370Y-114588069D01*
X170271529Y-114366590D01*
X170273156Y-114300000D01*
X170254852Y-114077361D01*
X170228660Y-113973087D01*
X170231464Y-113902147D01*
X170272177Y-113843983D01*
X170337872Y-113817064D01*
X170407692Y-113829935D01*
X170444499Y-113858080D01*
X170560595Y-113987018D01*
X170715096Y-114099270D01*
X170721124Y-114101954D01*
X170721126Y-114101955D01*
X170776716Y-114126705D01*
X170889560Y-114176946D01*
X170982960Y-114196799D01*
X171069904Y-114215280D01*
X171069909Y-114215280D01*
X171076361Y-114216652D01*
X171267335Y-114216652D01*
X171273787Y-114215280D01*
X171273792Y-114215280D01*
X171360736Y-114196799D01*
X171454136Y-114176946D01*
X171566980Y-114126705D01*
X171622570Y-114101955D01*
X171622572Y-114101954D01*
X171628600Y-114099270D01*
X171783101Y-113987018D01*
X171787516Y-113982115D01*
X171787519Y-113982112D01*
X171787601Y-113982021D01*
X171787661Y-113981984D01*
X171792428Y-113977692D01*
X171793213Y-113978564D01*
X171848046Y-113944780D01*
X171919030Y-113946131D01*
X171970333Y-113977235D01*
X175455889Y-117462792D01*
X178940351Y-120947254D01*
X178947891Y-120955540D01*
X178952003Y-120962019D01*
X178957780Y-120967444D01*
X179001654Y-121008644D01*
X179004496Y-121011399D01*
X179024233Y-121031136D01*
X179027430Y-121033616D01*
X179036450Y-121041319D01*
X179068682Y-121071587D01*
X179075628Y-121075406D01*
X179075631Y-121075408D01*
X179086437Y-121081349D01*
X179102956Y-121092200D01*
X179118962Y-121104615D01*
X179126231Y-121107760D01*
X179126235Y-121107763D01*
X179159540Y-121122175D01*
X179170190Y-121127392D01*
X179208943Y-121148696D01*
X179216618Y-121150667D01*
X179216619Y-121150667D01*
X179228565Y-121153734D01*
X179247270Y-121160138D01*
X179265858Y-121168182D01*
X179273681Y-121169421D01*
X179273691Y-121169424D01*
X179309527Y-121175100D01*
X179321147Y-121177506D01*
X179356292Y-121186529D01*
X179363973Y-121188501D01*
X179384227Y-121188501D01*
X179403937Y-121190052D01*
X179423946Y-121193221D01*
X179431838Y-121192475D01*
X179467964Y-121189060D01*
X179479822Y-121188501D01*
X180254900Y-121188501D01*
X180323021Y-121208503D01*
X180369514Y-121262159D01*
X180379618Y-121332433D01*
X180369188Y-121367551D01*
X180333338Y-121444783D01*
X180329775Y-121454470D01*
X180274389Y-121654183D01*
X180275912Y-121662607D01*
X180288292Y-121666000D01*
X181337885Y-121666000D01*
X181353124Y-121661525D01*
X181354329Y-121660135D01*
X181356000Y-121652452D01*
X181356000Y-121314501D01*
X181376002Y-121246380D01*
X181429658Y-121199887D01*
X181482000Y-121188501D01*
X181738000Y-121188501D01*
X181806121Y-121208503D01*
X181852614Y-121262159D01*
X181864000Y-121314501D01*
X181864000Y-143558517D01*
X181868064Y-143572359D01*
X181881478Y-143574393D01*
X181888184Y-143573534D01*
X181898262Y-143571392D01*
X182102255Y-143510191D01*
X182111842Y-143506433D01*
X182303095Y-143412739D01*
X182311945Y-143407464D01*
X182485328Y-143283792D01*
X182493200Y-143277139D01*
X182644052Y-143126812D01*
X182650730Y-143118965D01*
X182778022Y-142941819D01*
X182779279Y-142942722D01*
X182826373Y-142899362D01*
X182896311Y-142887145D01*
X182961751Y-142914678D01*
X182989579Y-142946511D01*
X182997813Y-142959948D01*
X183049987Y-143045088D01*
X183196250Y-143213938D01*
X183368126Y-143356632D01*
X183561000Y-143469338D01*
X183769692Y-143549030D01*
X183774760Y-143550061D01*
X183774763Y-143550062D01*
X183869862Y-143569410D01*
X183988597Y-143593567D01*
X183993772Y-143593757D01*
X183993774Y-143593757D01*
X184206673Y-143601564D01*
X184206677Y-143601564D01*
X184211837Y-143601753D01*
X184216957Y-143601097D01*
X184216959Y-143601097D01*
X184428288Y-143574025D01*
X184428289Y-143574025D01*
X184433416Y-143573368D01*
X184438366Y-143571883D01*
X184642429Y-143510661D01*
X184642434Y-143510659D01*
X184647384Y-143509174D01*
X184847994Y-143410896D01*
X185029860Y-143281173D01*
X185188096Y-143123489D01*
X185318453Y-142942077D01*
X185327409Y-142923957D01*
X185415136Y-142746453D01*
X185415137Y-142746451D01*
X185417430Y-142741811D01*
X185473733Y-142556498D01*
X185480865Y-142533023D01*
X185480865Y-142533021D01*
X185482370Y-142528069D01*
X185511529Y-142306590D01*
X185513156Y-142240000D01*
X185494852Y-142017361D01*
X185440431Y-141800702D01*
X185351354Y-141595840D01*
X185230014Y-141408277D01*
X185079670Y-141243051D01*
X185075619Y-141239852D01*
X185075615Y-141239848D01*
X184908414Y-141107800D01*
X184908410Y-141107798D01*
X184904359Y-141104598D01*
X184863053Y-141081796D01*
X184813084Y-141031364D01*
X184798312Y-140961921D01*
X184823428Y-140895516D01*
X184850780Y-140868909D01*
X184894603Y-140837650D01*
X185029860Y-140741173D01*
X185098507Y-140672766D01*
X185111209Y-140660107D01*
X185188096Y-140583489D01*
X185318453Y-140402077D01*
X185331995Y-140374678D01*
X185415136Y-140206453D01*
X185415137Y-140206451D01*
X185417430Y-140201811D01*
X185482370Y-139988069D01*
X185511529Y-139766590D01*
X185513156Y-139700000D01*
X185494852Y-139477361D01*
X185440431Y-139260702D01*
X185351354Y-139055840D01*
X185273231Y-138935080D01*
X185232822Y-138872617D01*
X185232820Y-138872614D01*
X185230014Y-138868277D01*
X185079670Y-138703051D01*
X185075619Y-138699852D01*
X185075615Y-138699848D01*
X184908414Y-138567800D01*
X184908410Y-138567798D01*
X184904359Y-138564598D01*
X184863053Y-138541796D01*
X184813084Y-138491364D01*
X184798312Y-138421921D01*
X184823428Y-138355516D01*
X184850780Y-138328909D01*
X184894603Y-138297650D01*
X185029860Y-138201173D01*
X185188096Y-138043489D01*
X185318453Y-137862077D01*
X185331995Y-137834678D01*
X185415136Y-137666453D01*
X185415137Y-137666451D01*
X185417430Y-137661811D01*
X185482370Y-137448069D01*
X185511529Y-137226590D01*
X185513156Y-137160000D01*
X185494852Y-136937361D01*
X185440431Y-136720702D01*
X185351354Y-136515840D01*
X185230014Y-136328277D01*
X185079670Y-136163051D01*
X185075619Y-136159852D01*
X185075615Y-136159848D01*
X184908414Y-136027800D01*
X184908410Y-136027798D01*
X184904359Y-136024598D01*
X184863053Y-136001796D01*
X184813084Y-135951364D01*
X184798312Y-135881921D01*
X184823428Y-135815516D01*
X184850780Y-135788909D01*
X184894603Y-135757650D01*
X185029860Y-135661173D01*
X185188096Y-135503489D01*
X185318453Y-135322077D01*
X185331995Y-135294678D01*
X185415136Y-135126453D01*
X185415137Y-135126451D01*
X185417430Y-135121811D01*
X185482370Y-134908069D01*
X185511529Y-134686590D01*
X185513156Y-134620000D01*
X185494852Y-134397361D01*
X185440431Y-134180702D01*
X185351354Y-133975840D01*
X185230014Y-133788277D01*
X185079670Y-133623051D01*
X185075619Y-133619852D01*
X185075615Y-133619848D01*
X184908414Y-133487800D01*
X184908410Y-133487798D01*
X184904359Y-133484598D01*
X184863053Y-133461796D01*
X184813084Y-133411364D01*
X184798312Y-133341921D01*
X184823428Y-133275516D01*
X184850780Y-133248909D01*
X184894603Y-133217650D01*
X185029860Y-133121173D01*
X185188096Y-132963489D01*
X185318453Y-132782077D01*
X185331995Y-132754678D01*
X185415136Y-132586453D01*
X185415137Y-132586451D01*
X185417430Y-132581811D01*
X185482370Y-132368069D01*
X185511529Y-132146590D01*
X185513156Y-132080000D01*
X185494852Y-131857361D01*
X185440431Y-131640702D01*
X185351354Y-131435840D01*
X185230014Y-131248277D01*
X185079670Y-131083051D01*
X185075619Y-131079852D01*
X185075615Y-131079848D01*
X184908414Y-130947800D01*
X184908410Y-130947798D01*
X184904359Y-130944598D01*
X184863053Y-130921796D01*
X184813084Y-130871364D01*
X184798312Y-130801921D01*
X184823428Y-130735516D01*
X184850780Y-130708909D01*
X184894603Y-130677650D01*
X185029860Y-130581173D01*
X185188096Y-130423489D01*
X185318453Y-130242077D01*
X185331995Y-130214678D01*
X185415136Y-130046453D01*
X185415137Y-130046451D01*
X185417430Y-130041811D01*
X185482370Y-129828069D01*
X185511529Y-129606590D01*
X185513156Y-129540000D01*
X185494852Y-129317361D01*
X185440431Y-129100702D01*
X185351354Y-128895840D01*
X185230014Y-128708277D01*
X185079670Y-128543051D01*
X185075619Y-128539852D01*
X185075615Y-128539848D01*
X184908414Y-128407800D01*
X184908410Y-128407798D01*
X184904359Y-128404598D01*
X184863053Y-128381796D01*
X184813084Y-128331364D01*
X184798312Y-128261921D01*
X184823428Y-128195516D01*
X184850780Y-128168909D01*
X184894603Y-128137650D01*
X185029860Y-128041173D01*
X185188096Y-127883489D01*
X185318453Y-127702077D01*
X185331995Y-127674678D01*
X185415136Y-127506453D01*
X185415137Y-127506451D01*
X185417430Y-127501811D01*
X185482370Y-127288069D01*
X185511529Y-127066590D01*
X185513156Y-127000000D01*
X185494852Y-126777361D01*
X185440431Y-126560702D01*
X185351354Y-126355840D01*
X185230014Y-126168277D01*
X185079670Y-126003051D01*
X185075619Y-125999852D01*
X185075615Y-125999848D01*
X184908414Y-125867800D01*
X184908410Y-125867798D01*
X184904359Y-125864598D01*
X184863053Y-125841796D01*
X184813084Y-125791364D01*
X184798312Y-125721921D01*
X184823428Y-125655516D01*
X184850780Y-125628909D01*
X184894603Y-125597650D01*
X185029860Y-125501173D01*
X185188096Y-125343489D01*
X185318453Y-125162077D01*
X185331995Y-125134678D01*
X185415136Y-124966453D01*
X185415137Y-124966451D01*
X185417430Y-124961811D01*
X185482370Y-124748069D01*
X185511529Y-124526590D01*
X185513156Y-124460000D01*
X185494852Y-124237361D01*
X185440431Y-124020702D01*
X185351354Y-123815840D01*
X185230014Y-123628277D01*
X185079670Y-123463051D01*
X185075619Y-123459852D01*
X185075615Y-123459848D01*
X184908414Y-123327800D01*
X184908410Y-123327798D01*
X184904359Y-123324598D01*
X184863053Y-123301796D01*
X184813084Y-123251364D01*
X184798312Y-123181921D01*
X184823428Y-123115516D01*
X184850780Y-123088909D01*
X184894603Y-123057650D01*
X185029860Y-122961173D01*
X185078720Y-122912484D01*
X185146901Y-122844540D01*
X185188096Y-122803489D01*
X185205297Y-122779552D01*
X185315435Y-122626277D01*
X185318453Y-122622077D01*
X185331995Y-122594678D01*
X185415136Y-122426453D01*
X185415137Y-122426451D01*
X185417430Y-122421811D01*
X185482370Y-122208069D01*
X185511529Y-121986590D01*
X185513156Y-121920000D01*
X185494852Y-121697361D01*
X185440431Y-121480702D01*
X185351354Y-121275840D01*
X185295855Y-121190052D01*
X185232822Y-121092617D01*
X185232820Y-121092614D01*
X185230014Y-121088277D01*
X185079670Y-120923051D01*
X185075619Y-120919852D01*
X185075615Y-120919848D01*
X184908414Y-120787800D01*
X184908410Y-120787798D01*
X184904359Y-120784598D01*
X184863053Y-120761796D01*
X184813084Y-120711364D01*
X184798312Y-120641921D01*
X184823428Y-120575516D01*
X184850780Y-120548909D01*
X184894603Y-120517650D01*
X185029860Y-120421173D01*
X185188096Y-120263489D01*
X185318453Y-120082077D01*
X185322145Y-120074608D01*
X185415136Y-119886453D01*
X185415137Y-119886451D01*
X185417430Y-119881811D01*
X185482370Y-119668069D01*
X185511529Y-119446590D01*
X185513156Y-119380000D01*
X185494852Y-119157361D01*
X185440431Y-118940702D01*
X185351354Y-118735840D01*
X185267931Y-118606888D01*
X185232822Y-118552617D01*
X185232820Y-118552614D01*
X185230014Y-118548277D01*
X185079670Y-118383051D01*
X185075619Y-118379852D01*
X185075615Y-118379848D01*
X184908414Y-118247800D01*
X184908410Y-118247798D01*
X184904359Y-118244598D01*
X184863053Y-118221796D01*
X184813084Y-118171364D01*
X184798312Y-118101921D01*
X184823428Y-118035516D01*
X184850780Y-118008909D01*
X184894603Y-117977650D01*
X185029860Y-117881173D01*
X185188096Y-117723489D01*
X185318453Y-117542077D01*
X185322152Y-117534594D01*
X185415136Y-117346453D01*
X185415137Y-117346451D01*
X185417430Y-117341811D01*
X185482370Y-117128069D01*
X185511529Y-116906590D01*
X185512505Y-116866638D01*
X185513074Y-116843365D01*
X185513074Y-116843361D01*
X185513156Y-116840000D01*
X185494852Y-116617361D01*
X185440431Y-116400702D01*
X185351354Y-116195840D01*
X185297020Y-116111852D01*
X185232822Y-116012617D01*
X185232820Y-116012614D01*
X185230014Y-116008277D01*
X185079670Y-115843051D01*
X185075619Y-115839852D01*
X185075615Y-115839848D01*
X184908414Y-115707800D01*
X184908410Y-115707798D01*
X184904359Y-115704598D01*
X184863053Y-115681796D01*
X184813084Y-115631364D01*
X184798312Y-115561921D01*
X184823428Y-115495516D01*
X184850780Y-115468909D01*
X184894603Y-115437650D01*
X185029860Y-115341173D01*
X185188096Y-115183489D01*
X185318453Y-115002077D01*
X185331995Y-114974678D01*
X185415136Y-114806453D01*
X185415137Y-114806451D01*
X185417430Y-114801811D01*
X185473445Y-114617444D01*
X185480865Y-114593023D01*
X185480865Y-114593021D01*
X185482370Y-114588069D01*
X185511529Y-114366590D01*
X185513156Y-114300000D01*
X185494852Y-114077361D01*
X185440431Y-113860702D01*
X185351354Y-113655840D01*
X185230014Y-113468277D01*
X185079670Y-113303051D01*
X185075619Y-113299852D01*
X185075615Y-113299848D01*
X184908414Y-113167800D01*
X184908410Y-113167798D01*
X184904359Y-113164598D01*
X184863053Y-113141796D01*
X184813084Y-113091364D01*
X184798312Y-113021921D01*
X184823428Y-112955516D01*
X184850780Y-112928909D01*
X184894603Y-112897650D01*
X185029860Y-112801173D01*
X185188096Y-112643489D01*
X185197670Y-112630166D01*
X185315435Y-112466277D01*
X185318453Y-112462077D01*
X185328006Y-112442749D01*
X185415136Y-112266453D01*
X185415137Y-112266451D01*
X185417430Y-112261811D01*
X185482370Y-112048069D01*
X185511529Y-111826590D01*
X185511905Y-111811217D01*
X185513074Y-111763365D01*
X185513074Y-111763361D01*
X185513156Y-111760000D01*
X185494852Y-111537361D01*
X185440431Y-111320702D01*
X185351354Y-111115840D01*
X185261974Y-110977680D01*
X185232822Y-110932617D01*
X185232820Y-110932614D01*
X185230014Y-110928277D01*
X185079670Y-110763051D01*
X185075619Y-110759852D01*
X185075615Y-110759848D01*
X184908414Y-110627800D01*
X184908410Y-110627798D01*
X184904359Y-110624598D01*
X184863053Y-110601796D01*
X184813084Y-110551364D01*
X184798312Y-110481921D01*
X184823428Y-110415516D01*
X184850780Y-110388909D01*
X184894603Y-110357650D01*
X185029860Y-110261173D01*
X185077280Y-110213919D01*
X185111209Y-110180107D01*
X185188096Y-110103489D01*
X185204406Y-110080792D01*
X185315435Y-109926277D01*
X185318453Y-109922077D01*
X185331995Y-109894678D01*
X185415136Y-109726453D01*
X185415137Y-109726451D01*
X185417430Y-109721811D01*
X185482370Y-109508069D01*
X185511529Y-109286590D01*
X185512505Y-109246638D01*
X185513074Y-109223365D01*
X185513074Y-109223361D01*
X185513156Y-109220000D01*
X185494852Y-108997361D01*
X185440431Y-108780702D01*
X185351354Y-108575840D01*
X185311906Y-108514862D01*
X185232822Y-108392617D01*
X185232820Y-108392614D01*
X185230014Y-108388277D01*
X185079670Y-108223051D01*
X185075619Y-108219852D01*
X185075615Y-108219848D01*
X184908414Y-108087800D01*
X184908410Y-108087798D01*
X184904359Y-108084598D01*
X184863053Y-108061796D01*
X184813084Y-108011364D01*
X184798312Y-107941921D01*
X184823428Y-107875516D01*
X184850780Y-107848909D01*
X184894603Y-107817650D01*
X185029860Y-107721173D01*
X185188096Y-107563489D01*
X185318453Y-107382077D01*
X185331995Y-107354678D01*
X185415136Y-107186453D01*
X185415137Y-107186451D01*
X185417430Y-107181811D01*
X185482370Y-106968069D01*
X185511529Y-106746590D01*
X185513156Y-106680000D01*
X185494852Y-106457361D01*
X185440431Y-106240702D01*
X185351354Y-106035840D01*
X185311906Y-105974862D01*
X185232822Y-105852617D01*
X185232820Y-105852614D01*
X185230014Y-105848277D01*
X185079670Y-105683051D01*
X185075619Y-105679852D01*
X185075615Y-105679848D01*
X184908414Y-105547800D01*
X184908410Y-105547798D01*
X184904359Y-105544598D01*
X184863053Y-105521796D01*
X184813084Y-105471364D01*
X184798312Y-105401921D01*
X184823428Y-105335516D01*
X184850780Y-105308909D01*
X184894603Y-105277650D01*
X185029860Y-105181173D01*
X185188096Y-105023489D01*
X185210161Y-104992783D01*
X185315435Y-104846277D01*
X185318453Y-104842077D01*
X185327278Y-104824222D01*
X185415136Y-104646453D01*
X185415137Y-104646451D01*
X185417430Y-104641811D01*
X185482370Y-104428069D01*
X185511529Y-104206590D01*
X185513156Y-104140000D01*
X185494852Y-103917361D01*
X185440431Y-103700702D01*
X185351354Y-103495840D01*
X185230014Y-103308277D01*
X185079670Y-103143051D01*
X185075619Y-103139852D01*
X185075615Y-103139848D01*
X184908414Y-103007800D01*
X184908410Y-103007798D01*
X184904359Y-103004598D01*
X184863053Y-102981796D01*
X184813084Y-102931364D01*
X184798312Y-102861921D01*
X184823428Y-102795516D01*
X184850780Y-102768909D01*
X184894603Y-102737650D01*
X185029860Y-102641173D01*
X185188096Y-102483489D01*
X185318453Y-102302077D01*
X185417430Y-102101811D01*
X185482370Y-101888069D01*
X185511529Y-101666590D01*
X185513156Y-101600000D01*
X185494852Y-101377361D01*
X185440431Y-101160702D01*
X185351354Y-100955840D01*
X185230014Y-100768277D01*
X185079670Y-100603051D01*
X185075619Y-100599852D01*
X185075615Y-100599848D01*
X184908414Y-100467800D01*
X184908410Y-100467798D01*
X184904359Y-100464598D01*
X184708789Y-100356638D01*
X184703920Y-100354914D01*
X184703916Y-100354912D01*
X184503087Y-100283795D01*
X184503083Y-100283794D01*
X184498212Y-100282069D01*
X184493119Y-100281162D01*
X184493116Y-100281161D01*
X184283373Y-100243800D01*
X184283367Y-100243799D01*
X184278284Y-100242894D01*
X184204452Y-100241992D01*
X184060081Y-100240228D01*
X184060079Y-100240228D01*
X184054911Y-100240165D01*
X183834091Y-100273955D01*
X183621756Y-100343357D01*
X183423607Y-100446507D01*
X183419474Y-100449610D01*
X183419471Y-100449612D01*
X183336450Y-100511946D01*
X183244965Y-100580635D01*
X183241393Y-100584373D01*
X183163898Y-100665466D01*
X183102374Y-100700895D01*
X183031462Y-100697438D01*
X182973676Y-100656192D01*
X182954823Y-100622644D01*
X182913324Y-100511946D01*
X182904786Y-100496351D01*
X182828285Y-100394276D01*
X182815724Y-100381715D01*
X182713649Y-100305214D01*
X182698054Y-100296676D01*
X182577606Y-100251522D01*
X182562351Y-100247895D01*
X182511486Y-100242369D01*
X182504672Y-100242000D01*
X181882115Y-100242000D01*
X181866876Y-100246475D01*
X181865671Y-100247865D01*
X181864000Y-100255548D01*
X181864000Y-119795501D01*
X181843998Y-119863622D01*
X181790342Y-119910115D01*
X181738000Y-119921501D01*
X181482000Y-119921501D01*
X181413879Y-119901499D01*
X181367386Y-119847843D01*
X181356000Y-119795501D01*
X181356000Y-119652115D01*
X181351525Y-119636876D01*
X181350135Y-119635671D01*
X181342452Y-119634000D01*
X180293225Y-119634000D01*
X180279694Y-119637973D01*
X180278257Y-119647966D01*
X180305264Y-119767800D01*
X180300728Y-119838651D01*
X180258607Y-119895803D01*
X180192273Y-119921109D01*
X180182347Y-119921501D01*
X179758597Y-119921501D01*
X179690476Y-119901499D01*
X179669502Y-119884596D01*
X178899089Y-119114183D01*
X180274389Y-119114183D01*
X180275912Y-119122607D01*
X180288292Y-119126000D01*
X181337885Y-119126000D01*
X181353124Y-119121525D01*
X181354329Y-119120135D01*
X181356000Y-119112452D01*
X181356000Y-117112115D01*
X181351525Y-117096876D01*
X181350135Y-117095671D01*
X181342452Y-117094000D01*
X180293225Y-117094000D01*
X180279694Y-117097973D01*
X180278257Y-117107966D01*
X180308565Y-117242446D01*
X180311645Y-117252275D01*
X180391770Y-117449603D01*
X180396413Y-117458794D01*
X180507694Y-117640388D01*
X180513777Y-117648699D01*
X180653213Y-117809667D01*
X180660580Y-117816883D01*
X180824434Y-117952916D01*
X180832881Y-117958831D01*
X180902479Y-117999501D01*
X180951203Y-118051140D01*
X180964274Y-118120923D01*
X180937543Y-118186694D01*
X180897087Y-118220053D01*
X180888462Y-118224542D01*
X180879738Y-118230036D01*
X180709433Y-118357905D01*
X180701726Y-118364748D01*
X180554590Y-118518717D01*
X180548104Y-118526727D01*
X180428098Y-118702649D01*
X180423000Y-118711623D01*
X180333338Y-118904783D01*
X180329775Y-118914470D01*
X180274389Y-119114183D01*
X178899089Y-119114183D01*
X176359090Y-116574183D01*
X180274389Y-116574183D01*
X180275912Y-116582607D01*
X180288292Y-116586000D01*
X181337885Y-116586000D01*
X181353124Y-116581525D01*
X181354329Y-116580135D01*
X181356000Y-116572452D01*
X181356000Y-114572115D01*
X181351525Y-114556876D01*
X181350135Y-114555671D01*
X181342452Y-114554000D01*
X180293225Y-114554000D01*
X180279694Y-114557973D01*
X180278257Y-114567966D01*
X180308565Y-114702446D01*
X180311645Y-114712275D01*
X180391770Y-114909603D01*
X180396413Y-114918794D01*
X180507694Y-115100388D01*
X180513777Y-115108699D01*
X180653213Y-115269667D01*
X180660580Y-115276883D01*
X180824434Y-115412916D01*
X180832881Y-115418831D01*
X180902479Y-115459501D01*
X180951203Y-115511140D01*
X180964274Y-115580923D01*
X180937543Y-115646694D01*
X180897087Y-115680053D01*
X180888462Y-115684542D01*
X180879738Y-115690036D01*
X180709433Y-115817905D01*
X180701726Y-115824748D01*
X180554590Y-115978717D01*
X180548104Y-115986727D01*
X180428098Y-116162649D01*
X180423000Y-116171623D01*
X180333338Y-116364783D01*
X180329775Y-116374470D01*
X180274389Y-116574183D01*
X176359090Y-116574183D01*
X173819090Y-114034183D01*
X180274389Y-114034183D01*
X180275912Y-114042607D01*
X180288292Y-114046000D01*
X181337885Y-114046000D01*
X181353124Y-114041525D01*
X181354329Y-114040135D01*
X181356000Y-114032452D01*
X181356000Y-112032115D01*
X181351525Y-112016876D01*
X181350135Y-112015671D01*
X181342452Y-112014000D01*
X180293225Y-112014000D01*
X180279694Y-112017973D01*
X180278257Y-112027966D01*
X180308565Y-112162446D01*
X180311645Y-112172275D01*
X180391770Y-112369603D01*
X180396413Y-112378794D01*
X180507694Y-112560388D01*
X180513777Y-112568699D01*
X180653213Y-112729667D01*
X180660580Y-112736883D01*
X180824434Y-112872916D01*
X180832881Y-112878831D01*
X180902479Y-112919501D01*
X180951203Y-112971140D01*
X180964274Y-113040923D01*
X180937543Y-113106694D01*
X180897087Y-113140053D01*
X180888462Y-113144542D01*
X180879738Y-113150036D01*
X180709433Y-113277905D01*
X180701726Y-113284748D01*
X180554590Y-113438717D01*
X180548104Y-113446727D01*
X180428098Y-113622649D01*
X180423000Y-113631623D01*
X180333338Y-113824783D01*
X180329775Y-113834470D01*
X180274389Y-114034183D01*
X173819090Y-114034183D01*
X171279090Y-111494183D01*
X180274389Y-111494183D01*
X180275912Y-111502607D01*
X180288292Y-111506000D01*
X181337885Y-111506000D01*
X181353124Y-111501525D01*
X181354329Y-111500135D01*
X181356000Y-111492452D01*
X181356000Y-109492115D01*
X181351525Y-109476876D01*
X181350135Y-109475671D01*
X181342452Y-109474000D01*
X180293225Y-109474000D01*
X180279694Y-109477973D01*
X180278257Y-109487966D01*
X180308565Y-109622446D01*
X180311645Y-109632275D01*
X180391770Y-109829603D01*
X180396413Y-109838794D01*
X180507694Y-110020388D01*
X180513777Y-110028699D01*
X180653213Y-110189667D01*
X180660580Y-110196883D01*
X180824434Y-110332916D01*
X180832881Y-110338831D01*
X180902479Y-110379501D01*
X180951203Y-110431140D01*
X180964274Y-110500923D01*
X180937543Y-110566694D01*
X180897087Y-110600053D01*
X180888462Y-110604542D01*
X180879738Y-110610036D01*
X180709433Y-110737905D01*
X180701726Y-110744748D01*
X180554590Y-110898717D01*
X180548104Y-110906727D01*
X180428098Y-111082649D01*
X180423000Y-111091623D01*
X180333338Y-111284783D01*
X180329775Y-111294470D01*
X180274389Y-111494183D01*
X171279090Y-111494183D01*
X169998826Y-110213919D01*
X169964800Y-110151607D01*
X169969865Y-110080792D01*
X169985599Y-110051298D01*
X170075430Y-109926285D01*
X170075435Y-109926277D01*
X170078453Y-109922077D01*
X170091995Y-109894678D01*
X170175136Y-109726453D01*
X170175137Y-109726451D01*
X170177430Y-109721811D01*
X170242370Y-109508069D01*
X170271529Y-109286590D01*
X170272505Y-109246638D01*
X170273074Y-109223365D01*
X170273074Y-109223361D01*
X170273156Y-109220000D01*
X170254852Y-108997361D01*
X170244006Y-108954183D01*
X180274389Y-108954183D01*
X180275912Y-108962607D01*
X180288292Y-108966000D01*
X181337885Y-108966000D01*
X181353124Y-108961525D01*
X181354329Y-108960135D01*
X181356000Y-108952452D01*
X181356000Y-106952115D01*
X181351525Y-106936876D01*
X181350135Y-106935671D01*
X181342452Y-106934000D01*
X180293225Y-106934000D01*
X180279694Y-106937973D01*
X180278257Y-106947966D01*
X180308565Y-107082446D01*
X180311645Y-107092275D01*
X180391770Y-107289603D01*
X180396413Y-107298794D01*
X180507694Y-107480388D01*
X180513777Y-107488699D01*
X180653213Y-107649667D01*
X180660580Y-107656883D01*
X180824434Y-107792916D01*
X180832881Y-107798831D01*
X180902479Y-107839501D01*
X180951203Y-107891140D01*
X180964274Y-107960923D01*
X180937543Y-108026694D01*
X180897087Y-108060053D01*
X180888462Y-108064542D01*
X180879738Y-108070036D01*
X180709433Y-108197905D01*
X180701726Y-108204748D01*
X180554590Y-108358717D01*
X180548104Y-108366727D01*
X180428098Y-108542649D01*
X180423000Y-108551623D01*
X180333338Y-108744783D01*
X180329775Y-108754470D01*
X180274389Y-108954183D01*
X170244006Y-108954183D01*
X170200431Y-108780702D01*
X170111354Y-108575840D01*
X170071906Y-108514862D01*
X169992822Y-108392617D01*
X169992820Y-108392614D01*
X169990014Y-108388277D01*
X169839670Y-108223051D01*
X169835619Y-108219852D01*
X169835615Y-108219848D01*
X169668414Y-108087800D01*
X169668410Y-108087798D01*
X169664359Y-108084598D01*
X169623053Y-108061796D01*
X169573084Y-108011364D01*
X169558312Y-107941921D01*
X169583428Y-107875516D01*
X169610780Y-107848909D01*
X169654603Y-107817650D01*
X169789860Y-107721173D01*
X169948096Y-107563489D01*
X170078453Y-107382077D01*
X170091995Y-107354678D01*
X170175136Y-107186453D01*
X170175137Y-107186451D01*
X170177430Y-107181811D01*
X170242370Y-106968069D01*
X170271529Y-106746590D01*
X170273156Y-106680000D01*
X170254852Y-106457361D01*
X170244006Y-106414183D01*
X180274389Y-106414183D01*
X180275912Y-106422607D01*
X180288292Y-106426000D01*
X181337885Y-106426000D01*
X181353124Y-106421525D01*
X181354329Y-106420135D01*
X181356000Y-106412452D01*
X181356000Y-104412115D01*
X181351525Y-104396876D01*
X181350135Y-104395671D01*
X181342452Y-104394000D01*
X180293225Y-104394000D01*
X180279694Y-104397973D01*
X180278257Y-104407966D01*
X180308565Y-104542446D01*
X180311645Y-104552275D01*
X180391770Y-104749603D01*
X180396413Y-104758794D01*
X180507694Y-104940388D01*
X180513777Y-104948699D01*
X180653213Y-105109667D01*
X180660580Y-105116883D01*
X180824434Y-105252916D01*
X180832881Y-105258831D01*
X180902479Y-105299501D01*
X180951203Y-105351140D01*
X180964274Y-105420923D01*
X180937543Y-105486694D01*
X180897087Y-105520053D01*
X180888462Y-105524542D01*
X180879738Y-105530036D01*
X180709433Y-105657905D01*
X180701726Y-105664748D01*
X180554590Y-105818717D01*
X180548104Y-105826727D01*
X180428098Y-106002649D01*
X180423000Y-106011623D01*
X180333338Y-106204783D01*
X180329775Y-106214470D01*
X180274389Y-106414183D01*
X170244006Y-106414183D01*
X170200431Y-106240702D01*
X170111354Y-106035840D01*
X170071906Y-105974862D01*
X169992822Y-105852617D01*
X169992820Y-105852614D01*
X169990014Y-105848277D01*
X169839670Y-105683051D01*
X169835619Y-105679852D01*
X169835615Y-105679848D01*
X169668414Y-105547800D01*
X169668410Y-105547798D01*
X169664359Y-105544598D01*
X169623053Y-105521796D01*
X169573084Y-105471364D01*
X169558312Y-105401921D01*
X169583428Y-105335516D01*
X169610780Y-105308909D01*
X169654603Y-105277650D01*
X169789860Y-105181173D01*
X169948096Y-105023489D01*
X169970161Y-104992783D01*
X170075435Y-104846277D01*
X170078453Y-104842077D01*
X170087278Y-104824222D01*
X170175136Y-104646453D01*
X170175137Y-104646451D01*
X170177430Y-104641811D01*
X170242370Y-104428069D01*
X170271529Y-104206590D01*
X170273156Y-104140000D01*
X170254852Y-103917361D01*
X170200431Y-103700702D01*
X170111354Y-103495840D01*
X169990014Y-103308277D01*
X169839670Y-103143051D01*
X169835619Y-103139852D01*
X169835615Y-103139848D01*
X169668414Y-103007800D01*
X169668410Y-103007798D01*
X169664359Y-103004598D01*
X169623053Y-102981796D01*
X169573084Y-102931364D01*
X169558312Y-102861921D01*
X169583428Y-102795516D01*
X169610780Y-102768909D01*
X169654603Y-102737650D01*
X169789860Y-102641173D01*
X169936877Y-102494669D01*
X180252001Y-102494669D01*
X180252371Y-102501490D01*
X180257895Y-102552352D01*
X180261521Y-102567604D01*
X180306676Y-102688054D01*
X180315214Y-102703649D01*
X180391715Y-102805724D01*
X180404276Y-102818285D01*
X180506351Y-102894786D01*
X180521946Y-102903324D01*
X180631337Y-102944333D01*
X180688101Y-102986975D01*
X180712801Y-103053536D01*
X180697594Y-103122885D01*
X180678201Y-103149366D01*
X180554590Y-103278717D01*
X180548104Y-103286727D01*
X180428098Y-103462649D01*
X180423000Y-103471623D01*
X180333338Y-103664783D01*
X180329775Y-103674470D01*
X180274389Y-103874183D01*
X180275912Y-103882607D01*
X180288292Y-103886000D01*
X181337885Y-103886000D01*
X181353124Y-103881525D01*
X181354329Y-103880135D01*
X181356000Y-103872452D01*
X181356000Y-101872115D01*
X181351525Y-101856876D01*
X181350135Y-101855671D01*
X181342452Y-101854000D01*
X180270116Y-101854000D01*
X180254877Y-101858475D01*
X180253672Y-101859865D01*
X180252001Y-101867548D01*
X180252001Y-102494669D01*
X169936877Y-102494669D01*
X169948096Y-102483489D01*
X170078453Y-102302077D01*
X170177430Y-102101811D01*
X170242370Y-101888069D01*
X170271529Y-101666590D01*
X170273156Y-101600000D01*
X170254852Y-101377361D01*
X170242424Y-101327885D01*
X180252000Y-101327885D01*
X180256475Y-101343124D01*
X180257865Y-101344329D01*
X180265548Y-101346000D01*
X181337885Y-101346000D01*
X181353124Y-101341525D01*
X181354329Y-101340135D01*
X181356000Y-101332452D01*
X181356000Y-100260116D01*
X181351525Y-100244877D01*
X181350135Y-100243672D01*
X181342452Y-100242001D01*
X180715331Y-100242001D01*
X180708510Y-100242371D01*
X180657648Y-100247895D01*
X180642396Y-100251521D01*
X180521946Y-100296676D01*
X180506351Y-100305214D01*
X180404276Y-100381715D01*
X180391715Y-100394276D01*
X180315214Y-100496351D01*
X180306676Y-100511946D01*
X180261522Y-100632394D01*
X180257895Y-100647649D01*
X180252369Y-100698514D01*
X180252000Y-100705328D01*
X180252000Y-101327885D01*
X170242424Y-101327885D01*
X170200431Y-101160702D01*
X170111354Y-100955840D01*
X169990014Y-100768277D01*
X169839670Y-100603051D01*
X169835619Y-100599852D01*
X169835615Y-100599848D01*
X169668414Y-100467800D01*
X169668410Y-100467798D01*
X169664359Y-100464598D01*
X169468789Y-100356638D01*
X169463920Y-100354914D01*
X169463916Y-100354912D01*
X169263087Y-100283795D01*
X169263083Y-100283794D01*
X169258212Y-100282069D01*
X169253119Y-100281162D01*
X169253116Y-100281161D01*
X169043373Y-100243800D01*
X169043367Y-100243799D01*
X169038284Y-100242894D01*
X168964452Y-100241992D01*
X168820081Y-100240228D01*
X168820079Y-100240228D01*
X168814911Y-100240165D01*
X168594091Y-100273955D01*
X168381756Y-100343357D01*
X168183607Y-100446507D01*
X168179474Y-100449610D01*
X168179471Y-100449612D01*
X168096450Y-100511946D01*
X168004965Y-100580635D01*
X168001393Y-100584373D01*
X167923898Y-100665466D01*
X167862374Y-100700895D01*
X167791462Y-100697438D01*
X167733676Y-100656192D01*
X167714823Y-100622644D01*
X167673324Y-100511946D01*
X167664786Y-100496351D01*
X167588285Y-100394276D01*
X167575724Y-100381715D01*
X167473649Y-100305214D01*
X167458054Y-100296676D01*
X167337606Y-100251522D01*
X167322351Y-100247895D01*
X167271486Y-100242369D01*
X167264672Y-100242000D01*
X166642115Y-100242000D01*
X166626876Y-100246475D01*
X166625671Y-100247865D01*
X166624000Y-100255548D01*
X166624000Y-109730500D01*
X166603998Y-109798621D01*
X166550342Y-109845114D01*
X166498000Y-109856500D01*
X166242000Y-109856500D01*
X166173879Y-109836498D01*
X166127386Y-109782842D01*
X166116000Y-109730500D01*
X166116000Y-109492115D01*
X166111525Y-109476876D01*
X166110135Y-109475671D01*
X166102452Y-109474000D01*
X165053225Y-109474000D01*
X165039694Y-109477973D01*
X165038257Y-109487966D01*
X165068565Y-109622446D01*
X165071646Y-109632280D01*
X165092280Y-109683097D01*
X165099376Y-109753738D01*
X165067153Y-109817001D01*
X165005843Y-109852801D01*
X164975537Y-109856500D01*
X160919800Y-109856500D01*
X160851679Y-109836498D01*
X160805186Y-109782842D01*
X160795082Y-109712568D01*
X160810681Y-109667500D01*
X160851223Y-109597279D01*
X160851224Y-109597278D01*
X160854527Y-109591556D01*
X160913542Y-109409928D01*
X160914407Y-109401703D01*
X160932814Y-109226565D01*
X160933504Y-109220000D01*
X160913542Y-109030072D01*
X160888884Y-108954183D01*
X165034389Y-108954183D01*
X165035912Y-108962607D01*
X165048292Y-108966000D01*
X166097885Y-108966000D01*
X166113124Y-108961525D01*
X166114329Y-108960135D01*
X166116000Y-108952452D01*
X166116000Y-106952115D01*
X166111525Y-106936876D01*
X166110135Y-106935671D01*
X166102452Y-106934000D01*
X165053225Y-106934000D01*
X165039694Y-106937973D01*
X165038257Y-106947966D01*
X165068565Y-107082446D01*
X165071645Y-107092275D01*
X165151770Y-107289603D01*
X165156413Y-107298794D01*
X165267694Y-107480388D01*
X165273777Y-107488699D01*
X165413213Y-107649667D01*
X165420580Y-107656883D01*
X165584434Y-107792916D01*
X165592881Y-107798831D01*
X165662479Y-107839501D01*
X165711203Y-107891140D01*
X165724274Y-107960923D01*
X165697543Y-108026694D01*
X165657087Y-108060053D01*
X165648462Y-108064542D01*
X165639738Y-108070036D01*
X165469433Y-108197905D01*
X165461726Y-108204748D01*
X165314590Y-108358717D01*
X165308104Y-108366727D01*
X165188098Y-108542649D01*
X165183000Y-108551623D01*
X165093338Y-108744783D01*
X165089775Y-108754470D01*
X165034389Y-108954183D01*
X160888884Y-108954183D01*
X160854527Y-108848444D01*
X160759040Y-108683056D01*
X160662503Y-108575840D01*
X160635675Y-108546045D01*
X160635674Y-108546044D01*
X160631253Y-108541134D01*
X160476752Y-108428882D01*
X160470724Y-108426198D01*
X160470722Y-108426197D01*
X160308319Y-108353891D01*
X160308318Y-108353891D01*
X160302288Y-108351206D01*
X160208888Y-108331353D01*
X160121944Y-108312872D01*
X160121939Y-108312872D01*
X160115487Y-108311500D01*
X159924513Y-108311500D01*
X159918061Y-108312872D01*
X159918056Y-108312872D01*
X159831112Y-108331353D01*
X159737712Y-108351206D01*
X159731682Y-108353891D01*
X159731681Y-108353891D01*
X159569278Y-108426197D01*
X159569276Y-108426198D01*
X159563248Y-108428882D01*
X159408747Y-108541134D01*
X159404326Y-108546044D01*
X159404325Y-108546045D01*
X159377498Y-108575840D01*
X159280960Y-108683056D01*
X159185473Y-108848444D01*
X159126458Y-109030072D01*
X159106496Y-109220000D01*
X159107186Y-109226565D01*
X159125594Y-109401703D01*
X159126458Y-109409928D01*
X159185473Y-109591556D01*
X159188776Y-109597278D01*
X159188777Y-109597279D01*
X159229319Y-109667500D01*
X159246057Y-109736496D01*
X159222836Y-109803587D01*
X159167029Y-109847474D01*
X159120200Y-109856500D01*
X157486805Y-109856500D01*
X157418684Y-109836498D01*
X157381013Y-109798940D01*
X157292822Y-109662617D01*
X157292820Y-109662614D01*
X157290014Y-109658277D01*
X157139670Y-109493051D01*
X157135619Y-109489852D01*
X157135615Y-109489848D01*
X156968414Y-109357800D01*
X156968410Y-109357798D01*
X156964359Y-109354598D01*
X156768789Y-109246638D01*
X156763920Y-109244914D01*
X156763916Y-109244912D01*
X156563087Y-109173795D01*
X156563083Y-109173794D01*
X156558212Y-109172069D01*
X156553119Y-109171162D01*
X156553116Y-109171161D01*
X156343373Y-109133800D01*
X156343367Y-109133799D01*
X156338284Y-109132894D01*
X156264452Y-109131992D01*
X156120081Y-109130228D01*
X156120079Y-109130228D01*
X156114911Y-109130165D01*
X155894091Y-109163955D01*
X155681756Y-109233357D01*
X155651443Y-109249137D01*
X155579497Y-109286590D01*
X155483607Y-109336507D01*
X155479474Y-109339610D01*
X155479471Y-109339612D01*
X155327123Y-109453998D01*
X155304965Y-109470635D01*
X155299001Y-109476876D01*
X155193729Y-109587037D01*
X155150629Y-109632138D01*
X155043201Y-109789621D01*
X154988293Y-109834621D01*
X154917768Y-109842792D01*
X154854021Y-109811538D01*
X154833324Y-109787054D01*
X154752822Y-109662617D01*
X154752820Y-109662614D01*
X154750014Y-109658277D01*
X154599670Y-109493051D01*
X154595619Y-109489852D01*
X154595615Y-109489848D01*
X154428414Y-109357800D01*
X154428410Y-109357798D01*
X154424359Y-109354598D01*
X154228789Y-109246638D01*
X154223920Y-109244914D01*
X154223916Y-109244912D01*
X154023087Y-109173795D01*
X154023083Y-109173794D01*
X154018212Y-109172069D01*
X154013119Y-109171162D01*
X154013116Y-109171161D01*
X153803373Y-109133800D01*
X153803367Y-109133799D01*
X153798284Y-109132894D01*
X153724452Y-109131992D01*
X153580081Y-109130228D01*
X153580079Y-109130228D01*
X153574911Y-109130165D01*
X153354091Y-109163955D01*
X153141756Y-109233357D01*
X153111443Y-109249137D01*
X153039497Y-109286590D01*
X152943607Y-109336507D01*
X152939474Y-109339610D01*
X152939471Y-109339612D01*
X152787123Y-109453998D01*
X152764965Y-109470635D01*
X152708537Y-109529684D01*
X152684283Y-109555064D01*
X152622759Y-109590494D01*
X152551846Y-109587037D01*
X152494060Y-109545791D01*
X152475207Y-109512243D01*
X152433767Y-109401703D01*
X152430615Y-109393295D01*
X152343261Y-109276739D01*
X152226705Y-109189385D01*
X152090316Y-109138255D01*
X152028134Y-109131500D01*
X150231866Y-109131500D01*
X150169684Y-109138255D01*
X150033295Y-109189385D01*
X149916739Y-109276739D01*
X149829385Y-109393295D01*
X149778255Y-109529684D01*
X149771500Y-109591866D01*
X149771500Y-111388134D01*
X149778255Y-111450316D01*
X149829385Y-111586705D01*
X149883499Y-111658909D01*
X149902630Y-111684435D01*
X149927478Y-111750941D01*
X149912425Y-111820324D01*
X149902632Y-111835562D01*
X149829385Y-111933295D01*
X149778255Y-112069684D01*
X149771500Y-112131866D01*
X149771500Y-113928134D01*
X149778255Y-113990316D01*
X149829385Y-114126705D01*
X149916739Y-114243261D01*
X150033295Y-114330615D01*
X150169684Y-114381745D01*
X150231866Y-114388500D01*
X151540406Y-114388500D01*
X151608527Y-114408502D01*
X151629501Y-114425405D01*
X151801344Y-114597248D01*
X151808888Y-114605538D01*
X151813001Y-114612019D01*
X151818778Y-114617444D01*
X151862668Y-114658659D01*
X151865510Y-114661414D01*
X151885231Y-114681135D01*
X151888426Y-114683613D01*
X151897448Y-114691319D01*
X151929680Y-114721587D01*
X151936629Y-114725407D01*
X151947433Y-114731347D01*
X151963957Y-114742200D01*
X151979960Y-114754614D01*
X152020544Y-114772177D01*
X152031174Y-114777384D01*
X152069941Y-114798696D01*
X152077618Y-114800667D01*
X152077623Y-114800669D01*
X152089559Y-114803733D01*
X152108267Y-114810138D01*
X152126856Y-114818182D01*
X152134681Y-114819421D01*
X152134683Y-114819422D01*
X152170520Y-114825098D01*
X152182141Y-114827505D01*
X152217290Y-114836529D01*
X152224971Y-114838501D01*
X152245232Y-114838501D01*
X152264941Y-114840052D01*
X152284944Y-114843220D01*
X152292836Y-114842474D01*
X152298063Y-114841980D01*
X152328955Y-114839060D01*
X152340812Y-114838501D01*
X159175877Y-114838501D01*
X159243998Y-114858503D01*
X159290491Y-114912159D01*
X159300595Y-114982433D01*
X159280221Y-115032630D01*
X159280960Y-115033056D01*
X159185473Y-115198444D01*
X159126458Y-115380072D01*
X159125768Y-115386633D01*
X159125768Y-115386635D01*
X159110770Y-115529338D01*
X159106496Y-115570000D01*
X159107186Y-115576565D01*
X159121024Y-115708222D01*
X159126458Y-115759928D01*
X159185473Y-115941556D01*
X159188776Y-115947278D01*
X159188777Y-115947279D01*
X159212582Y-115988510D01*
X159280960Y-116106944D01*
X159285375Y-116111847D01*
X159285379Y-116111852D01*
X159310783Y-116140066D01*
X159408747Y-116248866D01*
X159466909Y-116291123D01*
X159510262Y-116347344D01*
X159516338Y-116418080D01*
X159481942Y-116482153D01*
X157786877Y-118177218D01*
X157724565Y-118211244D01*
X157653750Y-118206179D01*
X157596914Y-118163632D01*
X157572206Y-118098447D01*
X157565008Y-118010896D01*
X157554852Y-117887361D01*
X157500431Y-117670702D01*
X157411354Y-117465840D01*
X157353821Y-117376908D01*
X157292822Y-117282617D01*
X157292820Y-117282614D01*
X157290014Y-117278277D01*
X157139670Y-117113051D01*
X157135619Y-117109852D01*
X157135615Y-117109848D01*
X156968414Y-116977800D01*
X156968410Y-116977798D01*
X156964359Y-116974598D01*
X156768789Y-116866638D01*
X156763920Y-116864914D01*
X156763916Y-116864912D01*
X156563087Y-116793795D01*
X156563083Y-116793794D01*
X156558212Y-116792069D01*
X156553119Y-116791162D01*
X156553116Y-116791161D01*
X156343373Y-116753800D01*
X156343367Y-116753799D01*
X156338284Y-116752894D01*
X156264452Y-116751992D01*
X156120081Y-116750228D01*
X156120079Y-116750228D01*
X156114911Y-116750165D01*
X155894091Y-116783955D01*
X155681756Y-116853357D01*
X155651443Y-116869137D01*
X155579497Y-116906590D01*
X155483607Y-116956507D01*
X155479474Y-116959610D01*
X155479471Y-116959612D01*
X155327123Y-117073998D01*
X155304965Y-117090635D01*
X155299001Y-117096876D01*
X155193729Y-117207037D01*
X155150629Y-117252138D01*
X155043201Y-117409621D01*
X154988293Y-117454621D01*
X154917768Y-117462792D01*
X154854021Y-117431538D01*
X154833324Y-117407054D01*
X154752822Y-117282617D01*
X154752820Y-117282614D01*
X154750014Y-117278277D01*
X154599670Y-117113051D01*
X154595619Y-117109852D01*
X154595615Y-117109848D01*
X154428414Y-116977800D01*
X154428410Y-116977798D01*
X154424359Y-116974598D01*
X154228789Y-116866638D01*
X154223920Y-116864914D01*
X154223916Y-116864912D01*
X154023087Y-116793795D01*
X154023083Y-116793794D01*
X154018212Y-116792069D01*
X154013119Y-116791162D01*
X154013116Y-116791161D01*
X153803373Y-116753800D01*
X153803367Y-116753799D01*
X153798284Y-116752894D01*
X153724452Y-116751992D01*
X153580081Y-116750228D01*
X153580079Y-116750228D01*
X153574911Y-116750165D01*
X153354091Y-116783955D01*
X153141756Y-116853357D01*
X153111443Y-116869137D01*
X153039497Y-116906590D01*
X152943607Y-116956507D01*
X152939474Y-116959610D01*
X152939471Y-116959612D01*
X152787123Y-117073998D01*
X152764965Y-117090635D01*
X152708537Y-117149684D01*
X152684283Y-117175064D01*
X152622759Y-117210494D01*
X152551846Y-117207037D01*
X152494060Y-117165791D01*
X152475207Y-117132243D01*
X152433767Y-117021703D01*
X152430615Y-117013295D01*
X152343261Y-116896739D01*
X152226705Y-116809385D01*
X152090316Y-116758255D01*
X152028134Y-116751500D01*
X150231866Y-116751500D01*
X150169684Y-116758255D01*
X150033295Y-116809385D01*
X149916739Y-116896739D01*
X149829385Y-117013295D01*
X149778255Y-117149684D01*
X149771500Y-117211866D01*
X149771500Y-119008134D01*
X149778255Y-119070316D01*
X149829385Y-119206705D01*
X149880615Y-119275061D01*
X149902630Y-119304435D01*
X149927478Y-119370941D01*
X149912425Y-119440324D01*
X149902632Y-119455562D01*
X149829385Y-119553295D01*
X149778255Y-119689684D01*
X149771500Y-119751866D01*
X149771500Y-121548134D01*
X135927369Y-121548134D01*
X135910431Y-121480702D01*
X135821354Y-121275840D01*
X135765855Y-121190052D01*
X135702822Y-121092617D01*
X135702820Y-121092614D01*
X135700014Y-121088277D01*
X135549670Y-120923051D01*
X135545619Y-120919852D01*
X135545615Y-120919848D01*
X135378414Y-120787800D01*
X135378410Y-120787798D01*
X135374359Y-120784598D01*
X135333053Y-120761796D01*
X135283084Y-120711364D01*
X135268312Y-120641921D01*
X135293428Y-120575516D01*
X135320780Y-120548909D01*
X135364603Y-120517650D01*
X135499860Y-120421173D01*
X135658096Y-120263489D01*
X135788453Y-120082077D01*
X135790746Y-120077437D01*
X135792446Y-120074608D01*
X135844674Y-120026518D01*
X135900451Y-120013500D01*
X137081233Y-120013500D01*
X137092416Y-120014027D01*
X137099909Y-120015702D01*
X137107835Y-120015453D01*
X137107836Y-120015453D01*
X137167986Y-120013562D01*
X137171945Y-120013500D01*
X137199856Y-120013500D01*
X137203791Y-120013003D01*
X137203856Y-120012995D01*
X137215693Y-120012062D01*
X137247951Y-120011048D01*
X137251970Y-120010922D01*
X137259889Y-120010673D01*
X137279343Y-120005021D01*
X137298700Y-120001013D01*
X137310930Y-119999468D01*
X137310931Y-119999468D01*
X137318797Y-119998474D01*
X137326168Y-119995555D01*
X137326170Y-119995555D01*
X137359912Y-119982196D01*
X137371142Y-119978351D01*
X137405983Y-119968229D01*
X137405984Y-119968229D01*
X137413593Y-119966018D01*
X137420412Y-119961985D01*
X137420417Y-119961983D01*
X137431028Y-119955707D01*
X137448776Y-119947012D01*
X137467617Y-119939552D01*
X137492463Y-119921501D01*
X137503387Y-119913564D01*
X137513307Y-119907048D01*
X137544535Y-119888580D01*
X137544538Y-119888578D01*
X137551362Y-119884542D01*
X137565683Y-119870221D01*
X137580717Y-119857380D01*
X137590694Y-119850131D01*
X137597107Y-119845472D01*
X137625298Y-119811395D01*
X137633288Y-119802616D01*
X144730499Y-112705405D01*
X144792811Y-112671379D01*
X144819594Y-112668500D01*
X144875487Y-112668500D01*
X144881939Y-112667128D01*
X144881944Y-112667128D01*
X144977520Y-112646812D01*
X145062288Y-112628794D01*
X145101163Y-112611486D01*
X145230722Y-112553803D01*
X145230724Y-112553802D01*
X145236752Y-112551118D01*
X145250120Y-112541406D01*
X145365691Y-112457438D01*
X145391253Y-112438866D01*
X145395675Y-112433955D01*
X145514621Y-112301852D01*
X145514622Y-112301851D01*
X145519040Y-112296944D01*
X145591097Y-112172138D01*
X145611223Y-112137279D01*
X145611224Y-112137278D01*
X145614527Y-112131556D01*
X145673542Y-111949928D01*
X145674407Y-111941703D01*
X145692814Y-111766565D01*
X145693504Y-111760000D01*
X145677037Y-111603327D01*
X145674232Y-111576635D01*
X145674232Y-111576633D01*
X145673542Y-111570072D01*
X145614527Y-111388444D01*
X145519040Y-111223056D01*
X145495722Y-111197158D01*
X145395675Y-111086045D01*
X145395674Y-111086044D01*
X145391253Y-111081134D01*
X145268311Y-110991811D01*
X145242094Y-110972763D01*
X145242093Y-110972762D01*
X145236752Y-110968882D01*
X145230724Y-110966198D01*
X145230722Y-110966197D01*
X145068319Y-110893891D01*
X145068318Y-110893891D01*
X145062288Y-110891206D01*
X144968887Y-110871353D01*
X144881944Y-110852872D01*
X144881939Y-110852872D01*
X144875487Y-110851500D01*
X144684513Y-110851500D01*
X144678061Y-110852872D01*
X144678056Y-110852872D01*
X144591113Y-110871353D01*
X144497712Y-110891206D01*
X144491682Y-110893891D01*
X144491681Y-110893891D01*
X144329278Y-110966197D01*
X144329276Y-110966198D01*
X144323248Y-110968882D01*
X144317907Y-110972762D01*
X144317906Y-110972763D01*
X144291689Y-110991811D01*
X144168747Y-111081134D01*
X144164326Y-111086044D01*
X144164325Y-111086045D01*
X144064279Y-111197158D01*
X144040960Y-111223056D01*
X143945473Y-111388444D01*
X143886458Y-111570072D01*
X143885768Y-111576633D01*
X143885768Y-111576635D01*
X143882963Y-111603327D01*
X143869997Y-111726695D01*
X143869093Y-111735292D01*
X143842080Y-111800949D01*
X143832878Y-111811217D01*
X139243511Y-116400584D01*
X139220147Y-116413342D01*
X139214322Y-116428304D01*
X139203637Y-116440458D01*
X136934500Y-118709595D01*
X136872188Y-118743621D01*
X136845405Y-118746500D01*
X135896805Y-118746500D01*
X135828684Y-118726498D01*
X135791013Y-118688940D01*
X135702822Y-118552617D01*
X135702820Y-118552614D01*
X135700014Y-118548277D01*
X135549670Y-118383051D01*
X135545619Y-118379852D01*
X135545615Y-118379848D01*
X135378414Y-118247800D01*
X135378410Y-118247798D01*
X135374359Y-118244598D01*
X135333053Y-118221796D01*
X135283084Y-118171364D01*
X135268312Y-118101921D01*
X135293428Y-118035516D01*
X135320780Y-118008909D01*
X135364603Y-117977650D01*
X135499860Y-117881173D01*
X135658096Y-117723489D01*
X135788453Y-117542077D01*
X135792152Y-117534594D01*
X135885136Y-117346453D01*
X135885137Y-117346451D01*
X135887430Y-117341811D01*
X135952370Y-117128069D01*
X135981529Y-116906590D01*
X135982505Y-116866638D01*
X135983074Y-116843365D01*
X135983074Y-116843361D01*
X135983156Y-116840000D01*
X135964852Y-116617361D01*
X135910431Y-116400702D01*
X135821354Y-116195840D01*
X135767020Y-116111852D01*
X135702822Y-116012617D01*
X135702820Y-116012614D01*
X135700014Y-116008277D01*
X135549670Y-115843051D01*
X135545619Y-115839852D01*
X135545615Y-115839848D01*
X135378414Y-115707800D01*
X135378410Y-115707798D01*
X135374359Y-115704598D01*
X135333053Y-115681796D01*
X135283084Y-115631364D01*
X135268312Y-115561921D01*
X135293428Y-115495516D01*
X135320780Y-115468909D01*
X135364603Y-115437650D01*
X135499860Y-115341173D01*
X135658096Y-115183489D01*
X135788453Y-115002077D01*
X135801995Y-114974678D01*
X135885136Y-114806453D01*
X135885137Y-114806451D01*
X135887430Y-114801811D01*
X135943445Y-114617444D01*
X135950865Y-114593023D01*
X135950865Y-114593021D01*
X135952370Y-114588069D01*
X135981529Y-114366590D01*
X135982676Y-114319654D01*
X136004336Y-114252042D01*
X136059111Y-114206874D01*
X136129611Y-114198490D01*
X136197733Y-114233637D01*
X137482878Y-115518782D01*
X137516904Y-115581094D01*
X137519092Y-115594703D01*
X137519296Y-115596638D01*
X137531024Y-115708222D01*
X137536458Y-115759928D01*
X137595473Y-115941556D01*
X137598776Y-115947278D01*
X137598777Y-115947279D01*
X137622582Y-115988510D01*
X137690960Y-116106944D01*
X137695375Y-116111847D01*
X137695379Y-116111852D01*
X137720783Y-116140066D01*
X137818747Y-116248866D01*
X137973248Y-116361118D01*
X137979276Y-116363802D01*
X137979278Y-116363803D01*
X138101187Y-116418080D01*
X138147712Y-116438794D01*
X138241113Y-116458647D01*
X138328056Y-116477128D01*
X138328061Y-116477128D01*
X138334513Y-116478500D01*
X138525487Y-116478500D01*
X138531939Y-116477128D01*
X138531944Y-116477128D01*
X138618887Y-116458647D01*
X138712288Y-116438794D01*
X138758813Y-116418080D01*
X138880722Y-116363803D01*
X138880724Y-116363802D01*
X138886752Y-116361118D01*
X138985586Y-116289311D01*
X139040481Y-116249427D01*
X139046551Y-116247261D01*
X139060780Y-116227179D01*
X139164621Y-116111852D01*
X139164625Y-116111847D01*
X139169040Y-116106944D01*
X139237418Y-115988510D01*
X139261223Y-115947279D01*
X139261224Y-115947278D01*
X139264527Y-115941556D01*
X139323542Y-115759928D01*
X139328977Y-115708222D01*
X139342814Y-115576565D01*
X139343504Y-115570000D01*
X139339230Y-115529338D01*
X139324232Y-115386635D01*
X139324232Y-115386633D01*
X139323542Y-115380072D01*
X139264527Y-115198444D01*
X139169040Y-115033056D01*
X139141147Y-115002077D01*
X139045675Y-114896045D01*
X139045674Y-114896044D01*
X139041253Y-114891134D01*
X138914024Y-114798696D01*
X138892094Y-114782763D01*
X138892093Y-114782762D01*
X138886752Y-114778882D01*
X138880724Y-114776198D01*
X138880722Y-114776197D01*
X138718319Y-114703891D01*
X138718318Y-114703891D01*
X138712288Y-114701206D01*
X138604680Y-114678333D01*
X138531944Y-114662872D01*
X138531939Y-114662872D01*
X138525487Y-114661500D01*
X138469594Y-114661500D01*
X138401473Y-114641498D01*
X138380499Y-114624595D01*
X135971218Y-112215313D01*
X135937192Y-112153001D01*
X135939755Y-112089589D01*
X135950865Y-112053022D01*
X135952370Y-112048069D01*
X135981529Y-111826590D01*
X135981905Y-111811217D01*
X135983074Y-111763365D01*
X135983074Y-111763361D01*
X135983156Y-111760000D01*
X135964852Y-111537361D01*
X135910431Y-111320702D01*
X135821354Y-111115840D01*
X135731974Y-110977680D01*
X135702822Y-110932617D01*
X135702820Y-110932614D01*
X135700014Y-110928277D01*
X135549670Y-110763051D01*
X135545619Y-110759852D01*
X135545615Y-110759848D01*
X135378414Y-110627800D01*
X135378410Y-110627798D01*
X135374359Y-110624598D01*
X135333053Y-110601796D01*
X135283084Y-110551364D01*
X135268312Y-110481921D01*
X135293428Y-110415516D01*
X135320780Y-110388909D01*
X135364603Y-110357650D01*
X135499860Y-110261173D01*
X135547280Y-110213919D01*
X135581209Y-110180107D01*
X135658096Y-110103489D01*
X135674406Y-110080792D01*
X135785435Y-109926277D01*
X135788453Y-109922077D01*
X135801995Y-109894678D01*
X135885136Y-109726453D01*
X135885137Y-109726451D01*
X135887430Y-109721811D01*
X135952370Y-109508069D01*
X135981529Y-109286590D01*
X135982505Y-109246638D01*
X135983074Y-109223365D01*
X135983074Y-109223361D01*
X135983156Y-109220000D01*
X135964852Y-108997361D01*
X135910431Y-108780702D01*
X135821354Y-108575840D01*
X135781906Y-108514862D01*
X135702822Y-108392617D01*
X135702820Y-108392614D01*
X135700014Y-108388277D01*
X135549670Y-108223051D01*
X135545619Y-108219852D01*
X135545615Y-108219848D01*
X135378414Y-108087800D01*
X135378410Y-108087798D01*
X135374359Y-108084598D01*
X135333053Y-108061796D01*
X135283084Y-108011364D01*
X135268312Y-107941921D01*
X135293428Y-107875516D01*
X135320780Y-107848909D01*
X135364603Y-107817650D01*
X135499860Y-107721173D01*
X135658096Y-107563489D01*
X135788453Y-107382077D01*
X135801995Y-107354678D01*
X135885136Y-107186453D01*
X135885137Y-107186451D01*
X135887430Y-107181811D01*
X135952370Y-106968069D01*
X135981529Y-106746590D01*
X135983156Y-106680000D01*
X135964852Y-106457361D01*
X135954006Y-106414183D01*
X165034389Y-106414183D01*
X165035912Y-106422607D01*
X165048292Y-106426000D01*
X166097885Y-106426000D01*
X166113124Y-106421525D01*
X166114329Y-106420135D01*
X166116000Y-106412452D01*
X166116000Y-104412115D01*
X166111525Y-104396876D01*
X166110135Y-104395671D01*
X166102452Y-104394000D01*
X165053225Y-104394000D01*
X165039694Y-104397973D01*
X165038257Y-104407966D01*
X165068565Y-104542446D01*
X165071645Y-104552275D01*
X165151770Y-104749603D01*
X165156413Y-104758794D01*
X165267694Y-104940388D01*
X165273777Y-104948699D01*
X165413213Y-105109667D01*
X165420580Y-105116883D01*
X165584434Y-105252916D01*
X165592881Y-105258831D01*
X165662479Y-105299501D01*
X165711203Y-105351140D01*
X165724274Y-105420923D01*
X165697543Y-105486694D01*
X165657087Y-105520053D01*
X165648462Y-105524542D01*
X165639738Y-105530036D01*
X165469433Y-105657905D01*
X165461726Y-105664748D01*
X165314590Y-105818717D01*
X165308104Y-105826727D01*
X165188098Y-106002649D01*
X165183000Y-106011623D01*
X165093338Y-106204783D01*
X165089775Y-106214470D01*
X165034389Y-106414183D01*
X135954006Y-106414183D01*
X135910431Y-106240702D01*
X135821354Y-106035840D01*
X135781906Y-105974862D01*
X135702822Y-105852617D01*
X135702820Y-105852614D01*
X135700014Y-105848277D01*
X135549670Y-105683051D01*
X135545619Y-105679852D01*
X135545615Y-105679848D01*
X135378414Y-105547800D01*
X135378410Y-105547798D01*
X135374359Y-105544598D01*
X135333053Y-105521796D01*
X135283084Y-105471364D01*
X135268312Y-105401921D01*
X135293428Y-105335516D01*
X135320780Y-105308909D01*
X135364603Y-105277650D01*
X135499860Y-105181173D01*
X135658096Y-105023489D01*
X135680161Y-104992783D01*
X135785435Y-104846277D01*
X135788453Y-104842077D01*
X135797278Y-104824222D01*
X135885136Y-104646453D01*
X135885137Y-104646451D01*
X135887430Y-104641811D01*
X135952370Y-104428069D01*
X135981529Y-104206590D01*
X135983156Y-104140000D01*
X135964852Y-103917361D01*
X135910431Y-103700702D01*
X135821354Y-103495840D01*
X135700014Y-103308277D01*
X135549670Y-103143051D01*
X135545619Y-103139852D01*
X135545615Y-103139848D01*
X135378414Y-103007800D01*
X135378410Y-103007798D01*
X135374359Y-103004598D01*
X135333053Y-102981796D01*
X135283084Y-102931364D01*
X135280114Y-102917404D01*
X143786941Y-102917404D01*
X143787304Y-102921552D01*
X143787304Y-102921556D01*
X143798851Y-103053536D01*
X143813091Y-103216292D01*
X143814001Y-103220364D01*
X143814002Y-103220369D01*
X143874605Y-103491492D01*
X143878540Y-103509095D01*
X143982140Y-103790671D01*
X143984084Y-103794359D01*
X143984088Y-103794367D01*
X144080805Y-103977807D01*
X144122069Y-104056071D01*
X144295871Y-104300633D01*
X144500490Y-104520061D01*
X144732333Y-104710498D01*
X144987325Y-104868600D01*
X145260988Y-104991589D01*
X145435368Y-105043574D01*
X145544514Y-105076112D01*
X145544516Y-105076112D01*
X145548513Y-105077304D01*
X145552633Y-105077957D01*
X145552635Y-105077957D01*
X145671509Y-105096785D01*
X145844848Y-105124239D01*
X145887577Y-105126179D01*
X145937262Y-105128436D01*
X145937281Y-105128436D01*
X145938681Y-105128500D01*
X146126107Y-105128500D01*
X146349370Y-105113671D01*
X146353464Y-105112846D01*
X146353468Y-105112845D01*
X146494513Y-105084405D01*
X146643480Y-105054368D01*
X146927163Y-104956688D01*
X146930896Y-104954819D01*
X146930900Y-104954817D01*
X147191691Y-104824222D01*
X147191693Y-104824221D01*
X147195435Y-104822347D01*
X147443584Y-104653706D01*
X147667248Y-104453726D01*
X147706469Y-104407966D01*
X147859779Y-104229097D01*
X147859782Y-104229093D01*
X147862499Y-104225923D01*
X147864773Y-104222421D01*
X147864777Y-104222416D01*
X148023628Y-103977807D01*
X148023631Y-103977802D01*
X148025907Y-103974297D01*
X148067834Y-103886000D01*
X148152804Y-103707052D01*
X148154600Y-103703270D01*
X148232069Y-103461986D01*
X148245038Y-103421591D01*
X148245038Y-103421590D01*
X148246318Y-103417604D01*
X148295030Y-103146870D01*
X148298709Y-103126425D01*
X148298710Y-103126420D01*
X148299448Y-103122316D01*
X148299666Y-103117530D01*
X148312870Y-102826766D01*
X148312870Y-102826760D01*
X148313059Y-102822596D01*
X148312055Y-102811114D01*
X148291742Y-102578952D01*
X148286909Y-102523708D01*
X148280418Y-102494669D01*
X165012001Y-102494669D01*
X165012371Y-102501490D01*
X165017895Y-102552352D01*
X165021521Y-102567604D01*
X165066676Y-102688054D01*
X165075214Y-102703649D01*
X165151715Y-102805724D01*
X165164276Y-102818285D01*
X165266351Y-102894786D01*
X165281946Y-102903324D01*
X165391337Y-102944333D01*
X165448101Y-102986975D01*
X165472801Y-103053536D01*
X165457594Y-103122885D01*
X165438201Y-103149366D01*
X165314590Y-103278717D01*
X165308104Y-103286727D01*
X165188098Y-103462649D01*
X165183000Y-103471623D01*
X165093338Y-103664783D01*
X165089775Y-103674470D01*
X165034389Y-103874183D01*
X165035912Y-103882607D01*
X165048292Y-103886000D01*
X166097885Y-103886000D01*
X166113124Y-103881525D01*
X166114329Y-103880135D01*
X166116000Y-103872452D01*
X166116000Y-101872115D01*
X166111525Y-101856876D01*
X166110135Y-101855671D01*
X166102452Y-101854000D01*
X165030116Y-101854000D01*
X165014877Y-101858475D01*
X165013672Y-101859865D01*
X165012001Y-101867548D01*
X165012001Y-102494669D01*
X148280418Y-102494669D01*
X148278735Y-102487137D01*
X148222372Y-102234984D01*
X148222371Y-102234981D01*
X148221460Y-102230905D01*
X148117860Y-101949329D01*
X148115916Y-101945641D01*
X148115912Y-101945633D01*
X147979884Y-101687633D01*
X147979883Y-101687632D01*
X147977931Y-101683929D01*
X147804129Y-101439367D01*
X147700171Y-101327885D01*
X165012000Y-101327885D01*
X165016475Y-101343124D01*
X165017865Y-101344329D01*
X165025548Y-101346000D01*
X166097885Y-101346000D01*
X166113124Y-101341525D01*
X166114329Y-101340135D01*
X166116000Y-101332452D01*
X166116000Y-100260116D01*
X166111525Y-100244877D01*
X166110135Y-100243672D01*
X166102452Y-100242001D01*
X165475331Y-100242001D01*
X165468510Y-100242371D01*
X165417648Y-100247895D01*
X165402396Y-100251521D01*
X165281946Y-100296676D01*
X165266351Y-100305214D01*
X165164276Y-100381715D01*
X165151715Y-100394276D01*
X165075214Y-100496351D01*
X165066676Y-100511946D01*
X165021522Y-100632394D01*
X165017895Y-100647649D01*
X165012369Y-100698514D01*
X165012000Y-100705328D01*
X165012000Y-101327885D01*
X147700171Y-101327885D01*
X147599510Y-101219939D01*
X147367667Y-101029502D01*
X147112675Y-100871400D01*
X146839012Y-100748411D01*
X146625650Y-100684805D01*
X146555486Y-100663888D01*
X146555484Y-100663888D01*
X146551487Y-100662696D01*
X146547367Y-100662043D01*
X146547365Y-100662043D01*
X146360168Y-100632394D01*
X146255152Y-100615761D01*
X146212423Y-100613821D01*
X146162738Y-100611564D01*
X146162719Y-100611564D01*
X146161319Y-100611500D01*
X145973893Y-100611500D01*
X145750630Y-100626329D01*
X145746536Y-100627154D01*
X145746532Y-100627155D01*
X145605487Y-100655595D01*
X145456520Y-100685632D01*
X145172837Y-100783312D01*
X145169104Y-100785181D01*
X145169100Y-100785183D01*
X144908309Y-100915778D01*
X144904565Y-100917653D01*
X144656416Y-101086294D01*
X144432752Y-101286274D01*
X144430035Y-101289444D01*
X144430034Y-101289445D01*
X144304155Y-101436311D01*
X144237501Y-101514077D01*
X144235227Y-101517579D01*
X144235223Y-101517584D01*
X144076372Y-101762193D01*
X144074093Y-101765703D01*
X144072299Y-101769482D01*
X144072298Y-101769483D01*
X144031373Y-101855671D01*
X143945400Y-102036730D01*
X143944121Y-102040713D01*
X143944120Y-102040716D01*
X143884317Y-102226980D01*
X143853682Y-102322396D01*
X143852941Y-102326515D01*
X143809563Y-102567604D01*
X143800552Y-102617684D01*
X143800363Y-102621851D01*
X143800362Y-102621858D01*
X143788487Y-102883357D01*
X143786941Y-102917404D01*
X135280114Y-102917404D01*
X135268312Y-102861921D01*
X135293428Y-102795516D01*
X135320780Y-102768909D01*
X135364603Y-102737650D01*
X135499860Y-102641173D01*
X135658096Y-102483489D01*
X135788453Y-102302077D01*
X135887430Y-102101811D01*
X135952370Y-101888069D01*
X135981529Y-101666590D01*
X135983156Y-101600000D01*
X135964852Y-101377361D01*
X135910431Y-101160702D01*
X135821354Y-100955840D01*
X135700014Y-100768277D01*
X135549670Y-100603051D01*
X135545619Y-100599852D01*
X135545615Y-100599848D01*
X135378414Y-100467800D01*
X135378410Y-100467798D01*
X135374359Y-100464598D01*
X135178789Y-100356638D01*
X135173920Y-100354914D01*
X135173916Y-100354912D01*
X134973087Y-100283795D01*
X134973083Y-100283794D01*
X134968212Y-100282069D01*
X134963119Y-100281162D01*
X134963116Y-100281161D01*
X134753373Y-100243800D01*
X134753367Y-100243799D01*
X134748284Y-100242894D01*
X134674452Y-100241992D01*
X134530081Y-100240228D01*
X134530079Y-100240228D01*
X134524911Y-100240165D01*
X134304091Y-100273955D01*
X134091756Y-100343357D01*
X133893607Y-100446507D01*
X133889474Y-100449610D01*
X133889471Y-100449612D01*
X133806450Y-100511946D01*
X133714965Y-100580635D01*
X133711393Y-100584373D01*
X133633898Y-100665466D01*
X133572374Y-100700895D01*
X133501462Y-100697438D01*
X133443676Y-100656192D01*
X133424823Y-100622644D01*
X133383324Y-100511946D01*
X133374786Y-100496351D01*
X133298285Y-100394276D01*
X133285724Y-100381715D01*
X133183649Y-100305214D01*
X133168054Y-100296676D01*
X133047606Y-100251522D01*
X133032351Y-100247895D01*
X132981486Y-100242369D01*
X132974672Y-100242000D01*
X132352115Y-100242000D01*
X132336876Y-100246475D01*
X132335671Y-100247865D01*
X132334000Y-100255548D01*
X132334000Y-143558517D01*
X131826000Y-143558517D01*
X131826000Y-142512115D01*
X131821525Y-142496876D01*
X131820135Y-142495671D01*
X131812452Y-142494000D01*
X130763225Y-142494000D01*
X130749694Y-142497973D01*
X130748257Y-142507966D01*
X125156782Y-142507966D01*
X125153525Y-142496876D01*
X125152135Y-142495671D01*
X125144452Y-142494000D01*
X124586000Y-142494000D01*
X124517879Y-142473998D01*
X124471386Y-142420342D01*
X124460000Y-142368000D01*
X124460000Y-142112000D01*
X124480002Y-142043879D01*
X124533658Y-141997386D01*
X124586000Y-141986000D01*
X125139884Y-141986000D01*
X125155123Y-141981525D01*
X125156328Y-141980135D01*
X125157623Y-141974183D01*
X130744389Y-141974183D01*
X130745912Y-141982607D01*
X130758292Y-141986000D01*
X131807885Y-141986000D01*
X131823124Y-141981525D01*
X131824329Y-141980135D01*
X131826000Y-141972452D01*
X131826000Y-139972115D01*
X131821525Y-139956876D01*
X131820135Y-139955671D01*
X131812452Y-139954000D01*
X130763225Y-139954000D01*
X130749694Y-139957973D01*
X130748257Y-139967966D01*
X130778565Y-140102446D01*
X130781645Y-140112275D01*
X130861770Y-140309603D01*
X130866413Y-140318794D01*
X130977694Y-140500388D01*
X130983777Y-140508699D01*
X131123213Y-140669667D01*
X131130580Y-140676883D01*
X131294434Y-140812916D01*
X131302881Y-140818831D01*
X131372479Y-140859501D01*
X131421203Y-140911140D01*
X131434274Y-140980923D01*
X131407543Y-141046694D01*
X131367087Y-141080053D01*
X131358462Y-141084542D01*
X131349738Y-141090036D01*
X131179433Y-141217905D01*
X131171726Y-141224748D01*
X131024590Y-141378717D01*
X131018104Y-141386727D01*
X130898098Y-141562649D01*
X130893000Y-141571623D01*
X130803338Y-141764783D01*
X130799775Y-141774470D01*
X130744389Y-141974183D01*
X125157623Y-141974183D01*
X125157999Y-141972452D01*
X125157999Y-141395331D01*
X125157629Y-141388510D01*
X125152105Y-141337648D01*
X125148479Y-141322396D01*
X125103324Y-141201946D01*
X125094786Y-141186351D01*
X125018285Y-141084276D01*
X125005723Y-141071714D01*
X125004538Y-141070826D01*
X125003658Y-141069649D01*
X124999374Y-141065365D01*
X124999992Y-141064747D01*
X124962023Y-141013967D01*
X124956997Y-140943148D01*
X124991057Y-140880855D01*
X125004538Y-140869174D01*
X125005723Y-140868286D01*
X125018285Y-140855724D01*
X125094786Y-140753649D01*
X125103324Y-140738054D01*
X125148478Y-140617606D01*
X125152105Y-140602351D01*
X125157631Y-140551486D01*
X125158000Y-140544672D01*
X125158000Y-139972115D01*
X125153525Y-139956876D01*
X125152135Y-139955671D01*
X125144452Y-139954000D01*
X124586000Y-139954000D01*
X124517879Y-139933998D01*
X124471386Y-139880342D01*
X124460000Y-139828000D01*
X124460000Y-139572000D01*
X124480002Y-139503879D01*
X124533658Y-139457386D01*
X124586000Y-139446000D01*
X125139884Y-139446000D01*
X125155123Y-139441525D01*
X125156328Y-139440135D01*
X125157623Y-139434183D01*
X130744389Y-139434183D01*
X130745912Y-139442607D01*
X130758292Y-139446000D01*
X131807885Y-139446000D01*
X131823124Y-139441525D01*
X131824329Y-139440135D01*
X131826000Y-139432452D01*
X131826000Y-137432115D01*
X131821525Y-137416876D01*
X131820135Y-137415671D01*
X131812452Y-137414000D01*
X130763225Y-137414000D01*
X130749694Y-137417973D01*
X130748257Y-137427966D01*
X130778565Y-137562446D01*
X130781645Y-137572275D01*
X130861770Y-137769603D01*
X130866413Y-137778794D01*
X130977694Y-137960388D01*
X130983777Y-137968699D01*
X131123213Y-138129667D01*
X131130580Y-138136883D01*
X131294434Y-138272916D01*
X131302881Y-138278831D01*
X131372479Y-138319501D01*
X131421203Y-138371140D01*
X131434274Y-138440923D01*
X131407543Y-138506694D01*
X131367087Y-138540053D01*
X131358462Y-138544542D01*
X131349738Y-138550036D01*
X131179433Y-138677905D01*
X131171726Y-138684748D01*
X131024590Y-138838717D01*
X131018104Y-138846727D01*
X130898098Y-139022649D01*
X130893000Y-139031623D01*
X130803338Y-139224783D01*
X130799775Y-139234470D01*
X130744389Y-139434183D01*
X125157623Y-139434183D01*
X125157999Y-139432452D01*
X125157999Y-138855331D01*
X125157629Y-138848510D01*
X125152105Y-138797648D01*
X125148479Y-138782396D01*
X125103324Y-138661946D01*
X125094786Y-138646351D01*
X125018285Y-138544276D01*
X125005723Y-138531714D01*
X125004538Y-138530826D01*
X125003658Y-138529649D01*
X124999374Y-138525365D01*
X124999992Y-138524747D01*
X124962023Y-138473967D01*
X124956997Y-138403148D01*
X124991057Y-138340855D01*
X125004538Y-138329174D01*
X125005723Y-138328286D01*
X125018285Y-138315724D01*
X125094786Y-138213649D01*
X125103324Y-138198054D01*
X125148478Y-138077606D01*
X125152105Y-138062351D01*
X125157631Y-138011486D01*
X125158000Y-138004672D01*
X125158000Y-137432115D01*
X125153525Y-137416876D01*
X125152135Y-137415671D01*
X125144452Y-137414000D01*
X124586000Y-137414000D01*
X124517879Y-137393998D01*
X124471386Y-137340342D01*
X124460000Y-137288000D01*
X124460000Y-137032000D01*
X124480002Y-136963879D01*
X124533658Y-136917386D01*
X124586000Y-136906000D01*
X125139884Y-136906000D01*
X125155123Y-136901525D01*
X125156328Y-136900135D01*
X125157623Y-136894183D01*
X130744389Y-136894183D01*
X130745912Y-136902607D01*
X130758292Y-136906000D01*
X131807885Y-136906000D01*
X131823124Y-136901525D01*
X131824329Y-136900135D01*
X131826000Y-136892452D01*
X131826000Y-134892115D01*
X131821525Y-134876876D01*
X131820135Y-134875671D01*
X131812452Y-134874000D01*
X130763225Y-134874000D01*
X130749694Y-134877973D01*
X130748257Y-134887966D01*
X130778565Y-135022446D01*
X130781645Y-135032275D01*
X130861770Y-135229603D01*
X130866413Y-135238794D01*
X130977694Y-135420388D01*
X130983777Y-135428699D01*
X131123213Y-135589667D01*
X131130580Y-135596883D01*
X131294434Y-135732916D01*
X131302881Y-135738831D01*
X131372479Y-135779501D01*
X131421203Y-135831140D01*
X131434274Y-135900923D01*
X131407543Y-135966694D01*
X131367087Y-136000053D01*
X131358462Y-136004542D01*
X131349738Y-136010036D01*
X131179433Y-136137905D01*
X131171726Y-136144748D01*
X131024590Y-136298717D01*
X131018104Y-136306727D01*
X130898098Y-136482649D01*
X130893000Y-136491623D01*
X130803338Y-136684783D01*
X130799775Y-136694470D01*
X130744389Y-136894183D01*
X125157623Y-136894183D01*
X125157999Y-136892452D01*
X125157999Y-136315331D01*
X125157629Y-136308510D01*
X125152105Y-136257648D01*
X125148479Y-136242396D01*
X125103324Y-136121946D01*
X125094786Y-136106351D01*
X125018285Y-136004276D01*
X125005723Y-135991714D01*
X125004538Y-135990826D01*
X125003658Y-135989649D01*
X124999374Y-135985365D01*
X124999992Y-135984747D01*
X124962023Y-135933967D01*
X124956997Y-135863148D01*
X124991057Y-135800855D01*
X125004538Y-135789174D01*
X125005723Y-135788286D01*
X125018285Y-135775724D01*
X125094786Y-135673649D01*
X125103324Y-135658054D01*
X125148478Y-135537606D01*
X125152105Y-135522351D01*
X125157631Y-135471486D01*
X125158000Y-135464672D01*
X125158000Y-134892115D01*
X125153525Y-134876876D01*
X125152135Y-134875671D01*
X125144452Y-134874000D01*
X124586000Y-134874000D01*
X124517879Y-134853998D01*
X124471386Y-134800342D01*
X124460000Y-134748000D01*
X124460000Y-134492000D01*
X124480002Y-134423879D01*
X124533658Y-134377386D01*
X124586000Y-134366000D01*
X125139884Y-134366000D01*
X125155123Y-134361525D01*
X125156328Y-134360135D01*
X125157623Y-134354183D01*
X130744389Y-134354183D01*
X130745912Y-134362607D01*
X130758292Y-134366000D01*
X131807885Y-134366000D01*
X131823124Y-134361525D01*
X131824329Y-134360135D01*
X131826000Y-134352452D01*
X131826000Y-132352115D01*
X131821525Y-132336876D01*
X131820135Y-132335671D01*
X131812452Y-132334000D01*
X130763225Y-132334000D01*
X130749694Y-132337973D01*
X130748257Y-132347966D01*
X130778565Y-132482446D01*
X130781645Y-132492275D01*
X130861770Y-132689603D01*
X130866413Y-132698794D01*
X130977694Y-132880388D01*
X130983777Y-132888699D01*
X131123213Y-133049667D01*
X131130580Y-133056883D01*
X131294434Y-133192916D01*
X131302881Y-133198831D01*
X131372479Y-133239501D01*
X131421203Y-133291140D01*
X131434274Y-133360923D01*
X131407543Y-133426694D01*
X131367087Y-133460053D01*
X131358462Y-133464542D01*
X131349738Y-133470036D01*
X131179433Y-133597905D01*
X131171726Y-133604748D01*
X131024590Y-133758717D01*
X131018104Y-133766727D01*
X130898098Y-133942649D01*
X130893000Y-133951623D01*
X130803338Y-134144783D01*
X130799775Y-134154470D01*
X130744389Y-134354183D01*
X125157623Y-134354183D01*
X125157999Y-134352452D01*
X125157999Y-133775331D01*
X125157629Y-133768510D01*
X125152105Y-133717648D01*
X125148479Y-133702396D01*
X125103324Y-133581946D01*
X125094786Y-133566351D01*
X125018285Y-133464276D01*
X125005723Y-133451714D01*
X125004538Y-133450826D01*
X125003658Y-133449649D01*
X124999374Y-133445365D01*
X124999992Y-133444747D01*
X124962023Y-133393967D01*
X124956997Y-133323148D01*
X124991057Y-133260855D01*
X125004538Y-133249174D01*
X125005723Y-133248286D01*
X125018285Y-133235724D01*
X125094786Y-133133649D01*
X125103324Y-133118054D01*
X125148478Y-132997606D01*
X125152105Y-132982351D01*
X125157631Y-132931486D01*
X125158000Y-132924672D01*
X125158000Y-132352115D01*
X125153525Y-132336876D01*
X125152135Y-132335671D01*
X125144452Y-132334000D01*
X124586000Y-132334000D01*
X124517879Y-132313998D01*
X124471386Y-132260342D01*
X124460000Y-132208000D01*
X124460000Y-131952000D01*
X124480002Y-131883879D01*
X124533658Y-131837386D01*
X124586000Y-131826000D01*
X125139884Y-131826000D01*
X125155123Y-131821525D01*
X125156328Y-131820135D01*
X125157623Y-131814183D01*
X130744389Y-131814183D01*
X130745912Y-131822607D01*
X130758292Y-131826000D01*
X131807885Y-131826000D01*
X131823124Y-131821525D01*
X131824329Y-131820135D01*
X131826000Y-131812452D01*
X131826000Y-129812115D01*
X131821525Y-129796876D01*
X131820135Y-129795671D01*
X131812452Y-129794000D01*
X130763225Y-129794000D01*
X130749694Y-129797973D01*
X130748257Y-129807966D01*
X130778565Y-129942446D01*
X130781645Y-129952275D01*
X130861770Y-130149603D01*
X130866413Y-130158794D01*
X130977694Y-130340388D01*
X130983777Y-130348699D01*
X131123213Y-130509667D01*
X131130580Y-130516883D01*
X131294434Y-130652916D01*
X131302881Y-130658831D01*
X131372479Y-130699501D01*
X131421203Y-130751140D01*
X131434274Y-130820923D01*
X131407543Y-130886694D01*
X131367087Y-130920053D01*
X131358462Y-130924542D01*
X131349738Y-130930036D01*
X131179433Y-131057905D01*
X131171726Y-131064748D01*
X131024590Y-131218717D01*
X131018104Y-131226727D01*
X130898098Y-131402649D01*
X130893000Y-131411623D01*
X130803338Y-131604783D01*
X130799775Y-131614470D01*
X130744389Y-131814183D01*
X125157623Y-131814183D01*
X125157999Y-131812452D01*
X125157999Y-131235331D01*
X125157629Y-131228510D01*
X125152105Y-131177648D01*
X125148479Y-131162396D01*
X125103324Y-131041946D01*
X125094786Y-131026351D01*
X125018285Y-130924276D01*
X125005723Y-130911714D01*
X125004538Y-130910826D01*
X125003658Y-130909649D01*
X124999374Y-130905365D01*
X124999992Y-130904747D01*
X124962023Y-130853967D01*
X124956997Y-130783148D01*
X124991057Y-130720855D01*
X125004538Y-130709174D01*
X125005723Y-130708286D01*
X125018285Y-130695724D01*
X125094786Y-130593649D01*
X125103324Y-130578054D01*
X125148478Y-130457606D01*
X125152105Y-130442351D01*
X125157631Y-130391486D01*
X125158000Y-130384672D01*
X125158000Y-129812115D01*
X125153525Y-129796876D01*
X125152135Y-129795671D01*
X125144452Y-129794000D01*
X124586000Y-129794000D01*
X124517879Y-129773998D01*
X124471386Y-129720342D01*
X124460000Y-129668000D01*
X124460000Y-129412000D01*
X124480002Y-129343879D01*
X124533658Y-129297386D01*
X124586000Y-129286000D01*
X125139884Y-129286000D01*
X125155123Y-129281525D01*
X125156328Y-129280135D01*
X125157623Y-129274183D01*
X130744389Y-129274183D01*
X130745912Y-129282607D01*
X130758292Y-129286000D01*
X131807885Y-129286000D01*
X131823124Y-129281525D01*
X131824329Y-129280135D01*
X131826000Y-129272452D01*
X131826000Y-127272115D01*
X131821525Y-127256876D01*
X131820135Y-127255671D01*
X131812452Y-127254000D01*
X130763225Y-127254000D01*
X130749694Y-127257973D01*
X130748257Y-127267966D01*
X130778565Y-127402446D01*
X130781645Y-127412275D01*
X130861770Y-127609603D01*
X130866413Y-127618794D01*
X130977694Y-127800388D01*
X130983777Y-127808699D01*
X131123213Y-127969667D01*
X131130580Y-127976883D01*
X131294434Y-128112916D01*
X131302881Y-128118831D01*
X131372479Y-128159501D01*
X131421203Y-128211140D01*
X131434274Y-128280923D01*
X131407543Y-128346694D01*
X131367087Y-128380053D01*
X131358462Y-128384542D01*
X131349738Y-128390036D01*
X131179433Y-128517905D01*
X131171726Y-128524748D01*
X131024590Y-128678717D01*
X131018104Y-128686727D01*
X130898098Y-128862649D01*
X130893000Y-128871623D01*
X130803338Y-129064783D01*
X130799775Y-129074470D01*
X130744389Y-129274183D01*
X125157623Y-129274183D01*
X125157999Y-129272452D01*
X125157999Y-128695331D01*
X125157629Y-128688510D01*
X125152105Y-128637648D01*
X125148479Y-128622396D01*
X125103324Y-128501946D01*
X125094786Y-128486351D01*
X125018285Y-128384276D01*
X125005723Y-128371714D01*
X125004538Y-128370826D01*
X125003658Y-128369649D01*
X124999374Y-128365365D01*
X124999992Y-128364747D01*
X124962023Y-128313967D01*
X124956997Y-128243148D01*
X124991057Y-128180855D01*
X125004538Y-128169174D01*
X125005723Y-128168286D01*
X125018285Y-128155724D01*
X125094786Y-128053649D01*
X125103324Y-128038054D01*
X125148478Y-127917606D01*
X125152105Y-127902351D01*
X125157631Y-127851486D01*
X125158000Y-127844672D01*
X125158000Y-127272115D01*
X125153525Y-127256876D01*
X125152135Y-127255671D01*
X125144452Y-127254000D01*
X124586000Y-127254000D01*
X124517879Y-127233998D01*
X124471386Y-127180342D01*
X124460000Y-127128000D01*
X124460000Y-126872000D01*
X124480002Y-126803879D01*
X124533658Y-126757386D01*
X124586000Y-126746000D01*
X125139884Y-126746000D01*
X125155123Y-126741525D01*
X125156328Y-126740135D01*
X125157623Y-126734183D01*
X130744389Y-126734183D01*
X130745912Y-126742607D01*
X130758292Y-126746000D01*
X131807885Y-126746000D01*
X131823124Y-126741525D01*
X131824329Y-126740135D01*
X131826000Y-126732452D01*
X131826000Y-124732115D01*
X131821525Y-124716876D01*
X131820135Y-124715671D01*
X131812452Y-124714000D01*
X130763225Y-124714000D01*
X130749694Y-124717973D01*
X130748257Y-124727966D01*
X130778565Y-124862446D01*
X130781645Y-124872275D01*
X130861770Y-125069603D01*
X130866413Y-125078794D01*
X130977694Y-125260388D01*
X130983777Y-125268699D01*
X131123213Y-125429667D01*
X131130580Y-125436883D01*
X131294434Y-125572916D01*
X131302881Y-125578831D01*
X131372479Y-125619501D01*
X131421203Y-125671140D01*
X131434274Y-125740923D01*
X131407543Y-125806694D01*
X131367087Y-125840053D01*
X131358462Y-125844542D01*
X131349738Y-125850036D01*
X131179433Y-125977905D01*
X131171726Y-125984748D01*
X131024590Y-126138717D01*
X131018104Y-126146727D01*
X130898098Y-126322649D01*
X130893000Y-126331623D01*
X130803338Y-126524783D01*
X130799775Y-126534470D01*
X130744389Y-126734183D01*
X125157623Y-126734183D01*
X125157999Y-126732452D01*
X125157999Y-126155331D01*
X125157629Y-126148510D01*
X125152105Y-126097648D01*
X125148479Y-126082396D01*
X125103324Y-125961946D01*
X125094786Y-125946351D01*
X125018285Y-125844276D01*
X125005723Y-125831714D01*
X125004538Y-125830826D01*
X125003658Y-125829649D01*
X124999374Y-125825365D01*
X124999992Y-125824747D01*
X124962023Y-125773967D01*
X124956997Y-125703148D01*
X124991057Y-125640855D01*
X125004538Y-125629174D01*
X125005723Y-125628286D01*
X125018285Y-125615724D01*
X125094786Y-125513649D01*
X125103324Y-125498054D01*
X125148478Y-125377606D01*
X125152105Y-125362351D01*
X125157631Y-125311486D01*
X125158000Y-125304672D01*
X125158000Y-124732115D01*
X125153525Y-124716876D01*
X125152135Y-124715671D01*
X125144452Y-124714000D01*
X124586000Y-124714000D01*
X124517879Y-124693998D01*
X124471386Y-124640342D01*
X124460000Y-124588000D01*
X124460000Y-124332000D01*
X124480002Y-124263879D01*
X124533658Y-124217386D01*
X124586000Y-124206000D01*
X125139884Y-124206000D01*
X125155123Y-124201525D01*
X125156328Y-124200135D01*
X125157623Y-124194183D01*
X130744389Y-124194183D01*
X130745912Y-124202607D01*
X130758292Y-124206000D01*
X131807885Y-124206000D01*
X131823124Y-124201525D01*
X131824329Y-124200135D01*
X131826000Y-124192452D01*
X131826000Y-122192115D01*
X131821525Y-122176876D01*
X131820135Y-122175671D01*
X131812452Y-122174000D01*
X130763225Y-122174000D01*
X130749694Y-122177973D01*
X130748257Y-122187966D01*
X130778565Y-122322446D01*
X130781645Y-122332275D01*
X130861770Y-122529603D01*
X130866413Y-122538794D01*
X130977694Y-122720388D01*
X130983777Y-122728699D01*
X131123213Y-122889667D01*
X131130580Y-122896883D01*
X131294434Y-123032916D01*
X131302881Y-123038831D01*
X131372479Y-123079501D01*
X131421203Y-123131140D01*
X131434274Y-123200923D01*
X131407543Y-123266694D01*
X131367087Y-123300053D01*
X131358462Y-123304542D01*
X131349738Y-123310036D01*
X131179433Y-123437905D01*
X131171726Y-123444748D01*
X131024590Y-123598717D01*
X131018104Y-123606727D01*
X130898098Y-123782649D01*
X130893000Y-123791623D01*
X130803338Y-123984783D01*
X130799775Y-123994470D01*
X130744389Y-124194183D01*
X125157623Y-124194183D01*
X125157999Y-124192452D01*
X125157999Y-123615331D01*
X125157629Y-123608510D01*
X125152105Y-123557648D01*
X125148479Y-123542396D01*
X125103324Y-123421946D01*
X125094786Y-123406351D01*
X125018285Y-123304276D01*
X125005723Y-123291714D01*
X125004538Y-123290826D01*
X125003658Y-123289649D01*
X124999374Y-123285365D01*
X124999992Y-123284747D01*
X124962023Y-123233967D01*
X124956997Y-123163148D01*
X124991057Y-123100855D01*
X125004538Y-123089174D01*
X125005723Y-123088286D01*
X125018285Y-123075724D01*
X125094786Y-122973649D01*
X125103324Y-122958054D01*
X125148478Y-122837606D01*
X125152105Y-122822351D01*
X125157631Y-122771486D01*
X125158000Y-122764672D01*
X125158000Y-122192115D01*
X125153525Y-122176876D01*
X125152135Y-122175671D01*
X125144452Y-122174000D01*
X124586000Y-122174000D01*
X124517879Y-122153998D01*
X124471386Y-122100342D01*
X124460000Y-122048000D01*
X124460000Y-121792000D01*
X124480002Y-121723879D01*
X124533658Y-121677386D01*
X124586000Y-121666000D01*
X125139884Y-121666000D01*
X125155123Y-121661525D01*
X125156328Y-121660135D01*
X125157623Y-121654183D01*
X130744389Y-121654183D01*
X130745912Y-121662607D01*
X130758292Y-121666000D01*
X131807885Y-121666000D01*
X131823124Y-121661525D01*
X131824329Y-121660135D01*
X131826000Y-121652452D01*
X131826000Y-119652115D01*
X131821525Y-119636876D01*
X131820135Y-119635671D01*
X131812452Y-119634000D01*
X130763225Y-119634000D01*
X130749694Y-119637973D01*
X130748257Y-119647966D01*
X130778565Y-119782446D01*
X130781645Y-119792275D01*
X130861770Y-119989603D01*
X130866413Y-119998794D01*
X130977694Y-120180388D01*
X130983777Y-120188699D01*
X131123213Y-120349667D01*
X131130580Y-120356883D01*
X131294434Y-120492916D01*
X131302881Y-120498831D01*
X131372479Y-120539501D01*
X131421203Y-120591140D01*
X131434274Y-120660923D01*
X131407543Y-120726694D01*
X131367087Y-120760053D01*
X131358462Y-120764542D01*
X131349738Y-120770036D01*
X131179433Y-120897905D01*
X131171726Y-120904748D01*
X131024590Y-121058717D01*
X131018104Y-121066727D01*
X130898098Y-121242649D01*
X130893000Y-121251623D01*
X130803338Y-121444783D01*
X130799775Y-121454470D01*
X130744389Y-121654183D01*
X125157623Y-121654183D01*
X125157999Y-121652452D01*
X125157999Y-121075331D01*
X125157629Y-121068510D01*
X125152105Y-121017648D01*
X125148479Y-121002396D01*
X125103324Y-120881946D01*
X125094786Y-120866351D01*
X125018285Y-120764276D01*
X125005723Y-120751714D01*
X125004538Y-120750826D01*
X125003658Y-120749649D01*
X124999374Y-120745365D01*
X124999992Y-120744747D01*
X124962023Y-120693967D01*
X124956997Y-120623148D01*
X124991057Y-120560855D01*
X125004538Y-120549174D01*
X125005723Y-120548286D01*
X125018285Y-120535724D01*
X125094786Y-120433649D01*
X125103324Y-120418054D01*
X125148478Y-120297606D01*
X125152105Y-120282351D01*
X125157631Y-120231486D01*
X125158000Y-120224672D01*
X125158000Y-119652115D01*
X125153525Y-119636876D01*
X125152135Y-119635671D01*
X125144452Y-119634000D01*
X124586000Y-119634000D01*
X124517879Y-119613998D01*
X124471386Y-119560342D01*
X124460000Y-119508000D01*
X124460000Y-119252000D01*
X124480002Y-119183879D01*
X124533658Y-119137386D01*
X124586000Y-119126000D01*
X125139884Y-119126000D01*
X125155123Y-119121525D01*
X125156328Y-119120135D01*
X125157623Y-119114183D01*
X130744389Y-119114183D01*
X130745912Y-119122607D01*
X130758292Y-119126000D01*
X131807885Y-119126000D01*
X131823124Y-119121525D01*
X131824329Y-119120135D01*
X131826000Y-119112452D01*
X131826000Y-117112115D01*
X131821525Y-117096876D01*
X131820135Y-117095671D01*
X131812452Y-117094000D01*
X130763225Y-117094000D01*
X130749694Y-117097973D01*
X130748257Y-117107966D01*
X130778565Y-117242446D01*
X130781645Y-117252275D01*
X130861770Y-117449603D01*
X130866413Y-117458794D01*
X130977694Y-117640388D01*
X130983777Y-117648699D01*
X131123213Y-117809667D01*
X131130580Y-117816883D01*
X131294434Y-117952916D01*
X131302881Y-117958831D01*
X131372479Y-117999501D01*
X131421203Y-118051140D01*
X131434274Y-118120923D01*
X131407543Y-118186694D01*
X131367087Y-118220053D01*
X131358462Y-118224542D01*
X131349738Y-118230036D01*
X131179433Y-118357905D01*
X131171726Y-118364748D01*
X131024590Y-118518717D01*
X131018104Y-118526727D01*
X130898098Y-118702649D01*
X130893000Y-118711623D01*
X130803338Y-118904783D01*
X130799775Y-118914470D01*
X130744389Y-119114183D01*
X125157623Y-119114183D01*
X125157999Y-119112452D01*
X125157999Y-118535331D01*
X125157629Y-118528510D01*
X125152105Y-118477648D01*
X125148479Y-118462396D01*
X125103324Y-118341946D01*
X125094786Y-118326351D01*
X125018285Y-118224276D01*
X125005723Y-118211714D01*
X125004538Y-118210826D01*
X125003658Y-118209649D01*
X124999374Y-118205365D01*
X124999992Y-118204747D01*
X124962023Y-118153967D01*
X124956997Y-118083148D01*
X124991057Y-118020855D01*
X125004538Y-118009174D01*
X125005723Y-118008286D01*
X125018285Y-117995724D01*
X125094786Y-117893649D01*
X125103324Y-117878054D01*
X125148478Y-117757606D01*
X125152105Y-117742351D01*
X125157631Y-117691486D01*
X125158000Y-117684672D01*
X125158000Y-117112115D01*
X125153525Y-117096876D01*
X125152135Y-117095671D01*
X125144452Y-117094000D01*
X124586000Y-117094000D01*
X124517879Y-117073998D01*
X124471386Y-117020342D01*
X124460000Y-116968000D01*
X124460000Y-116712000D01*
X124480002Y-116643879D01*
X124533658Y-116597386D01*
X124586000Y-116586000D01*
X125139884Y-116586000D01*
X125155123Y-116581525D01*
X125156328Y-116580135D01*
X125157623Y-116574183D01*
X130744389Y-116574183D01*
X130745912Y-116582607D01*
X130758292Y-116586000D01*
X131807885Y-116586000D01*
X131823124Y-116581525D01*
X131824329Y-116580135D01*
X131826000Y-116572452D01*
X131826000Y-114572115D01*
X131821525Y-114556876D01*
X131820135Y-114555671D01*
X131812452Y-114554000D01*
X130763225Y-114554000D01*
X130749694Y-114557973D01*
X130748257Y-114567966D01*
X130778565Y-114702446D01*
X130781645Y-114712275D01*
X130861770Y-114909603D01*
X130866413Y-114918794D01*
X130977694Y-115100388D01*
X130983777Y-115108699D01*
X131123213Y-115269667D01*
X131130580Y-115276883D01*
X131294434Y-115412916D01*
X131302881Y-115418831D01*
X131372479Y-115459501D01*
X131421203Y-115511140D01*
X131434274Y-115580923D01*
X131407543Y-115646694D01*
X131367087Y-115680053D01*
X131358462Y-115684542D01*
X131349738Y-115690036D01*
X131179433Y-115817905D01*
X131171726Y-115824748D01*
X131024590Y-115978717D01*
X131018104Y-115986727D01*
X130898098Y-116162649D01*
X130893000Y-116171623D01*
X130803338Y-116364783D01*
X130799775Y-116374470D01*
X130744389Y-116574183D01*
X125157623Y-116574183D01*
X125157999Y-116572452D01*
X125157999Y-115995331D01*
X125157629Y-115988510D01*
X125152105Y-115937648D01*
X125148479Y-115922396D01*
X125103324Y-115801946D01*
X125094786Y-115786351D01*
X125018285Y-115684276D01*
X125005723Y-115671714D01*
X125004538Y-115670826D01*
X125003658Y-115669649D01*
X124999374Y-115665365D01*
X124999992Y-115664747D01*
X124962023Y-115613967D01*
X124956997Y-115543148D01*
X124991057Y-115480855D01*
X125004538Y-115469174D01*
X125005723Y-115468286D01*
X125018285Y-115455724D01*
X125094786Y-115353649D01*
X125103324Y-115338054D01*
X125148478Y-115217606D01*
X125152105Y-115202351D01*
X125157631Y-115151486D01*
X125158000Y-115144672D01*
X125158000Y-114572115D01*
X125153525Y-114556876D01*
X125152135Y-114555671D01*
X125144452Y-114554000D01*
X124586000Y-114554000D01*
X124517879Y-114533998D01*
X124471386Y-114480342D01*
X124460000Y-114428000D01*
X124460000Y-114172000D01*
X124480002Y-114103879D01*
X124533658Y-114057386D01*
X124586000Y-114046000D01*
X125139884Y-114046000D01*
X125155123Y-114041525D01*
X125156328Y-114040135D01*
X125157623Y-114034183D01*
X130744389Y-114034183D01*
X130745912Y-114042607D01*
X130758292Y-114046000D01*
X131807885Y-114046000D01*
X131823124Y-114041525D01*
X131824329Y-114040135D01*
X131826000Y-114032452D01*
X131826000Y-112032115D01*
X131821525Y-112016876D01*
X131820135Y-112015671D01*
X131812452Y-112014000D01*
X130763225Y-112014000D01*
X130749694Y-112017973D01*
X130748257Y-112027966D01*
X130778565Y-112162446D01*
X130781645Y-112172275D01*
X130861770Y-112369603D01*
X130866413Y-112378794D01*
X130977694Y-112560388D01*
X130983777Y-112568699D01*
X131123213Y-112729667D01*
X131130580Y-112736883D01*
X131294434Y-112872916D01*
X131302881Y-112878831D01*
X131372479Y-112919501D01*
X131421203Y-112971140D01*
X131434274Y-113040923D01*
X131407543Y-113106694D01*
X131367087Y-113140053D01*
X131358462Y-113144542D01*
X131349738Y-113150036D01*
X131179433Y-113277905D01*
X131171726Y-113284748D01*
X131024590Y-113438717D01*
X131018104Y-113446727D01*
X130898098Y-113622649D01*
X130893000Y-113631623D01*
X130803338Y-113824783D01*
X130799775Y-113834470D01*
X130744389Y-114034183D01*
X125157623Y-114034183D01*
X125157999Y-114032452D01*
X125157999Y-113455331D01*
X125157629Y-113448510D01*
X125152105Y-113397648D01*
X125148479Y-113382396D01*
X125103324Y-113261946D01*
X125094786Y-113246351D01*
X125018285Y-113144276D01*
X125005723Y-113131714D01*
X125004538Y-113130826D01*
X125003658Y-113129649D01*
X124999374Y-113125365D01*
X124999992Y-113124747D01*
X124962023Y-113073967D01*
X124956997Y-113003148D01*
X124991057Y-112940855D01*
X125004538Y-112929174D01*
X125005723Y-112928286D01*
X125018285Y-112915724D01*
X125094786Y-112813649D01*
X125103324Y-112798054D01*
X125148478Y-112677606D01*
X125152105Y-112662351D01*
X125157631Y-112611486D01*
X125158000Y-112604672D01*
X125158000Y-112032115D01*
X125153525Y-112016876D01*
X125152135Y-112015671D01*
X125144452Y-112014000D01*
X124586000Y-112014000D01*
X124517879Y-111993998D01*
X124471386Y-111940342D01*
X124460000Y-111888000D01*
X124460000Y-111632000D01*
X124480002Y-111563879D01*
X124533658Y-111517386D01*
X124586000Y-111506000D01*
X125139884Y-111506000D01*
X125155123Y-111501525D01*
X125156328Y-111500135D01*
X125157623Y-111494183D01*
X130744389Y-111494183D01*
X130745912Y-111502607D01*
X130758292Y-111506000D01*
X131807885Y-111506000D01*
X131823124Y-111501525D01*
X131824329Y-111500135D01*
X131826000Y-111492452D01*
X131826000Y-109492115D01*
X131821525Y-109476876D01*
X131820135Y-109475671D01*
X131812452Y-109474000D01*
X130763225Y-109474000D01*
X130749694Y-109477973D01*
X130748257Y-109487966D01*
X130778565Y-109622446D01*
X130781645Y-109632275D01*
X130861770Y-109829603D01*
X130866413Y-109838794D01*
X130977694Y-110020388D01*
X130983777Y-110028699D01*
X131123213Y-110189667D01*
X131130580Y-110196883D01*
X131294434Y-110332916D01*
X131302881Y-110338831D01*
X131372479Y-110379501D01*
X131421203Y-110431140D01*
X131434274Y-110500923D01*
X131407543Y-110566694D01*
X131367087Y-110600053D01*
X131358462Y-110604542D01*
X131349738Y-110610036D01*
X131179433Y-110737905D01*
X131171726Y-110744748D01*
X131024590Y-110898717D01*
X131018104Y-110906727D01*
X130898098Y-111082649D01*
X130893000Y-111091623D01*
X130803338Y-111284783D01*
X130799775Y-111294470D01*
X130744389Y-111494183D01*
X125157623Y-111494183D01*
X125157999Y-111492452D01*
X125157999Y-110915331D01*
X125157629Y-110908510D01*
X125152105Y-110857648D01*
X125148479Y-110842396D01*
X125103324Y-110721946D01*
X125094786Y-110706351D01*
X125018285Y-110604276D01*
X125005723Y-110591714D01*
X125004538Y-110590826D01*
X125003658Y-110589649D01*
X124999374Y-110585365D01*
X124999992Y-110584747D01*
X124962023Y-110533967D01*
X124956997Y-110463148D01*
X124991057Y-110400855D01*
X125004538Y-110389174D01*
X125005723Y-110388286D01*
X125018285Y-110375724D01*
X125094786Y-110273649D01*
X125103324Y-110258054D01*
X125148478Y-110137606D01*
X125152105Y-110122351D01*
X125157631Y-110071486D01*
X125158000Y-110064672D01*
X125158000Y-109492115D01*
X125153525Y-109476876D01*
X125152135Y-109475671D01*
X125144452Y-109474000D01*
X124586000Y-109474000D01*
X124517879Y-109453998D01*
X124471386Y-109400342D01*
X124460000Y-109348000D01*
X124460000Y-109092000D01*
X124480002Y-109023879D01*
X124533658Y-108977386D01*
X124586000Y-108966000D01*
X125139884Y-108966000D01*
X125155123Y-108961525D01*
X125156328Y-108960135D01*
X125157623Y-108954183D01*
X130744389Y-108954183D01*
X130745912Y-108962607D01*
X130758292Y-108966000D01*
X131807885Y-108966000D01*
X131823124Y-108961525D01*
X131824329Y-108960135D01*
X131826000Y-108952452D01*
X131826000Y-106952115D01*
X131821525Y-106936876D01*
X131820135Y-106935671D01*
X131812452Y-106934000D01*
X130763225Y-106934000D01*
X130749694Y-106937973D01*
X130748257Y-106947966D01*
X130778565Y-107082446D01*
X130781645Y-107092275D01*
X130861770Y-107289603D01*
X130866413Y-107298794D01*
X130977694Y-107480388D01*
X130983777Y-107488699D01*
X131123213Y-107649667D01*
X131130580Y-107656883D01*
X131294434Y-107792916D01*
X131302881Y-107798831D01*
X131372479Y-107839501D01*
X131421203Y-107891140D01*
X131434274Y-107960923D01*
X131407543Y-108026694D01*
X131367087Y-108060053D01*
X131358462Y-108064542D01*
X131349738Y-108070036D01*
X131179433Y-108197905D01*
X131171726Y-108204748D01*
X131024590Y-108358717D01*
X131018104Y-108366727D01*
X130898098Y-108542649D01*
X130893000Y-108551623D01*
X130803338Y-108744783D01*
X130799775Y-108754470D01*
X130744389Y-108954183D01*
X125157623Y-108954183D01*
X125157999Y-108952452D01*
X125157999Y-108375331D01*
X125157629Y-108368510D01*
X125152105Y-108317648D01*
X125148479Y-108302396D01*
X125103324Y-108181946D01*
X125094786Y-108166351D01*
X125018285Y-108064276D01*
X125005723Y-108051714D01*
X125004538Y-108050826D01*
X125003658Y-108049649D01*
X124999374Y-108045365D01*
X124999992Y-108044747D01*
X124962023Y-107993967D01*
X124956997Y-107923148D01*
X124991057Y-107860855D01*
X125004538Y-107849174D01*
X125005723Y-107848286D01*
X125018285Y-107835724D01*
X125094786Y-107733649D01*
X125103324Y-107718054D01*
X125148478Y-107597606D01*
X125152105Y-107582351D01*
X125157631Y-107531486D01*
X125158000Y-107524672D01*
X125158000Y-106952115D01*
X125153525Y-106936876D01*
X125152135Y-106935671D01*
X125144452Y-106934000D01*
X124586000Y-106934000D01*
X124517879Y-106913998D01*
X124471386Y-106860342D01*
X124460000Y-106808000D01*
X124460000Y-106552500D01*
X124480002Y-106484379D01*
X124533658Y-106437886D01*
X124586000Y-106426500D01*
X126438750Y-106426500D01*
X126459655Y-106428246D01*
X126474656Y-106430770D01*
X126474659Y-106430770D01*
X126479448Y-106431576D01*
X126485525Y-106431650D01*
X126487135Y-106431670D01*
X126487139Y-106431670D01*
X126492000Y-106431729D01*
X126506204Y-106429695D01*
X126512431Y-106428962D01*
X126671923Y-106414183D01*
X130744389Y-106414183D01*
X130745912Y-106422607D01*
X130758292Y-106426000D01*
X131807885Y-106426000D01*
X131823124Y-106421525D01*
X131824329Y-106420135D01*
X131826000Y-106412452D01*
X131826000Y-104412115D01*
X131821525Y-104396876D01*
X131820135Y-104395671D01*
X131812452Y-104394000D01*
X130763225Y-104394000D01*
X130749694Y-104397973D01*
X130748257Y-104407966D01*
X130778565Y-104542446D01*
X130781645Y-104552275D01*
X130861770Y-104749603D01*
X130866413Y-104758794D01*
X130977694Y-104940388D01*
X130983777Y-104948699D01*
X131123213Y-105109667D01*
X131130580Y-105116883D01*
X131294434Y-105252916D01*
X131302881Y-105258831D01*
X131372479Y-105299501D01*
X131421203Y-105351140D01*
X131434274Y-105420923D01*
X131407543Y-105486694D01*
X131367087Y-105520053D01*
X131358462Y-105524542D01*
X131349738Y-105530036D01*
X131179433Y-105657905D01*
X131171726Y-105664748D01*
X131024590Y-105818717D01*
X131018104Y-105826727D01*
X130898098Y-106002649D01*
X130893000Y-106011623D01*
X130803338Y-106204783D01*
X130799775Y-106214470D01*
X130744389Y-106414183D01*
X126671923Y-106414183D01*
X126673779Y-106414011D01*
X126673782Y-106414010D01*
X126679582Y-106413473D01*
X126685183Y-106411879D01*
X126685185Y-106411879D01*
X126747021Y-106394285D01*
X126860775Y-106361919D01*
X127029411Y-106277948D01*
X127179746Y-106164421D01*
X127306660Y-106025203D01*
X127315069Y-106011623D01*
X127402761Y-105869994D01*
X127402761Y-105869993D01*
X127405832Y-105865034D01*
X127473885Y-105689370D01*
X127508500Y-105504193D01*
X127508500Y-105315807D01*
X127473885Y-105130630D01*
X127405832Y-104954966D01*
X127399716Y-104945088D01*
X127309727Y-104799750D01*
X127309726Y-104799748D01*
X127306660Y-104794797D01*
X127179746Y-104655579D01*
X127042949Y-104552275D01*
X127034062Y-104545564D01*
X127034060Y-104545563D01*
X127029411Y-104542052D01*
X126860775Y-104458081D01*
X126699222Y-104412115D01*
X126685185Y-104408121D01*
X126685183Y-104408121D01*
X126679582Y-104406527D01*
X126534118Y-104393048D01*
X126524886Y-104391845D01*
X126504552Y-104388424D01*
X126498276Y-104388348D01*
X126496860Y-104388330D01*
X126496857Y-104388330D01*
X126492000Y-104388271D01*
X126466058Y-104391986D01*
X126464376Y-104392227D01*
X126446514Y-104393500D01*
X124586000Y-104393500D01*
X124517879Y-104373498D01*
X124471386Y-104319842D01*
X124460000Y-104267500D01*
X124460000Y-104012000D01*
X124480002Y-103943879D01*
X124533658Y-103897386D01*
X124586000Y-103886000D01*
X125139884Y-103886000D01*
X125155123Y-103881525D01*
X125156328Y-103880135D01*
X125157999Y-103872452D01*
X125157999Y-103295331D01*
X125157629Y-103288510D01*
X125152105Y-103237648D01*
X125148479Y-103222396D01*
X125103324Y-103101946D01*
X125094786Y-103086351D01*
X125018285Y-102984276D01*
X125005723Y-102971714D01*
X125004538Y-102970826D01*
X125003658Y-102969649D01*
X124999374Y-102965365D01*
X124999992Y-102964747D01*
X124962023Y-102913967D01*
X124956997Y-102843148D01*
X124991057Y-102780855D01*
X125004538Y-102769174D01*
X125005723Y-102768286D01*
X125018285Y-102755724D01*
X125094786Y-102653649D01*
X125103324Y-102638054D01*
X125148478Y-102517606D01*
X125152105Y-102502351D01*
X125152940Y-102494669D01*
X130722001Y-102494669D01*
X130722371Y-102501490D01*
X130727895Y-102552352D01*
X130731521Y-102567604D01*
X130776676Y-102688054D01*
X130785214Y-102703649D01*
X130861715Y-102805724D01*
X130874276Y-102818285D01*
X130976351Y-102894786D01*
X130991946Y-102903324D01*
X131101337Y-102944333D01*
X131158101Y-102986975D01*
X131182801Y-103053536D01*
X131167594Y-103122885D01*
X131148201Y-103149366D01*
X131024590Y-103278717D01*
X131018104Y-103286727D01*
X130898098Y-103462649D01*
X130893000Y-103471623D01*
X130803338Y-103664783D01*
X130799775Y-103674470D01*
X130744389Y-103874183D01*
X130745912Y-103882607D01*
X130758292Y-103886000D01*
X131807885Y-103886000D01*
X131823124Y-103881525D01*
X131824329Y-103880135D01*
X131826000Y-103872452D01*
X131826000Y-101872115D01*
X131821525Y-101856876D01*
X131820135Y-101855671D01*
X131812452Y-101854000D01*
X130740116Y-101854000D01*
X130724877Y-101858475D01*
X130723672Y-101859865D01*
X130722001Y-101867548D01*
X130722001Y-102494669D01*
X125152940Y-102494669D01*
X125157631Y-102451486D01*
X125158000Y-102444672D01*
X125158000Y-101872115D01*
X125153525Y-101856876D01*
X125152135Y-101855671D01*
X125144452Y-101854000D01*
X124586000Y-101854000D01*
X124517879Y-101833998D01*
X124471386Y-101780342D01*
X124460000Y-101728000D01*
X124460000Y-101472000D01*
X124480002Y-101403879D01*
X124533658Y-101357386D01*
X124586000Y-101346000D01*
X125139884Y-101346000D01*
X125155123Y-101341525D01*
X125156328Y-101340135D01*
X125157999Y-101332452D01*
X125157999Y-101327885D01*
X130722000Y-101327885D01*
X130726475Y-101343124D01*
X130727865Y-101344329D01*
X130735548Y-101346000D01*
X131807885Y-101346000D01*
X131823124Y-101341525D01*
X131824329Y-101340135D01*
X131826000Y-101332452D01*
X131826000Y-100260116D01*
X131821525Y-100244877D01*
X131820135Y-100243672D01*
X131812452Y-100242001D01*
X131185331Y-100242001D01*
X131178510Y-100242371D01*
X131127648Y-100247895D01*
X131112396Y-100251521D01*
X130991946Y-100296676D01*
X130976351Y-100305214D01*
X130874276Y-100381715D01*
X130861715Y-100394276D01*
X130785214Y-100496351D01*
X130776676Y-100511946D01*
X130731522Y-100632394D01*
X130727895Y-100647649D01*
X130722369Y-100698514D01*
X130722000Y-100705328D01*
X130722000Y-101327885D01*
X125157999Y-101327885D01*
X125157999Y-100755331D01*
X125157629Y-100748510D01*
X125152105Y-100697648D01*
X125148479Y-100682396D01*
X125103324Y-100561946D01*
X125094786Y-100546351D01*
X125018285Y-100444276D01*
X125005724Y-100431715D01*
X124903649Y-100355214D01*
X124888054Y-100346676D01*
X124767606Y-100301522D01*
X124752351Y-100297895D01*
X124701486Y-100292369D01*
X124694672Y-100292000D01*
X124586000Y-100292000D01*
X124517879Y-100271998D01*
X124471386Y-100218342D01*
X124460000Y-100166000D01*
X124460000Y-99694500D01*
X124480002Y-99626379D01*
X124533658Y-99579886D01*
X124586000Y-99568500D01*
X185370633Y-99568500D01*
X185390018Y-99570000D01*
G37*
G04 #@! TD.AperFunction*
G04 #@! TA.AperFunction,Conductor*
G36*
X162415176Y-115520082D02*
G01*
X165280382Y-118385288D01*
X165314408Y-118447600D01*
X165309343Y-118518415D01*
X165295375Y-118545387D01*
X165188098Y-118702649D01*
X165183000Y-118711623D01*
X165093338Y-118904783D01*
X165089775Y-118914470D01*
X165034389Y-119114183D01*
X165035912Y-119122607D01*
X165048292Y-119126000D01*
X166097885Y-119126000D01*
X166113124Y-119121525D01*
X166114329Y-119120135D01*
X166116000Y-119112452D01*
X166116000Y-118964499D01*
X166136002Y-118896378D01*
X166189658Y-118849885D01*
X166242000Y-118838499D01*
X166498000Y-118838499D01*
X166566121Y-118858501D01*
X166612614Y-118912157D01*
X166624000Y-118964499D01*
X166624000Y-119795501D01*
X166603998Y-119863622D01*
X166550342Y-119910115D01*
X166498000Y-119921501D01*
X166242000Y-119921501D01*
X166173879Y-119901499D01*
X166127386Y-119847843D01*
X166116000Y-119795501D01*
X166116000Y-119652115D01*
X166111525Y-119636876D01*
X166110135Y-119635671D01*
X166102452Y-119634000D01*
X165053225Y-119634000D01*
X165039694Y-119637973D01*
X165038257Y-119647966D01*
X165065264Y-119767800D01*
X165060728Y-119838651D01*
X165018607Y-119895803D01*
X164952273Y-119921109D01*
X164942347Y-119921501D01*
X159974278Y-119921501D01*
X159906157Y-119901499D01*
X159859664Y-119847843D01*
X159849560Y-119777569D01*
X159879054Y-119712989D01*
X159885183Y-119706406D01*
X161682247Y-117909342D01*
X161690537Y-117901798D01*
X161697018Y-117897685D01*
X161743659Y-117848017D01*
X161746413Y-117845176D01*
X161766135Y-117825454D01*
X161768612Y-117822261D01*
X161776317Y-117813240D01*
X161801159Y-117786785D01*
X161806586Y-117781006D01*
X161810407Y-117774056D01*
X161816346Y-117763253D01*
X161827202Y-117746726D01*
X161834757Y-117736987D01*
X161834758Y-117736985D01*
X161839614Y-117730725D01*
X161857174Y-117690145D01*
X161862391Y-117679497D01*
X161879875Y-117647694D01*
X161879876Y-117647692D01*
X161883695Y-117640745D01*
X161888733Y-117621122D01*
X161895137Y-117602419D01*
X161900033Y-117591105D01*
X161900033Y-117591104D01*
X161903181Y-117583830D01*
X161904420Y-117576007D01*
X161904423Y-117575997D01*
X161910100Y-117540155D01*
X161912486Y-117528613D01*
X161912751Y-117527580D01*
X161941176Y-117474526D01*
X161948851Y-117466003D01*
X162029040Y-117376944D01*
X162101097Y-117252138D01*
X162121223Y-117217279D01*
X162121224Y-117217278D01*
X162124527Y-117211556D01*
X162183542Y-117029928D01*
X162184407Y-117021703D01*
X162202814Y-116846565D01*
X162203504Y-116840000D01*
X162183542Y-116650072D01*
X162124527Y-116468444D01*
X162029040Y-116303056D01*
X162016662Y-116289309D01*
X161985946Y-116225303D01*
X161994710Y-116154850D01*
X162016661Y-116120693D01*
X162029040Y-116106944D01*
X162097418Y-115988510D01*
X162121223Y-115947279D01*
X162121224Y-115947278D01*
X162124527Y-115941556D01*
X162183542Y-115759928D01*
X162184232Y-115753365D01*
X162200771Y-115596006D01*
X162227784Y-115530350D01*
X162286006Y-115489720D01*
X162356951Y-115487017D01*
X162415176Y-115520082D01*
G37*
G04 #@! TD.AperFunction*
G04 #@! TA.AperFunction,Conductor*
G36*
X166566121Y-116128503D02*
G01*
X166612614Y-116182159D01*
X166624000Y-116234501D01*
X166624000Y-117445499D01*
X166603998Y-117513620D01*
X166550342Y-117560113D01*
X166498000Y-117571499D01*
X166310591Y-117571499D01*
X166242470Y-117551497D01*
X166221496Y-117534594D01*
X166152905Y-117466003D01*
X166118879Y-117403691D01*
X166116000Y-117376908D01*
X166116000Y-116234501D01*
X166136002Y-116166380D01*
X166189658Y-116119887D01*
X166242000Y-116108501D01*
X166498000Y-116108501D01*
X166566121Y-116128503D01*
G37*
G04 #@! TD.AperFunction*
G04 #@! TA.AperFunction,Conductor*
G36*
X164289526Y-114858503D02*
G01*
X164310500Y-114875406D01*
X165280382Y-115845288D01*
X165314408Y-115907600D01*
X165309343Y-115978415D01*
X165295375Y-116005387D01*
X165188098Y-116162649D01*
X165183000Y-116171623D01*
X165156038Y-116229708D01*
X165109214Y-116283075D01*
X165040971Y-116302656D01*
X164972975Y-116282233D01*
X164952655Y-116265753D01*
X164891306Y-116204403D01*
X163740499Y-115053596D01*
X163706473Y-114991284D01*
X163711538Y-114920468D01*
X163754085Y-114863633D01*
X163820605Y-114838822D01*
X163829594Y-114838501D01*
X164221405Y-114838501D01*
X164289526Y-114858503D01*
G37*
G04 #@! TD.AperFunction*
G04 #@! TA.AperFunction,Conductor*
G36*
X166566121Y-113683502D02*
G01*
X166612614Y-113737158D01*
X166624000Y-113789500D01*
X166624000Y-114715501D01*
X166603998Y-114783622D01*
X166550342Y-114830115D01*
X166498000Y-114841501D01*
X166242000Y-114841501D01*
X166173879Y-114821499D01*
X166127386Y-114767843D01*
X166116000Y-114715501D01*
X166116000Y-113789500D01*
X166136002Y-113721379D01*
X166189658Y-113674886D01*
X166242000Y-113663500D01*
X166498000Y-113663500D01*
X166566121Y-113683502D01*
G37*
G04 #@! TD.AperFunction*
G04 #@! TA.AperFunction,Conductor*
G36*
X165040183Y-111143502D02*
G01*
X165086676Y-111197158D01*
X165096780Y-111267432D01*
X165090313Y-111293005D01*
X165089776Y-111294464D01*
X165034389Y-111494183D01*
X165035912Y-111502607D01*
X165048292Y-111506000D01*
X166097885Y-111506000D01*
X166113124Y-111501525D01*
X166114329Y-111500135D01*
X166116000Y-111492452D01*
X166116000Y-111249500D01*
X166136002Y-111181379D01*
X166189658Y-111134886D01*
X166242000Y-111123500D01*
X166498000Y-111123500D01*
X166566121Y-111143502D01*
X166612614Y-111197158D01*
X166624000Y-111249500D01*
X166624000Y-112270500D01*
X166603998Y-112338621D01*
X166550342Y-112385114D01*
X166498000Y-112396500D01*
X166242000Y-112396500D01*
X166173879Y-112376498D01*
X166127386Y-112322842D01*
X166116000Y-112270500D01*
X166116000Y-112032115D01*
X166111525Y-112016876D01*
X166110135Y-112015671D01*
X166102452Y-112014000D01*
X165053225Y-112014000D01*
X165039694Y-112017973D01*
X165038257Y-112027966D01*
X165068565Y-112162446D01*
X165071646Y-112172280D01*
X165092280Y-112223097D01*
X165099376Y-112293738D01*
X165067153Y-112357001D01*
X165005843Y-112392801D01*
X164975537Y-112396500D01*
X160919800Y-112396500D01*
X160851679Y-112376498D01*
X160805186Y-112322842D01*
X160795082Y-112252568D01*
X160810681Y-112207500D01*
X160851223Y-112137279D01*
X160851224Y-112137278D01*
X160854527Y-112131556D01*
X160913542Y-111949928D01*
X160914407Y-111941703D01*
X160932814Y-111766565D01*
X160933504Y-111760000D01*
X160917037Y-111603327D01*
X160914232Y-111576635D01*
X160914232Y-111576633D01*
X160913542Y-111570072D01*
X160854527Y-111388444D01*
X160843470Y-111369292D01*
X160810681Y-111312500D01*
X160793943Y-111243504D01*
X160817164Y-111176413D01*
X160872971Y-111132526D01*
X160919800Y-111123500D01*
X164972062Y-111123500D01*
X165040183Y-111143502D01*
G37*
G04 #@! TD.AperFunction*
M02*
