G04 #@! TF.GenerationSoftware,KiCad,Pcbnew,6.0.7-f9a2dced07~116~ubuntu20.04.1*
G04 #@! TF.CreationDate,2022-09-08T22:16:36-07:00*
G04 #@! TF.ProjectId,morefloppy_panel,6d6f7265-666c-46f7-9070-795f70616e65,rev?*
G04 #@! TF.SameCoordinates,Original*
G04 #@! TF.FileFunction,Copper,L1,Top*
G04 #@! TF.FilePolarity,Positive*
%FSLAX46Y46*%
G04 Gerber Fmt 4.6, Leading zero omitted, Abs format (unit mm)*
G04 Created by KiCad (PCBNEW 6.0.7-f9a2dced07~116~ubuntu20.04.1) date 2022-09-08 22:16:36*
%MOMM*%
%LPD*%
G01*
G04 APERTURE LIST*
G04 #@! TA.AperFunction,ComponentPad*
%ADD10R,1.700000X1.700000*%
G04 #@! TD*
G04 #@! TA.AperFunction,ComponentPad*
%ADD11O,1.700000X1.700000*%
G04 #@! TD*
G04 #@! TA.AperFunction,ConnectorPad*
%ADD12R,8.000000X1.600000*%
G04 #@! TD*
G04 #@! TA.AperFunction,ViaPad*
%ADD13C,0.800000*%
G04 #@! TD*
G04 #@! TA.AperFunction,Conductor*
%ADD14C,0.250000*%
G04 #@! TD*
G04 APERTURE END LIST*
D10*
X151130000Y-120650000D03*
D11*
X153670000Y-120650000D03*
X156210000Y-120650000D03*
D10*
X151130000Y-118110000D03*
D11*
X153670000Y-118110000D03*
X156210000Y-118110000D03*
D10*
X151130000Y-113030000D03*
D11*
X153670000Y-113030000D03*
X156210000Y-113030000D03*
D10*
X151130000Y-110490000D03*
D11*
X153670000Y-110490000D03*
X156210000Y-110490000D03*
D12*
X120650000Y-101600000D03*
X120650000Y-104140000D03*
X120650000Y-106680000D03*
X120650000Y-109220000D03*
X120650000Y-111760000D03*
X120650000Y-114300000D03*
X120650000Y-116840000D03*
X120650000Y-119380000D03*
X120650000Y-121920000D03*
X120650000Y-124460000D03*
X120650000Y-127000000D03*
X120650000Y-129540000D03*
X120650000Y-132080000D03*
X120650000Y-134620000D03*
X120650000Y-137160000D03*
X120650000Y-139700000D03*
X120650000Y-142240000D03*
D10*
X132080000Y-101600000D03*
D11*
X134620000Y-101600000D03*
X132080000Y-104140000D03*
X134620000Y-104140000D03*
X132080000Y-106680000D03*
X134620000Y-106680000D03*
X132080000Y-109220000D03*
X134620000Y-109220000D03*
X132080000Y-111760000D03*
X134620000Y-111760000D03*
X132080000Y-114300000D03*
X134620000Y-114300000D03*
X132080000Y-116840000D03*
X134620000Y-116840000D03*
X132080000Y-119380000D03*
X134620000Y-119380000D03*
X132080000Y-121920000D03*
X134620000Y-121920000D03*
X132080000Y-124460000D03*
X134620000Y-124460000D03*
X132080000Y-127000000D03*
X134620000Y-127000000D03*
X132080000Y-129540000D03*
X134620000Y-129540000D03*
X132080000Y-132080000D03*
X134620000Y-132080000D03*
X132080000Y-134620000D03*
X134620000Y-134620000D03*
X132080000Y-137160000D03*
X134620000Y-137160000D03*
X132080000Y-139700000D03*
X134620000Y-139700000D03*
X132080000Y-142240000D03*
X134620000Y-142240000D03*
D10*
X181610000Y-101600000D03*
D11*
X184150000Y-101600000D03*
X181610000Y-104140000D03*
X184150000Y-104140000D03*
X181610000Y-106680000D03*
X184150000Y-106680000D03*
X181610000Y-109220000D03*
X184150000Y-109220000D03*
X181610000Y-111760000D03*
X184150000Y-111760000D03*
X181610000Y-114300000D03*
X184150000Y-114300000D03*
X181610000Y-116840000D03*
X184150000Y-116840000D03*
X181610000Y-119380000D03*
X184150000Y-119380000D03*
X181610000Y-121920000D03*
X184150000Y-121920000D03*
X181610000Y-124460000D03*
X184150000Y-124460000D03*
X181610000Y-127000000D03*
X184150000Y-127000000D03*
X181610000Y-129540000D03*
X184150000Y-129540000D03*
X181610000Y-132080000D03*
X184150000Y-132080000D03*
X181610000Y-134620000D03*
X184150000Y-134620000D03*
X181610000Y-137160000D03*
X184150000Y-137160000D03*
X181610000Y-139700000D03*
X184150000Y-139700000D03*
X181610000Y-142240000D03*
X184150000Y-142240000D03*
D10*
X166370000Y-101600000D03*
D11*
X168910000Y-101600000D03*
X166370000Y-104140000D03*
X168910000Y-104140000D03*
X166370000Y-106680000D03*
X168910000Y-106680000D03*
X166370000Y-109220000D03*
X168910000Y-109220000D03*
X166370000Y-111760000D03*
X168910000Y-111760000D03*
X166370000Y-114300000D03*
X168910000Y-114300000D03*
X166370000Y-116840000D03*
X168910000Y-116840000D03*
X166370000Y-119380000D03*
X168910000Y-119380000D03*
X166370000Y-121920000D03*
X168910000Y-121920000D03*
X166370000Y-124460000D03*
X168910000Y-124460000D03*
X166370000Y-127000000D03*
X168910000Y-127000000D03*
X166370000Y-129540000D03*
X168910000Y-129540000D03*
X166370000Y-132080000D03*
X168910000Y-132080000D03*
X166370000Y-134620000D03*
X168910000Y-134620000D03*
X166370000Y-137160000D03*
X168910000Y-137160000D03*
X166370000Y-139700000D03*
X168910000Y-139700000D03*
X166370000Y-142240000D03*
X168910000Y-142240000D03*
D13*
X160020000Y-109220000D03*
X160020000Y-111760000D03*
X138430000Y-115570000D03*
X144780000Y-111760000D03*
X160020000Y-115570000D03*
X161290000Y-116840000D03*
X171450000Y-115570000D03*
X161290000Y-115570000D03*
X171171848Y-113308152D03*
X163830000Y-114935000D03*
X162560000Y-116840000D03*
D14*
X160020000Y-109220000D02*
X160020000Y-111760000D01*
X120650000Y-101600000D02*
X127000000Y-101600000D01*
X127000000Y-101600000D02*
X128175001Y-102775001D01*
X170085001Y-100424999D02*
X182974999Y-100424999D01*
X134620000Y-101600000D02*
X135795001Y-100424999D01*
X168910000Y-101600000D02*
X170085001Y-100424999D01*
X140619990Y-99410010D02*
X166720010Y-99410010D01*
X166720010Y-99410010D02*
X167734999Y-100424999D01*
X133444999Y-102775001D02*
X134620000Y-101600000D01*
X128175001Y-102775001D02*
X133444999Y-102775001D01*
X182974999Y-100424999D02*
X184150000Y-101600000D01*
X167734999Y-100424999D02*
X168910000Y-101600000D01*
X135795001Y-100424999D02*
X139605001Y-100424999D01*
X139605001Y-100424999D02*
X140619990Y-99410010D01*
X133444999Y-105315001D02*
X134620000Y-104140000D01*
X144780000Y-107188000D02*
X140556999Y-102964999D01*
X182974999Y-102964999D02*
X184150000Y-104140000D01*
X128175001Y-105315001D02*
X133444999Y-105315001D01*
X167734999Y-102964999D02*
X151543001Y-102964999D01*
X140556999Y-102964999D02*
X135795001Y-102964999D01*
X170085001Y-102964999D02*
X182974999Y-102964999D01*
X120650000Y-104140000D02*
X127000000Y-104140000D01*
X151543001Y-102964999D02*
X147320000Y-107188000D01*
X147320000Y-107188000D02*
X144780000Y-107188000D01*
X168910000Y-104140000D02*
X167734999Y-102964999D01*
X127000000Y-104140000D02*
X128175001Y-105315001D01*
X135795001Y-102964999D02*
X134620000Y-104140000D01*
X168910000Y-104140000D02*
X170085001Y-102964999D01*
X152329580Y-107638010D02*
X154462591Y-105504999D01*
X154462591Y-105504999D02*
X167734999Y-105504999D01*
X128175001Y-107855001D02*
X133444999Y-107855001D01*
X120650000Y-106680000D02*
X127000000Y-106680000D01*
X168910000Y-106680000D02*
X170085001Y-105504999D01*
X167734999Y-105504999D02*
X168910000Y-106680000D01*
X135795001Y-105504999D02*
X142460589Y-105504999D01*
X133444999Y-107855001D02*
X134620000Y-106680000D01*
X127000000Y-106680000D02*
X128175001Y-107855001D01*
X142460589Y-105504999D02*
X144593600Y-107638010D01*
X182974999Y-105504999D02*
X184150000Y-106680000D01*
X144593600Y-107638010D02*
X152329580Y-107638010D01*
X170085001Y-105504999D02*
X182974999Y-105504999D01*
X134620000Y-106680000D02*
X135795001Y-105504999D01*
X151834010Y-108769990D02*
X140773990Y-108769990D01*
X168910000Y-109220000D02*
X170180000Y-107950000D01*
X127000000Y-109220000D02*
X128175001Y-110395001D01*
X133444999Y-110395001D02*
X134620000Y-109220000D01*
X166839002Y-107950000D02*
X152654000Y-107950000D01*
X182880000Y-107950000D02*
X184150000Y-109220000D01*
X139954000Y-107950000D02*
X135890000Y-107950000D01*
X120650000Y-109220000D02*
X127000000Y-109220000D01*
X128175001Y-110395001D02*
X133444999Y-110395001D01*
X166839002Y-107950000D02*
X168109002Y-109220000D01*
X140773990Y-108769990D02*
X139954000Y-107950000D01*
X170180000Y-107950000D02*
X182880000Y-107950000D01*
X134620000Y-109220000D02*
X135890000Y-107950000D01*
X152654000Y-107950000D02*
X151834010Y-108769990D01*
X168109002Y-109220000D02*
X168910000Y-109220000D01*
X128175001Y-112935001D02*
X133444999Y-112935001D01*
X152869002Y-115570000D02*
X138430000Y-115570000D01*
X155034999Y-119285001D02*
X155034999Y-117735997D01*
X155034999Y-117735997D02*
X152869002Y-115570000D01*
X120650000Y-111760000D02*
X127000000Y-111760000D01*
X133444999Y-112935001D02*
X134620000Y-111760000D01*
X153670000Y-120650000D02*
X155034999Y-119285001D01*
X127000000Y-111760000D02*
X128175001Y-112935001D01*
X153670000Y-113030000D02*
X152400000Y-114300000D01*
X127000000Y-114300000D02*
X128175001Y-115475001D01*
X128175001Y-115475001D02*
X133444999Y-115475001D01*
X120650000Y-114300000D02*
X127000000Y-114300000D01*
X152400000Y-114300000D02*
X134620000Y-114300000D01*
X133444999Y-115475001D02*
X134620000Y-114300000D01*
X128175001Y-118015001D02*
X133444999Y-118015001D01*
X133444999Y-118015001D02*
X134620000Y-116840000D01*
X152494999Y-116934999D02*
X134714999Y-116934999D01*
X153670000Y-118110000D02*
X152494999Y-116934999D01*
X127000000Y-116840000D02*
X128175001Y-118015001D01*
X134714999Y-116934999D02*
X134620000Y-116840000D01*
X120650000Y-116840000D02*
X127000000Y-116840000D01*
X120650000Y-119380000D02*
X127000000Y-119380000D01*
X133444999Y-120555001D02*
X134620000Y-119380000D01*
X152400000Y-109220000D02*
X147320000Y-109220000D01*
X153670000Y-110490000D02*
X152400000Y-109220000D01*
X128175001Y-120555001D02*
X133444999Y-120555001D01*
X127000000Y-119380000D02*
X128175001Y-120555001D01*
X147320000Y-109220000D02*
X144780000Y-111760000D01*
X127000000Y-121920000D02*
X128175001Y-123095001D01*
X135795001Y-123095001D02*
X167734999Y-123095001D01*
X182974999Y-120744999D02*
X184150000Y-121920000D01*
X167734999Y-123095001D02*
X168910000Y-121920000D01*
X134620000Y-121920000D02*
X135795001Y-123095001D01*
X120650000Y-121920000D02*
X127000000Y-121920000D01*
X168910000Y-121920000D02*
X170085001Y-120744999D01*
X133444999Y-123095001D02*
X134620000Y-121920000D01*
X170085001Y-120744999D02*
X182974999Y-120744999D01*
X128175001Y-123095001D02*
X133444999Y-123095001D01*
X128175001Y-125635001D02*
X133444999Y-125635001D01*
X120650000Y-124460000D02*
X127000000Y-124460000D01*
X170085001Y-123284999D02*
X182974999Y-123284999D01*
X168910000Y-124460000D02*
X170085001Y-123284999D01*
X133444999Y-125635001D02*
X134620000Y-124460000D01*
X135795001Y-125635001D02*
X167734999Y-125635001D01*
X127000000Y-124460000D02*
X128175001Y-125635001D01*
X134620000Y-124460000D02*
X135795001Y-125635001D01*
X167734999Y-125635001D02*
X168910000Y-124460000D01*
X182974999Y-123284999D02*
X184150000Y-124460000D01*
X127000000Y-127000000D02*
X128175001Y-128175001D01*
X134620000Y-127000000D02*
X135795001Y-128175001D01*
X168910000Y-127000000D02*
X170085001Y-125824999D01*
X135795001Y-128175001D02*
X167734999Y-128175001D01*
X182974999Y-125824999D02*
X184150000Y-127000000D01*
X133444999Y-128175001D02*
X134620000Y-127000000D01*
X170085001Y-125824999D02*
X182974999Y-125824999D01*
X167734999Y-128175001D02*
X168910000Y-127000000D01*
X128175001Y-128175001D02*
X133444999Y-128175001D01*
X120650000Y-127000000D02*
X127000000Y-127000000D01*
X167734999Y-130715001D02*
X168910000Y-129540000D01*
X170085001Y-128364999D02*
X182974999Y-128364999D01*
X182974999Y-128364999D02*
X184150000Y-129540000D01*
X168910000Y-129540000D02*
X170085001Y-128364999D01*
X135795001Y-130715001D02*
X167734999Y-130715001D01*
X133444999Y-130715001D02*
X134620000Y-129540000D01*
X134620000Y-129540000D02*
X135795001Y-130715001D01*
X127000000Y-129540000D02*
X128175001Y-130715001D01*
X120650000Y-129540000D02*
X127000000Y-129540000D01*
X128175001Y-130715001D02*
X133444999Y-130715001D01*
X168910000Y-132080000D02*
X170085001Y-130904999D01*
X128175001Y-133255001D02*
X133444999Y-133255001D01*
X133444999Y-133255001D02*
X134620000Y-132080000D01*
X170085001Y-130904999D02*
X182974999Y-130904999D01*
X167734999Y-133255001D02*
X168910000Y-132080000D01*
X120650000Y-132080000D02*
X127000000Y-132080000D01*
X182974999Y-130904999D02*
X184150000Y-132080000D01*
X127000000Y-132080000D02*
X128175001Y-133255001D01*
X135795001Y-133255001D02*
X167734999Y-133255001D01*
X134620000Y-132080000D02*
X135795001Y-133255001D01*
X128175001Y-135795001D02*
X133444999Y-135795001D01*
X167767000Y-135763000D02*
X168910000Y-134620000D01*
X134620000Y-134620000D02*
X135795001Y-135795001D01*
X165646998Y-135636000D02*
X165805999Y-135795001D01*
X137857592Y-135636000D02*
X165646998Y-135636000D01*
X168910000Y-134620000D02*
X170085001Y-133444999D01*
X133444999Y-135795001D02*
X134620000Y-134620000D01*
X135795001Y-135795001D02*
X137698591Y-135795001D01*
X167734999Y-135795001D02*
X167767000Y-135763000D01*
X127000000Y-134620000D02*
X128175001Y-135795001D01*
X137698591Y-135795001D02*
X137857592Y-135636000D01*
X182974999Y-133444999D02*
X184150000Y-134620000D01*
X170085001Y-133444999D02*
X182974999Y-133444999D01*
X120650000Y-134620000D02*
X127000000Y-134620000D01*
X165805999Y-135795001D02*
X167734999Y-135795001D01*
X128175001Y-138335001D02*
X133444999Y-138335001D01*
X167734999Y-138335001D02*
X168910000Y-137160000D01*
X168910000Y-137160000D02*
X170085001Y-135984999D01*
X167734999Y-138335001D02*
X150655411Y-138335001D01*
X134620000Y-137160000D02*
X135795001Y-138335001D01*
X170085001Y-135984999D02*
X182974999Y-135984999D01*
X150655411Y-138335001D02*
X148522400Y-136201990D01*
X120650000Y-137160000D02*
X127000000Y-137160000D01*
X182974999Y-135984999D02*
X184150000Y-137160000D01*
X137928012Y-136201990D02*
X135795001Y-138335001D01*
X148522400Y-136201990D02*
X137928012Y-136201990D01*
X127000000Y-137160000D02*
X128175001Y-138335001D01*
X133444999Y-138335001D02*
X134620000Y-137160000D01*
X182974999Y-138524999D02*
X184150000Y-139700000D01*
X168910000Y-139700000D02*
X170085001Y-138524999D01*
X170085001Y-138524999D02*
X182974999Y-138524999D01*
X135795001Y-140875001D02*
X139540999Y-140875001D01*
X128175001Y-140875001D02*
X133444999Y-140875001D01*
X139540999Y-140875001D02*
X143764000Y-136652000D01*
X127000000Y-139700000D02*
X128175001Y-140875001D01*
X148336000Y-136652000D02*
X152559001Y-140875001D01*
X120650000Y-139700000D02*
X127000000Y-139700000D01*
X152559001Y-140875001D02*
X167734999Y-140875001D01*
X167734999Y-140875001D02*
X168910000Y-139700000D01*
X133444999Y-140875001D02*
X134620000Y-139700000D01*
X143764000Y-136652000D02*
X148336000Y-136652000D01*
X134620000Y-139700000D02*
X135795001Y-140875001D01*
X134620000Y-142240000D02*
X135795001Y-143415001D01*
X167734999Y-143415001D02*
X168910000Y-142240000D01*
X133444999Y-143415001D02*
X134620000Y-142240000D01*
X127000000Y-142240000D02*
X128175001Y-143415001D01*
X135795001Y-143415001D02*
X142907001Y-143415001D01*
X165100000Y-144272000D02*
X165956999Y-143415001D01*
X142907001Y-143415001D02*
X143764000Y-144272000D01*
X128175001Y-143415001D02*
X133444999Y-143415001D01*
X170274999Y-140875001D02*
X182785001Y-140875001D01*
X143764000Y-144272000D02*
X165100000Y-144272000D01*
X165956999Y-143415001D02*
X167734999Y-143415001D01*
X182785001Y-140875001D02*
X184150000Y-142240000D01*
X168910000Y-142240000D02*
X170274999Y-140875001D01*
X120650000Y-142240000D02*
X127000000Y-142240000D01*
X152494999Y-111854999D02*
X156774001Y-111854999D01*
X151130000Y-110490000D02*
X152494999Y-111854999D01*
X160020000Y-115100998D02*
X160020000Y-115570000D01*
X156774001Y-111854999D02*
X160020000Y-115100998D01*
X167734999Y-115664999D02*
X162465001Y-115664999D01*
X162465001Y-115664999D02*
X161290000Y-116840000D01*
X168910000Y-116840000D02*
X167734999Y-115664999D01*
X171450000Y-115570000D02*
X171450000Y-115004315D01*
X168910000Y-112464315D02*
X168910000Y-111760000D01*
X171450000Y-115004315D02*
X168910000Y-112464315D01*
X161290000Y-115004315D02*
X165709316Y-110584999D01*
X182974999Y-110584999D02*
X184150000Y-111760000D01*
X165709316Y-110584999D02*
X182974999Y-110584999D01*
X161290000Y-115570000D02*
X161290000Y-115004315D01*
X171450000Y-113030000D02*
X182880000Y-113030000D01*
X182880000Y-113030000D02*
X184150000Y-114300000D01*
X171171848Y-113308152D02*
X171450000Y-113030000D01*
X156210000Y-118110000D02*
X182079002Y-118110000D01*
X182079002Y-118110000D02*
X183349002Y-116840000D01*
X183349002Y-116840000D02*
X184150000Y-116840000D01*
X166370000Y-121920000D02*
X166370000Y-119380000D01*
X166370000Y-111760000D02*
X166370000Y-114300000D01*
X166370000Y-114300000D02*
X164465000Y-114300000D01*
X166370000Y-116840000D02*
X162560000Y-116840000D01*
X164465000Y-114300000D02*
X163830000Y-114935000D01*
M02*
