M48
; DRILL file {KiCad 6.0.7-f9a2dced07~116~ubuntu20.04.1} date Thu 08 Sep 2022 10:16:42 PM MST
; FORMAT={-:-/ absolute / inch / decimal}
; #@! TF.CreationDate,2022-09-08T22:16:42-07:00
; #@! TF.GenerationSoftware,Kicad,Pcbnew,6.0.7-f9a2dced07~116~ubuntu20.04.1
; #@! TF.FileFunction,Plated,1,2,PTH
FMAT,2
INCH
; #@! TA.AperFunction,Plated,PTH,ViaDrill
T1C0.0157
; #@! TA.AperFunction,Plated,PTH,ComponentDrill
T2C0.0394
%
G90
G05
T1
X5.45Y-4.55
X5.7Y-4.4
X6.3Y-4.3
X6.3Y-4.4
X6.3Y-4.55
X6.35Y-4.55
X6.35Y-4.6
X6.4Y-4.6
X6.45Y-4.525
X6.739Y-4.461
X6.75Y-4.55
T2
X5.2Y-4.0
X5.2Y-4.1
X5.2Y-4.2
X5.2Y-4.3
X5.2Y-4.4
X5.2Y-4.5
X5.2Y-4.6
X5.2Y-4.7
X5.2Y-4.8
X5.2Y-4.9
X5.2Y-5.0
X5.2Y-5.1
X5.2Y-5.2
X5.2Y-5.3
X5.2Y-5.4
X5.2Y-5.5
X5.2Y-5.6
X5.3Y-4.0
X5.3Y-4.1
X5.3Y-4.2
X5.3Y-4.3
X5.3Y-4.4
X5.3Y-4.5
X5.3Y-4.6
X5.3Y-4.7
X5.3Y-4.8
X5.3Y-4.9
X5.3Y-5.0
X5.3Y-5.1
X5.3Y-5.2
X5.3Y-5.3
X5.3Y-5.4
X5.3Y-5.5
X5.3Y-5.6
X5.95Y-4.35
X5.95Y-4.45
X5.95Y-4.65
X5.95Y-4.75
X6.05Y-4.35
X6.05Y-4.45
X6.05Y-4.65
X6.05Y-4.75
X6.15Y-4.35
X6.15Y-4.45
X6.15Y-4.65
X6.15Y-4.75
X6.55Y-4.0
X6.55Y-4.1
X6.55Y-4.2
X6.55Y-4.3
X6.55Y-4.4
X6.55Y-4.5
X6.55Y-4.6
X6.55Y-4.7
X6.55Y-4.8
X6.55Y-4.9
X6.55Y-5.0
X6.55Y-5.1
X6.55Y-5.2
X6.55Y-5.3
X6.55Y-5.4
X6.55Y-5.5
X6.55Y-5.6
X6.65Y-4.0
X6.65Y-4.1
X6.65Y-4.2
X6.65Y-4.3
X6.65Y-4.4
X6.65Y-4.5
X6.65Y-4.6
X6.65Y-4.7
X6.65Y-4.8
X6.65Y-4.9
X6.65Y-5.0
X6.65Y-5.1
X6.65Y-5.2
X6.65Y-5.3
X6.65Y-5.4
X6.65Y-5.5
X6.65Y-5.6
X7.15Y-4.0
X7.15Y-4.1
X7.15Y-4.2
X7.15Y-4.3
X7.15Y-4.4
X7.15Y-4.5
X7.15Y-4.6
X7.15Y-4.7
X7.15Y-4.8
X7.15Y-4.9
X7.15Y-5.0
X7.15Y-5.1
X7.15Y-5.2
X7.15Y-5.3
X7.15Y-5.4
X7.15Y-5.5
X7.15Y-5.6
X7.25Y-4.0
X7.25Y-4.1
X7.25Y-4.2
X7.25Y-4.3
X7.25Y-4.4
X7.25Y-4.5
X7.25Y-4.6
X7.25Y-4.7
X7.25Y-4.8
X7.25Y-4.9
X7.25Y-5.0
X7.25Y-5.1
X7.25Y-5.2
X7.25Y-5.3
X7.25Y-5.4
X7.25Y-5.5
X7.25Y-5.6
T0
M30
